ply
format ascii 1.0
comment Created by Blender 2.73 (sub 0) - www.blender.org, source file: 'donut_block.blend'
element vertex 253
property float x
property float y
property float z
property float nx
property float ny
property float nz
property uchar red
property uchar green
property uchar blue
element face 405
property list uchar uint vertex_indices
end_header
2.500000 0.000093 0.950000 0.843165 -0.026734 0.536943 201 116 61
2.500000 0.000374 0.800000 0.887661 0.022217 -0.459914 201 116 61
2.500000 0.640374 0.800000 0.902219 -0.051424 -0.428144 201 116 61
2.100000 0.800000 -1.000000 -0.242531 0.103000 -0.964629 201 116 61
2.400000 0.800000 -1.000000 0.242531 0.103000 -0.964629 201 116 61
2.400000 0.000000 -1.000000 0.227943 -0.047456 -0.972503 201 116 61
2.500000 0.935631 0.832710 0.847163 0.495773 0.190954 201 116 61
2.500000 0.894444 0.894350 0.856777 0.364635 0.364605 201 116 61
2.500000 0.753511 0.753137 0.930662 -0.258675 -0.258705 201 116 61
2.125000 -0.273944 -0.673409 1.000000 -0.000000 -0.000000 26 26 26
2.125000 0.000467 0.000000 1.000000 -0.000000 -0.000000 26 26 26
2.125000 -0.399960 -0.606052 1.000000 -0.000000 -0.000000 26 26 26
2.125000 0.733884 -0.583114 1.000000 0.000000 -0.000000 26 26 26
2.125000 0.733884 0.583115 1.000000 0.000000 -0.000000 26 26 26
2.125000 0.643893 0.717796 1.000000 -0.000000 -0.000000 26 26 26
2.125000 0.691187 0.686196 1.000000 -0.000000 -0.000000 26 26 26
2.125000 0.588106 -0.728893 1.000000 0.000000 -0.000000 26 26 26
2.125000 0.004991 -0.728893 1.000000 0.000000 -0.000000 26 26 26
2.125000 0.588106 0.728893 1.000000 0.000000 -0.000000 26 26 26
2.125000 0.004991 0.728893 1.000000 0.000000 -0.000000 26 26 26
2.125000 -0.137209 0.714888 1.000000 0.000000 -0.000000 26 26 26
2.125000 0.722787 -0.638902 1.000000 0.000000 -0.000000 26 26 26
2.125000 0.691187 -0.686195 1.000000 0.000000 -0.000000 26 26 26
2.125000 0.643893 -0.717796 1.000000 0.000000 -0.000000 26 26 26
2.125000 -0.510414 -0.515405 1.000000 -0.000000 -0.000000 26 26 26
2.125000 -0.601061 -0.404951 1.000000 -0.000000 -0.000000 26 26 26
2.125000 -0.668418 -0.278935 1.000000 -0.000000 -0.000000 26 26 26
2.125000 0.722787 0.638902 1.000000 -0.000000 -0.000000 26 26 26
2.500000 0.000094 -0.950000 0.843165 -0.026734 -0.536943 201 116 61
2.500000 0.760093 -0.950000 0.842555 0.042360 -0.536882 201 116 61
2.500000 0.640374 -0.800000 0.902219 -0.051424 0.428144 201 116 61
2.500000 0.950094 0.760000 0.842372 0.537187 0.042360 201 116 61
2.500000 0.800374 0.640000 0.902066 -0.428449 -0.051485 201 116 61
2.500000 0.800374 -0.640000 0.902066 -0.428449 0.051485 201 116 61
2.125000 -0.137209 -0.714888 1.000000 -0.000000 -0.000000 26 26 26
2.425000 0.706533 0.706066 0.370312 -0.656850 -0.656789 201 116 61
2.200000 0.706533 0.706066 0.156621 -0.696768 -0.699942 26 26 26
2.200000 0.739049 0.657403 0.141392 -0.911588 -0.385998 26 26 26
2.100000 0.876537 -0.984776 -0.267525 0.376812 -0.886807 201 116 61
2.400000 0.876537 -0.984776 0.267525 0.376812 -0.886807 201 116 61
2.100000 -0.707107 -0.707107 -0.226844 -0.688681 -0.688650 201 116 61
2.100000 -0.555570 -0.831470 -0.226783 -0.541093 -0.809778 201 116 61
2.400000 -0.555570 -0.831470 0.226783 -0.541093 -0.809778 201 116 61
2.400000 -0.195090 -0.980785 0.226661 -0.190008 -0.955229 201 116 61
2.100000 -0.195090 -0.980785 -0.226661 -0.190008 -0.955229 201 116 61
2.100000 0.000000 -1.000000 -0.227943 -0.047456 -0.972503 201 116 61
2.100000 0.941421 -0.941421 -0.279733 0.678854 -0.678884 201 116 61
2.100000 0.984776 -0.876537 -0.267373 0.886807 -0.376873 201 116 61
2.400000 0.984776 -0.876537 0.267373 0.886807 -0.376873 201 116 61
2.500000 0.832803 -0.935537 0.847285 0.190954 -0.495590 201 116 61
2.500000 0.894444 -0.894350 0.856777 0.364635 -0.364605 201 116 61
2.500000 0.753511 -0.753137 0.930662 -0.258675 0.258705 201 116 61
2.100000 -0.382683 -0.923880 -0.226722 -0.372723 -0.899808 201 116 61
2.400000 -0.382683 -0.923880 0.226722 -0.372723 -0.899808 201 116 61
2.500000 0.760094 0.950000 0.842555 0.042360 0.536882 201 116 61
2.500000 0.701603 0.787821 0.925748 -0.153081 -0.345653 201 116 61
2.100000 1.000000 -0.800000 -0.242225 0.964721 -0.103030 201 116 61
2.100000 -1.000000 0.000000 -0.226936 -0.973876 0.000000 201 116 61
2.100000 -0.980785 -0.195090 -0.226936 -0.955168 -0.189978 201 116 61
2.400000 -0.980785 -0.195090 0.226936 -0.955168 -0.189978 201 116 61
2.100000 -0.831470 -0.555570 -0.226875 -0.809778 -0.541063 201 116 61
2.400000 -0.707107 -0.707107 0.226844 -0.688681 -0.688650 201 116 61
2.500000 0.788194 0.701229 0.925687 -0.345775 -0.153203 201 116 61
2.400000 0.941421 -0.941422 0.279733 0.678854 -0.678884 201 116 61
2.125000 -0.668418 -0.278935 1.000000 0.000000 -0.000002 26 26 26
2.125000 0.000467 0.000000 1.000000 0.000000 -0.000002 26 26 26
2.125000 -0.709897 -0.142200 1.000000 0.000000 -0.000002 26 26 26
2.425000 -0.145851 -0.735589 0.294992 0.186377 0.937132 201 116 61
2.200000 -0.145851 -0.735589 0.140965 0.194739 0.970641 26 26 26
2.200000 -0.286546 -0.692910 0.146001 0.379986 0.913358 26 26 26
2.425000 -0.529863 0.530330 0.295206 0.675558 -0.675588 201 116 61
2.200000 -0.529863 0.530330 0.154607 0.699423 -0.697745 26 26 26
2.200000 -0.416211 0.623602 0.150609 0.550371 -0.821192 26 26 26
2.425000 -0.416211 -0.623602 0.295144 0.530778 0.794427 201 116 61
2.200000 -0.416211 -0.623602 0.150609 0.550371 0.821192 26 26 26
2.200000 -0.529863 -0.530330 0.154607 0.699423 0.697745 26 26 26
2.425000 -0.286546 0.692910 0.295083 0.365612 -0.882748 201 116 61
2.200000 -0.286546 0.692910 0.146001 0.379986 -0.913358 26 26 26
2.200000 -0.145851 0.735589 0.140965 0.194739 -0.970641 26 26 26
2.425000 -0.623135 -0.416678 0.295267 0.794366 0.530808 201 116 61
2.200000 -0.623135 -0.416678 0.157872 0.821528 0.547838 26 26 26
2.200000 -0.692443 -0.287012 0.160283 0.912168 0.377148 26 26 26
2.425000 0.750467 -0.600000 0.307230 -0.947996 0.082888 201 116 61
2.200000 0.750467 -0.600000 0.118717 -0.987548 0.103030 26 26 26
2.200000 0.739049 -0.657403 0.141392 -0.911588 0.385998 26 26 26
2.425000 0.706533 -0.706066 0.370312 -0.656850 0.656789 201 116 61
2.200000 0.706533 -0.706066 0.156621 -0.696768 0.699942 26 26 26
2.200000 0.657870 -0.738582 0.154759 -0.381268 0.911405 26 26 26
2.425000 0.600467 -0.750000 0.307627 -0.082919 0.947874 201 116 61
2.200000 0.600467 -0.750000 0.142705 -0.100772 0.984588 26 26 26
2.200000 0.000467 -0.750000 0.137364 0.049257 0.989288 26 26 26
2.425000 -0.735122 -0.146318 0.295328 0.937010 0.186377 201 116 61
2.200000 -0.735122 -0.146318 0.161779 0.967925 0.192175 26 26 26
2.200000 -0.749533 0.000000 0.162267 0.986724 0.000000 26 26 26
2.425000 0.657870 -0.738582 0.350932 -0.346202 0.870022 200 115 60
2.425000 -0.735122 0.146318 0.295328 0.937010 -0.186377 199 114 60
2.200000 -0.735122 0.146318 0.161779 0.967925 -0.192206 26 26 26
2.200000 -0.692443 0.287013 0.160283 0.912168 -0.377148 26 26 26
2.425000 0.000467 -0.750000 0.292062 0.047273 0.955199 201 116 61
2.425000 0.750467 0.600000 0.307230 -0.947996 -0.082888 201 116 61
2.200000 0.750467 0.600000 0.118717 -0.987548 -0.103030 26 26 26
2.425000 -0.623135 0.416678 0.295267 0.794366 -0.530808 201 116 61
2.200000 -0.623135 0.416678 0.157872 0.821528 -0.547838 26 26 26
2.425000 -0.286546 -0.692910 0.295083 0.365612 0.882748 201 116 61
2.425000 -0.416211 0.623602 0.295144 0.530778 -0.794427 201 116 61
2.425000 -0.529863 -0.530330 0.295206 0.675558 0.675588 201 116 61
2.425000 -0.145851 0.735589 0.294992 0.186377 -0.937132 199 115 60
2.200000 0.000467 0.750000 0.137364 0.049257 -0.989288 26 26 26
2.425000 -0.692443 -0.287013 0.295297 0.882656 0.365612 201 116 61
2.425000 0.739049 -0.657403 0.350719 -0.870113 0.346171 201 116 61
2.425000 0.600467 0.750000 0.307627 -0.082919 -0.947874 201 116 61
2.200000 0.600467 0.750000 0.142705 -0.100772 -0.984588 26 26 26
2.200000 0.657869 0.738582 0.154759 -0.381268 -0.911405 26 26 26
2.425000 0.739049 0.657402 0.350719 -0.870113 -0.346171 201 116 61
2.425000 -0.749533 -0.000000 0.295328 0.955382 0.000000 201 116 61
2.425000 0.657869 0.738582 0.350932 -0.346202 -0.870022 201 116 61
2.425000 -0.692443 0.287012 0.295297 0.882656 -0.365612 201 116 61
2.125000 -0.723902 0.000000 1.000000 -0.000000 -0.000000 26 26 26
2.125000 -0.709897 -0.142200 1.000000 -0.000000 -0.000000 26 26 26
2.125000 -0.709896 0.142200 1.000000 0.000000 0.000000 26 26 26
2.125000 -0.668418 0.278935 1.000000 0.000000 0.000000 26 26 26
2.125000 -0.601061 0.404951 1.000000 0.000000 0.000000 26 26 26
2.125000 -0.510414 0.515405 1.000000 0.000000 0.000000 26 26 26
2.125000 -0.510414 0.515405 1.000000 -0.000001 -0.000001 26 26 26
2.125000 0.000467 0.000000 1.000000 -0.000001 -0.000001 26 26 26
2.125000 -0.399960 0.606053 1.000000 -0.000001 -0.000001 26 26 26
2.125000 -0.399960 0.606053 1.000000 0.000000 -0.000000 26 26 26
2.125000 -0.273944 0.673409 1.000000 0.000000 -0.000000 26 26 26
2.500000 0.000374 -0.800000 0.887661 0.022217 0.459914 201 116 61
2.500000 -0.155698 -0.784628 0.893887 0.087466 0.439619 201 116 61
2.500000 -0.185242 -0.931746 0.836055 -0.106998 -0.538072 201 116 61
2.500000 -0.305773 -0.739104 0.893948 0.171514 0.414045 201 116 61
2.500000 -0.363456 -0.877686 0.836085 -0.209876 -0.506821 201 116 61
2.500000 -0.444083 -0.665176 0.893979 0.248970 0.372570 201 116 61
2.500000 -0.527698 -0.789896 0.836116 -0.304697 -0.456069 201 116 61
2.500000 -0.565312 -0.565685 0.893979 0.316813 0.316782 201 116 61
2.500000 -0.671658 -0.671751 0.836146 -0.387799 -0.387829 201 116 61
2.500000 -0.664802 -0.444456 0.894009 0.372509 0.248878 201 116 61
2.500000 -0.185242 0.931746 0.836055 -0.106998 0.538072 201 116 61
2.500000 -0.363456 0.877685 0.836085 -0.209906 0.506821 201 116 61
2.500000 -0.305773 0.739103 0.893948 0.171514 -0.414045 201 116 61
2.500000 -0.527698 0.789896 0.836116 -0.304697 0.456069 201 116 61
2.500000 -0.444083 0.665176 0.893979 0.248970 -0.372570 201 116 61
2.500000 -0.671658 0.671751 0.836146 -0.387799 0.387829 201 116 61
2.500000 -0.565312 0.565685 0.893979 0.316813 -0.316782 201 116 61
2.500000 -0.789803 0.527792 0.836177 -0.455977 0.304697 201 116 61
2.500000 -0.664802 0.444456 0.894009 0.372509 -0.248878 201 116 61
2.500000 -0.877592 0.363549 0.836207 -0.506638 0.209845 201 116 61
2.500000 -0.738730 0.306147 0.894040 0.413862 -0.171392 201 116 61
2.500000 -0.931653 0.185336 0.836207 -0.537828 0.106967 201 116 61
2.500000 -0.784255 0.156072 0.894040 0.439314 -0.087374 201 116 61
2.500000 -0.949907 -0.000000 0.836207 -0.548357 0.000000 201 116 61
2.500000 -0.799626 -0.000000 0.894040 0.447920 0.000000 201 116 61
2.500000 -0.931653 -0.185336 0.836207 -0.537828 -0.106967 201 116 61
2.500000 -0.784255 -0.156072 0.894040 0.439314 0.087374 201 116 61
2.500000 -0.877592 -0.363549 0.836207 -0.506638 -0.209845 201 116 61
2.500000 -0.738730 -0.306147 0.894040 0.413862 0.171392 201 116 61
2.500000 -0.789803 -0.527792 0.836177 -0.455977 -0.304697 201 116 61
2.500000 0.701603 -0.787821 0.925748 -0.153081 0.345653 201 116 61
2.500000 0.832803 0.935537 0.847285 0.190954 0.495590 201 116 61
2.500000 0.935631 -0.832710 0.847163 0.495773 -0.190954 201 116 61
2.500000 0.788194 -0.701229 0.925687 -0.345775 0.153203 201 116 61
2.500000 0.950094 -0.760000 0.842372 0.537187 -0.042360 201 116 61
2.500000 -0.155699 0.784628 0.893887 0.087466 -0.439619 201 116 61
2.425000 0.000467 0.750000 0.292062 0.047273 -0.955199 201 116 61
2.400000 1.000000 0.800000 0.242225 0.964721 0.103030 201 116 61
2.400000 0.984776 0.876537 0.267373 0.886807 0.376873 201 116 61
2.400000 0.941421 0.941421 0.279733 0.678854 0.678884 201 116 61
2.400000 0.876537 0.984776 0.267525 0.376812 0.886807 201 116 61
2.400000 0.800000 1.000000 0.242531 0.103000 0.964629 201 116 61
2.400000 1.000000 -0.800000 0.242225 0.964721 -0.103030 201 116 61
2.400000 0.000000 1.000000 0.227943 -0.047456 0.972503 201 116 61
2.400000 -0.195090 0.980785 0.226661 -0.190008 0.955229 201 116 61
2.400000 -0.382683 0.923879 0.226722 -0.372723 0.899808 201 116 61
2.400000 -0.555570 0.831470 0.226783 -0.541093 0.809778 201 116 61
2.400000 -0.707107 0.707107 0.226844 -0.688681 0.688650 201 116 61
2.400000 -0.831470 0.555570 0.226875 -0.809778 0.541063 201 116 61
2.400000 -0.923880 0.382683 0.226936 -0.899777 0.372662 201 116 61
2.400000 -0.980785 0.195090 0.226936 -0.955168 0.189978 201 116 61
2.400000 -1.000000 0.000000 0.226936 -0.973876 0.000000 201 116 61
2.400000 -0.923880 -0.382683 0.226936 -0.899777 -0.372662 201 116 61
2.400000 -0.831470 -0.555570 0.226875 -0.809778 -0.541063 201 116 61
2.425000 0.657870 -0.738582 0.350932 -0.346202 0.870022 201 116 61
2.425000 -0.145851 0.735589 0.294992 0.186377 -0.937132 201 116 61
2.425000 -0.735122 0.146318 0.295328 0.937010 -0.186377 201 116 61
2.125000 0.722787 0.638902 0.765221 -0.599078 -0.235542 26 26 26
2.125000 0.691187 0.686196 0.777062 -0.447401 -0.442671 26 26 26
2.125000 0.643893 0.717796 0.775597 -0.236702 -0.585101 26 26 26
2.125000 0.588106 0.728893 0.783227 -0.055757 -0.619190 26 26 26
2.125000 0.643893 -0.717796 0.775597 -0.236702 0.585101 26 26 26
2.125000 0.691187 -0.686195 0.777062 -0.447401 0.442671 26 26 26
2.125000 0.722787 -0.638902 0.765221 -0.599078 0.235542 26 26 26
2.125000 0.733884 -0.583114 0.766656 -0.639668 0.054994 26 26 26
2.125000 -0.137209 0.714888 0.782617 0.119205 -0.610920 26 26 26
2.125000 -0.273944 0.673409 0.785913 0.234657 -0.572039 26 26 26
2.125000 -0.399960 0.606053 0.788903 0.339824 -0.511979 26 26 26
2.125000 -0.510414 0.515405 0.791498 0.431013 -0.433271 26 26 26
2.125000 -0.601061 0.404951 0.793603 0.505173 -0.339030 26 26 26
2.125000 -0.668418 0.278935 0.795160 0.559893 -0.232826 26 26 26
2.125000 -0.709896 0.142200 0.796106 0.593402 -0.118473 26 26 26
2.125000 -0.723902 0.000000 0.796442 0.604694 0.000000 26 26 26
2.125000 -0.709897 -0.142200 0.796106 0.593402 0.118473 26 26 26
2.125000 -0.668418 -0.278935 0.795160 0.559893 0.232826 26 26 26
2.125000 -0.601061 -0.404951 0.793603 0.505173 0.339030 26 26 26
2.125000 -0.510414 -0.515405 0.791498 0.431013 0.433271 26 26 26
2.125000 -0.399960 -0.606052 0.788903 0.339824 0.511979 26 26 26
2.125000 -0.273944 -0.673409 0.785913 0.234657 0.572039 26 26 26
2.125000 -0.137209 -0.714888 0.782617 0.119205 0.610920 26 26 26
2.125000 0.004991 -0.728893 0.788842 0.029267 0.613849 26 26 26
2.125000 0.588106 -0.728893 0.783227 -0.055757 0.619190 26 26 26
2.125000 0.733884 0.583115 0.766656 -0.639668 -0.054994 26 26 26
2.100001 0.800000 1.000000 -0.242531 0.103000 0.964660 201 116 61
2.100001 0.876537 0.984776 -0.267525 0.376812 0.886807 201 116 61
2.000000 0.832803 0.935537 -0.524888 0.306040 0.794214 201 116 61
2.100000 0.941421 0.941421 -0.279733 0.678854 0.678884 201 116 61
2.000000 0.894444 0.894350 -0.553728 0.588824 0.588733 201 116 61
2.100000 0.984776 0.876537 -0.267373 0.886807 0.376873 201 116 61
2.000000 0.935631 0.832710 -0.524552 0.794458 0.306009 201 116 61
2.100000 1.000000 0.800000 -0.242225 0.964721 0.103030 201 116 61
2.000000 0.950094 0.760000 -0.467574 0.881191 0.069491 201 116 61
2.100000 -0.923880 0.382683 -0.226936 -0.899777 0.372662 201 116 61
2.000000 -0.877592 0.363549 -0.447829 -0.826044 0.342174 201 116 61
2.000000 -0.931653 0.185336 -0.447859 -0.876888 0.174413 201 116 61
2.100000 -0.831470 0.555570 -0.226875 -0.809778 0.541063 201 116 61
2.000000 -0.789803 0.527792 -0.447768 -0.743431 0.496780 201 116 61
2.100000 -0.707107 0.707107 -0.226844 -0.688681 0.688650 201 116 61
2.000000 -0.671658 0.671751 -0.447676 -0.632252 0.632313 201 116 61
2.100000 -0.555570 0.831470 -0.226783 -0.541093 0.809778 201 116 61
2.000000 -0.527698 0.789896 -0.447584 -0.496780 0.743553 201 116 61
2.100000 -0.382683 0.923880 -0.226722 -0.372723 0.899808 201 116 61
2.000000 -0.363456 0.877686 -0.447462 -0.342174 0.826228 201 116 61
2.100001 -0.195090 0.980785 -0.226661 -0.190008 0.955229 201 116 61
2.000000 -0.185242 0.931746 -0.447340 -0.174413 0.877163 201 116 61
2.100001 0.000000 1.000000 -0.227943 -0.047456 0.972503 201 116 61
2.000000 0.000094 0.950000 -0.446791 -0.044496 0.893521 201 116 61
2.000000 0.760093 0.950000 -0.468184 0.069521 0.880886 201 116 61
2.100000 -0.980785 0.195090 -0.226936 -0.955168 0.189978 201 116 61
2.100000 -0.923880 -0.382683 -0.226936 -0.899777 -0.372662 201 116 61
2.000000 0.935631 -0.832710 -0.524552 0.794458 -0.306009 201 116 61
2.000000 0.894444 -0.894350 -0.553728 0.588824 -0.588733 201 116 61
2.000000 0.832803 -0.935537 -0.524888 0.306040 -0.794214 201 116 61
2.000000 0.760094 -0.950000 -0.468184 0.069521 -0.880856 201 116 61
2.000000 -0.185242 -0.931746 -0.447340 -0.174413 -0.877163 201 116 61
2.000000 -0.363456 -0.877686 -0.447462 -0.342174 -0.826228 201 116 61
2.000000 -0.527698 -0.789896 -0.447554 -0.496780 -0.743553 201 116 61
2.000000 -0.671658 -0.671751 -0.447676 -0.632252 -0.632313 201 116 61
2.000000 -0.789803 -0.527792 -0.447768 -0.743431 -0.496780 201 116 61
2.000000 -0.877592 -0.363549 -0.447829 -0.826044 -0.342174 201 116 61
2.000000 -0.931653 -0.185336 -0.447859 -0.876888 -0.174413 201 116 61
2.000000 -0.949907 -0.000000 -0.447859 -0.894070 0.000000 201 116 61
2.000000 0.950094 -0.760000 -0.467574 0.881191 -0.069491 201 116 61
2.125000 0.004991 0.728893 0.788842 0.029267 -0.613849 26 26 26
2.000000 0.000093 -0.950000 -0.446791 -0.044496 -0.893521 201 116 61
3 0 1 2
3 3 4 5
3 6 7 8
3 9 10 11
3 10 12 13
3 14 10 15
3 16 10 17
3 18 19 10
3 20 10 19
3 12 10 21
3 21 10 22
3 22 10 23
3 10 16 23
3 11 10 24
3 24 10 25
3 26 25 10
3 27 10 13
3 28 29 30
3 31 32 33
3 34 17 10
3 35 36 37
3 3 38 39
3 40 41 42
3 43 44 45
3 46 47 48
3 49 50 51
3 41 52 53
3 54 2 55
3 48 47 56
3 57 58 59
3 60 40 61
3 52 44 43
3 31 6 62
3 38 46 63
3 64 65 66
3 67 68 69
3 70 71 72
3 73 74 75
3 76 77 78
3 79 80 81
3 82 83 84
3 85 86 87
3 88 89 90
3 91 92 93
3 34 10 9
3 94 87 89
3 95 96 97
3 98 90 68
3 99 100 83
3 101 102 71
3 103 69 74
3 104 72 77
3 105 75 80
3 106 78 107
3 108 81 92
3 109 84 86
3 110 111 112
3 113 37 100
3 114 93 96
3 10 14 18
3 115 112 36
3 116 97 102
3 10 117 118
3 117 10 119
3 119 10 120
3 120 10 121
3 121 10 122
3 123 124 125
3 126 10 127
3 127 10 20
3 15 10 27
3 28 128 129
3 130 129 131
3 132 131 133
3 134 133 135
3 136 135 137
3 138 139 140
3 139 141 142
3 141 143 144
3 143 145 146
3 145 147 148
3 147 149 150
3 149 151 152
3 153 154 152
3 155 156 154
3 157 137 156
3 29 49 158
3 159 55 8
3 160 161 51
3 162 33 161
3 0 138 163
3 164 107 111
3 165 166 6
3 166 167 7
3 168 159 7
3 169 54 159
3 4 39 49
3 39 63 50
3 48 160 50
3 170 162 160
3 171 172 138
3 172 173 139
3 173 174 141
3 174 175 143
3 175 176 145
3 176 177 147
3 177 178 149
3 178 179 151
3 59 153 151
3 180 155 153
3 181 157 155
3 61 136 157
3 42 134 136
3 53 132 134
3 43 130 132
3 5 28 130
3 54 169 171
3 5 4 29
3 165 31 162
3 32 62 113
3 62 8 35
3 55 115 35
3 2 110 115
3 30 158 182
3 158 51 85
3 161 109 85
3 33 82 109
3 1 163 183
3 163 140 76
3 140 142 104
3 142 144 70
3 144 146 101
3 146 148 116
3 148 150 184
3 150 152 114
3 154 91 114
3 156 108 91
3 137 79 108
3 135 105 79
3 133 73 105
3 131 103 73
3 129 67 103
3 128 98 67
3 110 2 1
3 128 30 88
3 32 99 82
3 100 37 185
3 37 36 186
3 112 187 186
3 111 188 187
3 89 87 189
3 87 86 190
3 84 191 190
3 83 192 191
3 107 78 193
3 78 77 194
3 77 72 195
3 72 71 196
3 71 102 197
3 102 97 198
3 97 96 199
3 96 93 200
3 92 201 200
3 81 202 201
3 80 203 202
3 75 204 203
3 74 205 204
3 69 206 205
3 68 207 206
3 90 208 207
3 188 111 107
3 90 89 209
3 100 210 192
3 211 212 213
3 212 214 215
3 216 217 215
3 218 219 217
3 220 221 222
3 223 224 221
3 225 226 224
3 227 228 226
3 229 230 228
3 231 232 230
3 233 234 232
3 233 211 235
3 211 233 171
3 218 165 170
3 220 236 178
3 58 237 180
3 216 214 167
3 172 231 229
3 218 216 166
3 225 223 176
3 171 233 231
3 236 57 179
3 180 237 60
3 167 214 212
3 229 227 174
3 223 220 177
3 227 225 175
3 212 211 169
3 56 47 238
3 47 46 239
3 38 240 239
3 3 241 240
3 45 44 242
3 44 52 243
3 52 41 244
3 41 40 245
3 40 60 246
3 60 237 247
3 237 58 248
3 58 57 249
3 236 222 249
3 241 3 45
3 56 250 219
3 54 0 2
3 45 3 5
3 62 6 8
3 128 28 30
3 162 31 33
3 113 35 37
3 4 3 39
3 61 40 42
3 5 43 45
3 63 46 48
3 158 49 51
3 42 41 53
3 159 54 55
3 170 48 56
3 179 57 59
3 181 60 61
3 53 52 43
3 32 31 62
3 39 38 63
3 103 67 69
3 104 70 72
3 105 73 75
3 106 76 78
3 108 79 81
3 109 82 84
3 94 85 87
3 98 88 90
3 114 91 93
3 88 94 89
3 116 95 97
3 67 98 68
3 82 99 83
3 70 101 71
3 73 103 74
3 76 104 77
3 79 105 80
3 164 106 107
3 91 108 92
3 85 109 86
3 115 110 112
3 99 113 100
3 95 114 96
3 35 115 36
3 101 116 102
3 130 28 129
3 132 130 131
3 134 132 133
3 136 134 135
3 157 136 137
3 163 138 140
3 140 139 142
3 142 141 144
3 144 143 146
3 146 145 148
3 148 147 150
3 150 149 152
3 151 153 152
3 153 155 154
3 155 157 156
3 30 29 158
3 7 159 8
3 50 160 51
3 160 162 161
3 1 0 163
3 110 164 111
3 31 165 6
3 6 166 7
3 167 168 7
3 168 169 159
3 29 4 49
3 49 39 50
3 63 48 50
3 48 170 160
3 0 171 138
3 138 172 139
3 139 173 141
3 141 174 143
3 143 175 145
3 145 176 147
3 147 177 149
3 149 178 151
3 179 59 151
3 59 180 153
3 180 181 155
3 181 61 157
3 61 42 136
3 42 53 134
3 53 43 132
3 43 5 130
3 0 54 171
3 28 5 29
3 170 165 162
3 99 32 113
3 113 62 35
3 8 55 35
3 55 2 115
3 88 30 182
3 182 158 85
3 51 161 85
3 161 33 109
3 164 1 183
3 183 163 76
3 76 140 104
3 104 142 70
3 70 144 101
3 101 146 116
3 116 148 184
3 184 150 114
3 152 154 114
3 154 156 91
3 156 137 108
3 137 135 79
3 135 133 105
3 133 131 73
3 131 129 103
3 129 128 67
3 164 110 1
3 98 128 88
3 33 32 82
3 210 100 185
3 185 37 186
3 36 112 186
3 112 111 187
3 209 89 189
3 189 87 190
3 86 84 190
3 84 83 191
3 251 107 193
3 193 78 194
3 194 77 195
3 195 72 196
3 196 71 197
3 197 102 198
3 198 97 199
3 199 96 200
3 93 92 200
3 92 81 201
3 81 80 202
3 80 75 203
3 75 74 204
3 74 69 205
3 69 68 206
3 68 90 207
3 251 188 107
3 208 90 209
3 83 100 192
3 235 211 213
3 213 212 215
3 214 216 215
3 216 218 217
3 236 220 222
3 220 223 221
3 223 225 224
3 225 227 226
3 227 229 228
3 229 231 230
3 231 233 232
3 234 233 235
3 169 211 171
3 56 218 170
3 177 220 178
3 59 58 180
3 166 216 167
3 173 172 229
3 165 218 166
3 175 225 176
3 172 171 231
3 178 236 179
3 181 180 60
3 168 167 212
3 173 229 174
3 176 223 177
3 174 227 175
3 168 212 169
3 250 56 238
3 238 47 239
3 46 38 239
3 38 3 240
3 252 45 242
3 242 44 243
3 243 52 244
3 244 41 245
3 245 40 246
3 246 60 247
3 247 237 248
3 248 58 249
3 57 236 249
3 252 241 45
3 218 56 219
