# Blender v2.73 (sub 0) OBJ File: 'checker_block_bolts.blend'
# www.blender.org
v 0.725000 1.856250 0.550000
v 0.725000 1.851968 0.528474
v 0.725000 1.839775 0.510225
v 0.725000 1.743750 0.550000
v 0.725000 1.778474 0.601968
v 0.725000 1.800000 0.606250
v 0.725000 1.821526 0.601968
v 0.725000 1.839775 0.589775
v 0.725000 1.851968 0.571526
v 0.725000 1.748032 0.571526
v 0.725000 1.760225 0.589775
v 0.725000 1.821526 0.498032
v 0.725000 1.800000 0.493750
v 0.725000 1.778474 0.498032
v 0.725000 1.760225 0.510225
v 0.725000 1.748032 0.528474
v 0.750000 1.842187 0.550000
v 0.750000 1.838976 0.533856
v 0.750000 1.829831 0.520169
v 0.750000 1.757812 0.550000
v 0.750000 1.783855 0.588976
v 0.750000 1.800000 0.592188
v 0.750000 1.816144 0.588976
v 0.750000 1.829831 0.579831
v 0.750000 1.838976 0.566144
v 0.750000 1.761024 0.566144
v 0.750000 1.770169 0.579831
v 0.750000 1.816144 0.511024
v 0.750000 1.800000 0.507812
v 0.750000 1.783856 0.511024
v 0.750000 1.770169 0.520169
v 0.750000 1.761024 0.533856
v 0.750000 1.800000 0.550000
v 0.733163 1.856250 -0.550000
v 0.733163 1.851968 -0.571526
v 0.733163 1.839775 -0.589775
v 0.733163 1.743750 -0.550000
v 0.733163 1.778474 -0.498032
v 0.733163 1.800000 -0.493750
v 0.733163 1.821526 -0.498032
v 0.733163 1.839775 -0.510225
v 0.733163 1.851968 -0.528474
v 0.733163 1.748032 -0.528474
v 0.733163 1.760225 -0.510225
v 0.733163 1.821526 -0.601968
v 0.733163 1.800000 -0.606250
v 0.733163 1.778474 -0.601968
v 0.733163 1.760225 -0.589775
v 0.733163 1.748032 -0.571526
v 0.758163 1.842187 -0.550000
v 0.758163 1.838976 -0.566144
v 0.758163 1.829831 -0.579831
v 0.758163 1.757812 -0.550000
v 0.758163 1.783855 -0.511024
v 0.758163 1.800000 -0.507812
v 0.758163 1.816144 -0.511024
v 0.758163 1.829831 -0.520169
v 0.758163 1.838976 -0.533856
v 0.758163 1.761024 -0.533856
v 0.758163 1.770169 -0.520169
v 0.758163 1.816144 -0.588976
v 0.758163 1.800000 -0.592188
v 0.758163 1.783856 -0.588976
v 0.758163 1.770169 -0.579831
v 0.758163 1.761024 -0.566144
v 0.758163 1.800000 -0.550000
v 0.733163 0.256250 -0.550000
v 0.733163 0.251968 -0.571526
v 0.733163 0.239775 -0.589775
v 0.733163 0.143750 -0.550000
v 0.733163 0.178474 -0.498032
v 0.733163 0.200000 -0.493750
v 0.733163 0.221526 -0.498032
v 0.733163 0.239775 -0.510225
v 0.733163 0.251968 -0.528474
v 0.733163 0.148032 -0.528474
v 0.733163 0.160225 -0.510225
v 0.733163 0.221526 -0.601968
v 0.733163 0.200000 -0.606250
v 0.733163 0.178474 -0.601968
v 0.733163 0.160225 -0.589775
v 0.733163 0.148032 -0.571526
v 0.758163 0.242187 -0.550000
v 0.758163 0.238976 -0.566144
v 0.758163 0.229831 -0.579831
v 0.758163 0.157812 -0.550000
v 0.758163 0.183855 -0.511024
v 0.758163 0.200000 -0.507812
v 0.758163 0.216144 -0.511024
v 0.758163 0.229831 -0.520169
v 0.758163 0.238976 -0.533856
v 0.758163 0.161024 -0.533856
v 0.758163 0.170169 -0.520169
v 0.758163 0.216144 -0.588976
v 0.758163 0.200000 -0.592188
v 0.758163 0.183856 -0.588976
v 0.758163 0.170169 -0.579831
v 0.758163 0.161024 -0.566144
v 0.758163 0.200000 -0.550000
v 0.733163 0.256250 0.550000
v 0.733163 0.251968 0.528474
v 0.733163 0.239775 0.510225
v 0.733163 0.143750 0.550000
v 0.733163 0.178474 0.601968
v 0.733163 0.200000 0.606250
v 0.733163 0.221526 0.601968
v 0.733163 0.239775 0.589775
v 0.733163 0.251968 0.571526
v 0.733163 0.148032 0.571526
v 0.733163 0.160225 0.589775
v 0.733163 0.221526 0.498032
v 0.733163 0.200000 0.493750
v 0.733163 0.178474 0.498032
v 0.733163 0.160225 0.510225
v 0.733163 0.148032 0.528474
v 0.758163 0.242187 0.550000
v 0.758163 0.238976 0.533855
v 0.758163 0.229831 0.520169
v 0.758163 0.157812 0.550000
v 0.758163 0.183855 0.588976
v 0.758163 0.200000 0.592187
v 0.758163 0.216144 0.588976
v 0.758163 0.229831 0.579831
v 0.758163 0.238976 0.566144
v 0.758163 0.161024 0.566144
v 0.758163 0.170169 0.579831
v 0.758163 0.216144 0.511024
v 0.758163 0.200000 0.507812
v 0.758163 0.183856 0.511024
v 0.758163 0.170169 0.520169
v 0.758163 0.161024 0.533855
v 0.758163 0.200000 0.550000
v -0.725000 1.856250 0.550000
v -0.725000 1.851968 0.528474
v -0.725000 1.839775 0.510225
v -0.725000 1.743750 0.550000
v -0.725000 1.778474 0.601968
v -0.725000 1.800000 0.606250
v -0.725000 1.821526 0.601968
v -0.725000 1.839775 0.589775
v -0.725000 1.851968 0.571526
v -0.725000 1.748032 0.571526
v -0.725000 1.760225 0.589775
v -0.725000 1.821526 0.498032
v -0.725000 1.800000 0.493750
v -0.725000 1.778474 0.498032
v -0.725000 1.760225 0.510225
v -0.725000 1.748032 0.528474
v -0.750000 1.842187 0.550000
v -0.750000 1.838976 0.533856
v -0.750000 1.829831 0.520169
v -0.750000 1.757812 0.550000
v -0.750000 1.783855 0.588976
v -0.750000 1.800000 0.592188
v -0.750000 1.816144 0.588976
v -0.750000 1.829831 0.579831
v -0.750000 1.838976 0.566144
v -0.750000 1.761024 0.566144
v -0.750000 1.770169 0.579831
v -0.750000 1.816144 0.511024
v -0.750000 1.800000 0.507812
v -0.750000 1.783856 0.511024
v -0.750000 1.770169 0.520169
v -0.750000 1.761024 0.533856
v -0.750000 1.800000 0.550000
v -0.733163 1.856250 -0.550000
v -0.733163 1.851968 -0.571526
v -0.733163 1.839775 -0.589775
v -0.733163 1.743750 -0.550000
v -0.733163 1.778474 -0.498032
v -0.733163 1.800000 -0.493750
v -0.733163 1.821526 -0.498032
v -0.733163 1.839775 -0.510225
v -0.733163 1.851968 -0.528474
v -0.733163 1.748032 -0.528474
v -0.733163 1.760225 -0.510225
v -0.733163 1.821526 -0.601968
v -0.733163 1.800000 -0.606250
v -0.733163 1.778474 -0.601968
v -0.733163 1.760225 -0.589775
v -0.733163 1.748032 -0.571526
v -0.758163 1.842187 -0.550000
v -0.758163 1.838976 -0.566144
v -0.758163 1.829831 -0.579831
v -0.758163 1.757812 -0.550000
v -0.758163 1.783855 -0.511024
v -0.758163 1.800000 -0.507812
v -0.758163 1.816144 -0.511024
v -0.758163 1.829831 -0.520169
v -0.758163 1.838976 -0.533856
v -0.758163 1.761024 -0.533856
v -0.758163 1.770169 -0.520169
v -0.758163 1.816144 -0.588976
v -0.758163 1.800000 -0.592188
v -0.758163 1.783856 -0.588976
v -0.758163 1.770169 -0.579831
v -0.758163 1.761024 -0.566144
v -0.758163 1.800000 -0.550000
v -0.733163 0.256250 -0.550000
v -0.733163 0.251968 -0.571526
v -0.733163 0.239775 -0.589775
v -0.733163 0.143750 -0.550000
v -0.733163 0.178474 -0.498032
v -0.733163 0.200000 -0.493750
v -0.733163 0.221526 -0.498032
v -0.733163 0.239775 -0.510225
v -0.733163 0.251968 -0.528474
v -0.733163 0.148032 -0.528474
v -0.733163 0.160225 -0.510225
v -0.733163 0.221526 -0.601968
v -0.733163 0.200000 -0.606250
v -0.733163 0.178474 -0.601968
v -0.733163 0.160225 -0.589775
v -0.733163 0.148032 -0.571526
v -0.758163 0.242187 -0.550000
v -0.758163 0.238976 -0.566144
v -0.758163 0.229831 -0.579831
v -0.758163 0.157812 -0.550000
v -0.758163 0.183855 -0.511024
v -0.758163 0.200000 -0.507812
v -0.758163 0.216144 -0.511024
v -0.758163 0.229831 -0.520169
v -0.758163 0.238976 -0.533856
v -0.758163 0.161024 -0.533856
v -0.758163 0.170169 -0.520169
v -0.758163 0.216144 -0.588976
v -0.758163 0.200000 -0.592188
v -0.758163 0.183856 -0.588976
v -0.758163 0.170169 -0.579831
v -0.758163 0.161024 -0.566144
v -0.758163 0.200000 -0.550000
v -0.733163 0.256250 0.550000
v -0.733163 0.251968 0.528474
v -0.733163 0.239775 0.510225
v -0.733163 0.143750 0.550000
v -0.733163 0.178474 0.601968
v -0.733163 0.200000 0.606250
v -0.733163 0.221526 0.601968
v -0.733163 0.239775 0.589775
v -0.733163 0.251968 0.571526
v -0.733163 0.148032 0.571526
v -0.733163 0.160225 0.589775
v -0.733163 0.221526 0.498032
v -0.733163 0.200000 0.493750
v -0.733163 0.178474 0.498032
v -0.733163 0.160225 0.510225
v -0.733163 0.148032 0.528474
v -0.758163 0.242187 0.550000
v -0.758163 0.238976 0.533855
v -0.758163 0.229831 0.520169
v -0.758163 0.157812 0.550000
v -0.758163 0.183855 0.588976
v -0.758163 0.200000 0.592187
v -0.758163 0.216144 0.588976
v -0.758163 0.229831 0.579831
v -0.758163 0.238976 0.566144
v -0.758163 0.161024 0.566144
v -0.758163 0.170169 0.579831
v -0.758163 0.216144 0.511024
v -0.758163 0.200000 0.507812
v -0.758163 0.183856 0.511024
v -0.758163 0.170169 0.520169
v -0.758163 0.161024 0.533855
v -0.758163 0.200000 0.550000
v 0.750000 1.842187 0.550000
v 0.750000 1.838976 0.533856
v 0.750000 1.829831 0.520169
v 0.750000 1.783855 0.588976
v 0.750000 1.800000 0.592188
v 0.750000 1.816144 0.588976
v 0.750000 1.829831 0.579831
v 0.750000 1.838976 0.566144
v 0.750000 1.757812 0.550000
v 0.750000 1.761024 0.566144
v 0.750000 1.770169 0.579831
v 0.750000 1.816144 0.511024
v 0.750000 1.800000 0.507812
v 0.750000 1.783856 0.511024
v 0.750000 1.770169 0.520169
v 0.750000 1.761024 0.533856
v 0.758163 1.842187 -0.550000
v 0.758163 1.838976 -0.566144
v 0.758163 1.829831 -0.579831
v 0.758163 1.783855 -0.511024
v 0.758163 1.800000 -0.507812
v 0.758163 1.816144 -0.511024
v 0.758163 1.829831 -0.520169
v 0.758163 1.838976 -0.533856
v 0.758163 1.757812 -0.550000
v 0.758163 1.761024 -0.533856
v 0.758163 1.770169 -0.520169
v 0.758163 1.816144 -0.588976
v 0.758163 1.800000 -0.592188
v 0.758163 1.783856 -0.588976
v 0.758163 1.770169 -0.579831
v 0.758163 1.761024 -0.566144
v 0.758163 0.242187 -0.550000
v 0.758163 0.238976 -0.566144
v 0.758163 0.229831 -0.579831
v 0.758163 0.183855 -0.511024
v 0.758163 0.200000 -0.507812
v 0.758163 0.216144 -0.511024
v 0.758163 0.229831 -0.520169
v 0.758163 0.238976 -0.533856
v 0.758163 0.157812 -0.550000
v 0.758163 0.161024 -0.533856
v 0.758163 0.170169 -0.520169
v 0.758163 0.216144 -0.588976
v 0.758163 0.200000 -0.592188
v 0.758163 0.183856 -0.588976
v 0.758163 0.170169 -0.579831
v 0.758163 0.161024 -0.566144
v 0.758163 0.242187 0.550000
v 0.758163 0.238976 0.533855
v 0.758163 0.229831 0.520169
v 0.758163 0.183855 0.588976
v 0.758163 0.200000 0.592187
v 0.758163 0.216144 0.588976
v 0.758163 0.229831 0.579831
v 0.758163 0.238976 0.566144
v 0.758163 0.157812 0.550000
v 0.758163 0.161024 0.566144
v 0.758163 0.170169 0.579831
v 0.758163 0.216144 0.511024
v 0.758163 0.200000 0.507812
v 0.758163 0.183856 0.511024
v 0.758163 0.170169 0.520169
v 0.758163 0.161024 0.533855
v -0.750000 1.842187 0.550000
v -0.750000 1.838976 0.533856
v -0.750000 1.829831 0.520169
v -0.750000 1.783855 0.588976
v -0.750000 1.800000 0.592188
v -0.750000 1.816144 0.588976
v -0.750000 1.829831 0.579831
v -0.750000 1.838976 0.566144
v -0.750000 1.757812 0.550000
v -0.750000 1.761024 0.566144
v -0.750000 1.770169 0.579831
v -0.750000 1.816144 0.511024
v -0.750000 1.800000 0.507812
v -0.750000 1.783856 0.511024
v -0.750000 1.770169 0.520169
v -0.750000 1.761024 0.533856
v -0.758163 1.842187 -0.550000
v -0.758163 1.838976 -0.566144
v -0.758163 1.829831 -0.579831
v -0.758163 1.783855 -0.511024
v -0.758163 1.800000 -0.507812
v -0.758163 1.816144 -0.511024
v -0.758163 1.829831 -0.520169
v -0.758163 1.838976 -0.533856
v -0.758163 1.757812 -0.550000
v -0.758163 1.761024 -0.533856
v -0.758163 1.770169 -0.520169
v -0.758163 1.816144 -0.588976
v -0.758163 1.800000 -0.592188
v -0.758163 1.783856 -0.588976
v -0.758163 1.770169 -0.579831
v -0.758163 1.761024 -0.566144
v -0.758163 0.242187 -0.550000
v -0.758163 0.238976 -0.566144
v -0.758163 0.229831 -0.579831
v -0.758163 0.183855 -0.511024
v -0.758163 0.200000 -0.507812
v -0.758163 0.216144 -0.511024
v -0.758163 0.229831 -0.520169
v -0.758163 0.238976 -0.533856
v -0.758163 0.157812 -0.550000
v -0.758163 0.161024 -0.533856
v -0.758163 0.170169 -0.520169
v -0.758163 0.216144 -0.588976
v -0.758163 0.200000 -0.592188
v -0.758163 0.183856 -0.588976
v -0.758163 0.170169 -0.579831
v -0.758163 0.161024 -0.566144
v -0.758163 0.242187 0.550000
v -0.758163 0.238976 0.533855
v -0.758163 0.229831 0.520169
v -0.758163 0.183855 0.588976
v -0.758163 0.200000 0.592187
v -0.758163 0.216144 0.588976
v -0.758163 0.229831 0.579831
v -0.758163 0.238976 0.566144
v -0.758163 0.157812 0.550000
v -0.758163 0.161024 0.566144
v -0.758163 0.170169 0.579831
v -0.758163 0.216144 0.511024
v -0.758163 0.200000 0.507812
v -0.758163 0.183856 0.511024
v -0.758163 0.170169 0.520169
v -0.758163 0.161024 0.533855
vn 0.490300 -0.333500 0.805200
vn 0.490300 0.000000 0.871600
vn 0.490300 -0.616300 -0.616300
vn 0.490300 -0.333500 -0.805200
vn 0.490300 0.805200 -0.333500
vn 0.490300 0.871600 0.000000
vn 0.490300 0.333500 -0.805200
vn 0.490300 -0.000000 -0.871600
vn 0.490300 -0.616300 0.616300
vn 0.490300 -0.871600 0.000000
vn 0.490300 -0.805200 0.333500
vn 0.490300 0.616300 0.616300
vn 0.490300 0.805200 0.333500
vn 0.490300 0.333500 0.805200
vn 0.490300 -0.805200 -0.333500
vn 0.490300 0.616300 -0.616300
vn 1.000000 0.000000 0.000000
vn -0.490300 0.000000 0.871600
vn -0.490300 -0.333500 0.805200
vn -0.490300 -0.616300 -0.616300
vn -0.490300 -0.333500 -0.805200
vn -0.490300 0.805200 -0.333500
vn -0.490300 0.871600 0.000000
vn -0.490300 -0.000000 -0.871600
vn -0.490300 0.333500 -0.805200
vn -0.490300 -0.616300 0.616300
vn -0.490300 -0.805200 0.333500
vn -0.490300 -0.871600 -0.000000
vn -0.490300 0.805200 0.333500
vn -0.490300 0.616300 0.616300
vn -0.490300 0.333500 0.805200
vn -0.490300 -0.805200 -0.333500
vn -0.490300 0.616300 -0.616300
vn -1.000000 0.000000 0.000000
s 1
f 5//1 21//1 22//2
f 15//3 14//4 30//4
f 2//5 1//6 17//6
f 12//7 28//7 29//8
f 11//9 27//9 21//1
f 4//10 20//10 26//11
f 8//12 24//12 25//13
f 7//14 6//2 22//2
f 15//3 31//3 32//15
f 2//5 18//5 19//16
f 13//8 29//8 30//4
f 12//7 3//16 19//16
f 11//9 10//11 26//11
f 1//6 9//13 25//13
f 8//12 7//14 23//14
f 4//10 16//15 32//15
f 266//17 265//17 33//17
f 267//17 266//17 33//17
f 276//17 267//17 33//17
f 277//17 276//17 33//17
f 278//17 277//17 33//17
f 279//17 278//17 33//17
f 280//17 279//17 33//17
f 273//17 280//17 33//17
f 273//17 33//17 274//17
f 275//17 274//17 33//17
f 268//17 275//17 33//17
f 269//17 268//17 33//17
f 270//17 269//17 33//17
f 271//17 270//17 33//17
f 272//17 271//17 33//17
f 265//17 272//17 33//17
f 39//2 38//1 54//1
f 47//4 63//4 64//3
f 35//5 34//6 50//6
f 46//8 45//7 61//7
f 44//9 60//9 54//1
f 43//11 37//10 53//10
f 41//12 57//12 58//13
f 40//14 39//2 55//2
f 48//3 64//3 65//15
f 36//16 35//5 51//5
f 47//4 46//8 62//8
f 36//16 52//16 61//7
f 43//11 59//11 60//9
f 42//13 58//13 50//6
f 41//12 40//14 56//14
f 49//15 65//15 53//10
f 282//17 281//17 66//17
f 283//17 282//17 66//17
f 292//17 283//17 66//17
f 293//17 292//17 66//17
f 294//17 293//17 66//17
f 295//17 294//17 66//17
f 296//17 295//17 66//17
f 289//17 296//17 66//17
f 289//17 66//17 290//17
f 291//17 290//17 66//17
f 284//17 291//17 66//17
f 285//17 284//17 66//17
f 286//17 285//17 66//17
f 287//17 286//17 66//17
f 288//17 287//17 66//17
f 281//17 288//17 66//17
f 71//1 87//1 88//2
f 80//4 96//4 97//3
f 68//5 67//6 83//6
f 79//8 78//7 94//7
f 71//1 77//9 93//9
f 70//10 86//10 92//11
f 74//12 90//12 91//13
f 73//14 72//2 88//2
f 82//15 81//3 97//3
f 69//16 68//5 84//5
f 80//4 79//8 95//8
f 69//16 85//16 94//7
f 77//9 76//11 92//11
f 75//13 91//13 83//6
f 73//14 89//14 90//12
f 70//10 82//15 98//15
f 298//17 297//17 99//17
f 299//17 298//17 99//17
f 308//17 299//17 99//17
f 309//17 308//17 99//17
f 310//17 309//17 99//17
f 311//17 310//17 99//17
f 312//17 311//17 99//17
f 305//17 312//17 99//17
f 305//17 99//17 306//17
f 307//17 306//17 99//17
f 300//17 307//17 99//17
f 301//17 300//17 99//17
f 302//17 301//17 99//17
f 303//17 302//17 99//17
f 304//17 303//17 99//17
f 297//17 304//17 99//17
f 104//1 120//1 121//2
f 113//4 129//4 130//3
f 101//5 100//6 116//6
f 111//7 127//7 128//8
f 104//1 110//9 126//9
f 103//10 119//10 125//11
f 107//12 123//12 124//13
f 105//2 121//2 122//14
f 115//15 114//3 130//3
f 102//16 101//5 117//5
f 113//4 112//8 128//8
f 102//16 118//16 127//7
f 109//11 125//11 126//9
f 108//13 124//13 116//6
f 106//14 122//14 123//12
f 103//10 115//15 131//15
f 314//17 313//17 132//17
f 315//17 314//17 132//17
f 324//17 315//17 132//17
f 325//17 324//17 132//17
f 326//17 325//17 132//17
f 327//17 326//17 132//17
f 328//17 327//17 132//17
f 321//17 328//17 132//17
f 321//17 132//17 322//17
f 323//17 322//17 132//17
f 316//17 323//17 132//17
f 317//17 316//17 132//17
f 318//17 317//17 132//17
f 319//17 318//17 132//17
f 320//17 319//17 132//17
f 313//17 320//17 132//17
f 154//18 153//19 137//19
f 147//20 163//20 162//21
f 134//22 150//22 149//23
f 161//24 160//25 144//25
f 137//19 153//19 159//26
f 142//27 158//27 152//28
f 157//29 156//30 140//30
f 139//31 155//31 154//18
f 164//32 163//20 147//20
f 151//33 150//22 134//22
f 162//21 161//24 145//24
f 144//25 160//25 151//33
f 159//26 158//27 142//27
f 149//23 157//29 141//29
f 140//30 156//30 155//31
f 136//28 152//28 164//32
f 330//34 165//34 329//34
f 331//34 165//34 330//34
f 340//34 165//34 331//34
f 341//34 165//34 340//34
f 342//34 165//34 341//34
f 343//34 165//34 342//34
f 344//34 165//34 343//34
f 337//34 165//34 344//34
f 337//34 338//34 165//34
f 339//34 165//34 338//34
f 332//34 165//34 339//34
f 333//34 165//34 332//34
f 334//34 165//34 333//34
f 335//34 165//34 334//34
f 336//34 165//34 335//34
f 329//34 165//34 336//34
f 171//18 187//18 186//19
f 196//20 195//21 179//21
f 183//22 182//23 166//23
f 178//24 194//24 193//25
f 170//19 186//19 192//26
f 191//27 185//28 169//28
f 190//29 189//30 173//30
f 172//31 188//31 187//18
f 197//32 196//20 180//20
f 168//33 184//33 183//22
f 179//21 195//21 194//24
f 193//25 184//33 168//33
f 192//26 191//27 175//27
f 182//23 190//29 174//29
f 173//30 189//30 188//31
f 185//28 197//32 181//32
f 346//34 198//34 345//34
f 347//34 198//34 346//34
f 356//34 198//34 347//34
f 357//34 198//34 356//34
f 358//34 198//34 357//34
f 359//34 198//34 358//34
f 360//34 198//34 359//34
f 353//34 198//34 360//34
f 353//34 354//34 198//34
f 355//34 198//34 354//34
f 348//34 198//34 355//34
f 349//34 198//34 348//34
f 350//34 198//34 349//34
f 351//34 198//34 350//34
f 352//34 198//34 351//34
f 345//34 198//34 352//34
f 220//18 219//19 203//19
f 229//20 228//21 212//21
f 200//22 216//22 215//23
f 211//24 227//24 226//25
f 219//19 225//26 209//26
f 224//27 218//28 202//28
f 223//29 222//30 206//30
f 205//31 221//31 220//18
f 214//32 230//32 229//20
f 201//33 217//33 216//22
f 212//21 228//21 227//24
f 226//25 217//33 201//33
f 225//26 224//27 208//27
f 215//23 223//29 207//29
f 222//30 221//31 205//31
f 202//28 218//28 230//32
f 362//34 231//34 361//34
f 363//34 231//34 362//34
f 372//34 231//34 363//34
f 373//34 231//34 372//34
f 374//34 231//34 373//34
f 375//34 231//34 374//34
f 376//34 231//34 375//34
f 369//34 231//34 376//34
f 369//34 370//34 231//34
f 371//34 231//34 370//34
f 364//34 231//34 371//34
f 365//34 231//34 364//34
f 366//34 231//34 365//34
f 367//34 231//34 366//34
f 368//34 231//34 367//34
f 361//34 231//34 368//34
f 253//18 252//19 236//19
f 262//20 261//21 245//21
f 233//22 249//22 248//23
f 260//24 259//25 243//25
f 252//19 258//26 242//26
f 257//27 251//28 235//28
f 256//29 255//30 239//30
f 254//31 253//18 237//18
f 247//32 263//32 262//20
f 234//33 250//33 249//22
f 245//21 261//21 260//24
f 243//25 259//25 250//33
f 242//26 258//26 257//27
f 248//23 256//29 240//29
f 255//30 254//31 238//31
f 235//28 251//28 263//32
f 378//34 264//34 377//34
f 379//34 264//34 378//34
f 388//34 264//34 379//34
f 389//34 264//34 388//34
f 390//34 264//34 389//34
f 391//34 264//34 390//34
f 392//34 264//34 391//34
f 385//34 264//34 392//34
f 385//34 386//34 264//34
f 387//34 264//34 386//34
f 380//34 264//34 387//34
f 381//34 264//34 380//34
f 382//34 264//34 381//34
f 383//34 264//34 382//34
f 384//34 264//34 383//34
f 377//34 264//34 384//34
f 6//2 5//1 22//2
f 31//3 15//3 30//4
f 18//5 2//5 17//6
f 13//8 12//7 29//8
f 5//1 11//9 21//1
f 10//11 4//10 26//11
f 9//13 8//12 25//13
f 23//14 7//14 22//2
f 16//15 15//3 32//15
f 3//16 2//5 19//16
f 14//4 13//8 30//4
f 28//7 12//7 19//16
f 27//9 11//9 26//11
f 17//6 1//6 25//13
f 24//12 8//12 23//14
f 20//10 4//10 32//15
f 55//2 39//2 54//1
f 48//3 47//4 64//3
f 51//5 35//5 50//6
f 62//8 46//8 61//7
f 38//1 44//9 54//1
f 59//11 43//11 53//10
f 42//13 41//12 58//13
f 56//14 40//14 55//2
f 49//15 48//3 65//15
f 52//16 36//16 51//5
f 63//4 47//4 62//8
f 45//7 36//16 61//7
f 44//9 43//11 60//9
f 34//6 42//13 50//6
f 57//12 41//12 56//14
f 37//10 49//15 53//10
f 72//2 71//1 88//2
f 81//3 80//4 97//3
f 84//5 68//5 83//6
f 95//8 79//8 94//7
f 87//1 71//1 93//9
f 76//11 70//10 92//11
f 75//13 74//12 91//13
f 89//14 73//14 88//2
f 98//15 82//15 97//3
f 85//16 69//16 84//5
f 96//4 80//4 95//8
f 78//7 69//16 94//7
f 93//9 77//9 92//11
f 67//6 75//13 83//6
f 74//12 73//14 90//12
f 86//10 70//10 98//15
f 105//2 104//1 121//2
f 114//3 113//4 130//3
f 117//5 101//5 116//6
f 112//8 111//7 128//8
f 120//1 104//1 126//9
f 109//11 103//10 125//11
f 108//13 107//12 124//13
f 106//14 105//2 122//14
f 131//15 115//15 130//3
f 118//16 102//16 117//5
f 129//4 113//4 128//8
f 111//7 102//16 127//7
f 110//9 109//11 126//9
f 100//6 108//13 116//6
f 107//12 106//14 123//12
f 119//10 103//10 131//15
f 138//18 154//18 137//19
f 146//21 147//20 162//21
f 133//23 134//22 149//23
f 145//24 161//24 144//25
f 143//26 137//19 159//26
f 136//28 142//27 152//28
f 141//29 157//29 140//30
f 138//18 139//31 154//18
f 148//32 164//32 147//20
f 135//33 151//33 134//22
f 146//21 162//21 145//24
f 135//33 144//25 151//33
f 143//26 159//26 142//27
f 133//23 149//23 141//29
f 139//31 140//30 155//31
f 148//32 136//28 164//32
f 170//19 171//18 186//19
f 180//20 196//20 179//21
f 167//22 183//22 166//23
f 177//25 178//24 193//25
f 176//26 170//19 192//26
f 175//27 191//27 169//28
f 174//29 190//29 173//30
f 171//18 172//31 187//18
f 181//32 197//32 180//20
f 167//22 168//33 183//22
f 178//24 179//21 194//24
f 177//25 193//25 168//33
f 176//26 192//26 175//27
f 166//23 182//23 174//29
f 172//31 173//30 188//31
f 169//28 185//28 181//32
f 204//18 220//18 203//19
f 213//20 229//20 212//21
f 199//23 200//22 215//23
f 210//25 211//24 226//25
f 203//19 219//19 209//26
f 208//27 224//27 202//28
f 207//29 223//29 206//30
f 204//18 205//31 220//18
f 213//20 214//32 229//20
f 200//22 201//33 216//22
f 211//24 212//21 227//24
f 210//25 226//25 201//33
f 209//26 225//26 208//27
f 199//23 215//23 207//29
f 206//30 222//30 205//31
f 214//32 202//28 230//32
f 237//18 253//18 236//19
f 246//20 262//20 245//21
f 232//23 233//22 248//23
f 244//24 260//24 243//25
f 236//19 252//19 242//26
f 241//27 257//27 235//28
f 240//29 256//29 239//30
f 238//31 254//31 237//18
f 246//20 247//32 262//20
f 233//22 234//33 249//22
f 244//24 245//21 260//24
f 234//33 243//25 250//33
f 241//27 242//26 257//27
f 232//23 248//23 240//29
f 239//30 255//30 238//31
f 247//32 235//28 263//32
