# Blender v2.65 (sub 0) OBJ File: 'bob_omb_key.blend'
# www.blender.org
v 0.028770 2.628896 -0.208005
v 0.002262 3.003845 0.058092
v 0.014333 2.158443 -0.150376
v -0.010383 3.055584 -0.085882
v 0.048158 2.158845 -0.147282
v 0.019489 3.058812 -0.084201
v 0.080733 2.158957 -0.137653
v 0.048699 3.059927 -0.077052
v 0.110807 2.158774 -0.121860
v 0.076125 3.058886 -0.064709
v 0.137223 2.158303 -0.100510
v 0.100712 3.055731 -0.047647
v 0.158966 2.157563 -0.074423
v 0.121516 3.050581 -0.026521
v 0.175202 2.156582 -0.044602
v 0.137737 3.043636 -0.002144
v 0.185305 2.155397 -0.012192
v 0.148752 3.035161 0.024548
v 0.188888 2.154054 0.021560
v 0.154137 3.025483 0.052529
v 0.185814 2.152604 0.055358
v 0.153686 3.014973 0.080724
v 0.176199 2.151104 0.087903
v 0.147415 3.004036 0.108049
v 0.160414 2.149611 0.117944
v 0.135567 2.993091 0.133454
v 0.139065 2.148183 0.144327
v 0.118595 2.982559 0.155963
v 0.112973 2.146873 0.166037
v 0.097153 2.972846 0.174711
v 0.083141 2.145734 0.182241
v 0.072064 2.964324 0.188977
v 0.050714 2.144807 0.192316
v 0.044293 2.957320 0.198214
v 0.016939 2.144130 0.195875
v 0.014907 2.952105 0.202066
v -0.016886 2.143728 0.192780
v -0.014966 2.948878 0.200384
v -0.049461 2.143616 0.183152
v -0.044176 2.947763 0.193235
v -0.079534 2.143799 0.167359
v -0.071602 2.948803 0.180892
v -0.105951 2.144269 0.146009
v -0.096189 2.951959 0.163830
v -0.127694 2.145010 0.119922
v -0.116993 2.957108 0.142705
v -0.143930 2.145991 0.090100
v -0.133214 2.964054 0.118328
v -0.154033 2.147176 0.057691
v -0.144229 2.972529 0.091636
v -0.157616 2.148519 0.023938
v -0.149614 2.982207 0.063655
v -0.154541 2.149969 -0.009860
v -0.149163 2.992717 0.035460
v -0.144927 2.151469 -0.042404
v -0.142892 3.003654 0.008135
v -0.129142 2.152961 -0.072445
v -0.131043 3.014598 -0.017271
v -0.107793 2.154390 -0.098828
v -0.114072 3.025130 -0.039780
v -0.081701 2.155699 -0.120539
v -0.092630 3.034843 -0.058528
v -0.051868 2.156839 -0.136743
v -0.067541 3.043365 -0.072794
v -0.019441 2.157765 -0.146818
v -0.039770 3.050369 -0.082030
v 0.062584 2.631233 -0.205760
v 0.095427 2.631981 -0.197122
v 0.126038 2.631113 -0.182421
v 0.153239 2.628661 -0.162224
v 0.175987 2.624720 -0.137307
v 0.193406 2.619442 -0.108626
v 0.204827 2.613029 -0.077285
v 0.209811 2.605728 -0.044487
v 0.208167 2.597819 -0.011493
v 0.199958 2.589606 0.020429
v 0.185499 2.581405 0.050053
v 0.165347 2.573531 0.076239
v 0.140274 2.566286 0.097982
v 0.111246 2.559950 0.114446
v 0.079377 2.554765 0.124999
v 0.045892 2.550930 0.129234
v 0.012079 2.548594 0.126989
v -0.020765 2.547846 0.118350
v -0.051375 2.548714 0.103650
v -0.078577 2.551166 0.083453
v -0.101324 2.555106 0.058535
v -0.118743 2.560385 0.029855
v -0.130164 2.566798 -0.001487
v -0.135149 2.574099 -0.034285
v -0.133505 2.582008 -0.067279
v -0.125295 2.590221 -0.099201
v -0.110837 2.598422 -0.128824
v -0.090684 2.606296 -0.155011
v -0.065611 2.613541 -0.176754
v -0.036583 2.619877 -0.193218
v -0.004714 2.625062 -0.203770
v -0.020256 2.849370 -0.168124
v -0.051781 2.842320 -0.157622
v 0.013024 2.854608 -0.172463
v 0.062114 2.393188 -0.193308
v -0.080341 2.833730 -0.141360
v 0.094824 2.393570 -0.184152
v -0.104836 2.823929 -0.119964
v 0.125144 2.393039 -0.168847
v -0.124326 2.813295 -0.094255
v 0.151911 2.391616 -0.147982
v -0.138062 2.802236 -0.065223
v 0.174096 2.389357 -0.122358
v -0.145515 2.791177 -0.033982
v 0.190847 2.386347 -0.092960
v -0.146400 2.780543 -0.001733
v 0.201518 2.382702 -0.060918
v -0.140683 2.770742 0.030285
v 0.205701 2.378563 -0.027463
v -0.128583 2.762152 0.060840
v 0.203235 2.374088 0.006119
v -0.110565 2.755102 0.088760
v 0.194215 2.369450 0.038538
v -0.087321 2.749864 0.112971
v 0.178986 2.364827 0.068547
v -0.059745 2.746638 0.132542
v 0.158135 2.360396 0.094994
v -0.028897 2.745548 0.146722
v 0.132462 2.356328 0.116863
v 0.004038 2.746638 0.154965
v 0.102955 2.352778 0.133312
v 0.037794 2.749863 0.156955
v 0.070746 2.349884 0.143710
v 0.071075 2.755102 0.152616
v 0.037075 2.347757 0.147657
v 0.102600 2.762151 0.142113
v 0.003235 2.346478 0.145001
v 0.131159 2.770741 0.125852
v -0.029474 2.346097 0.135845
v 0.155655 2.780542 0.104455
v -0.059795 2.346628 0.120541
v 0.175145 2.791176 0.078747
v -0.086562 2.348051 0.099675
v 0.188880 2.802235 0.049714
v -0.108747 2.350310 0.074052
v 0.196334 2.813294 0.018474
v -0.125497 2.353320 0.044654
v 0.197219 2.823929 -0.013775
v -0.136169 2.356965 0.012612
v 0.191502 2.833729 -0.045793
v -0.140352 2.361104 -0.020843
v 0.179401 2.842319 -0.076349
v -0.137886 2.365579 -0.054425
v 0.161383 2.849369 -0.104268
v -0.128865 2.370217 -0.086844
v 0.138140 2.854608 -0.128479
v -0.113637 2.374840 -0.116854
v 0.110564 2.857834 -0.148050
v -0.092785 2.379271 -0.143301
v 0.079716 2.858923 -0.162230
v -0.067113 2.383339 -0.165169
v 0.046781 2.857834 -0.170473
v -0.037605 2.386889 -0.181618
v 0.028274 2.391910 -0.195963
v -0.005397 2.389782 -0.192016
v -0.041201 3.026305 -0.111065
v -0.072577 3.018530 -0.100626
v -0.008013 3.032094 -0.115413
v -0.100934 3.009066 -0.084495
v -0.125182 2.998278 -0.063295
v -0.144391 2.986580 -0.037838
v -0.157822 2.974422 -0.009104
v -0.164958 2.962270 0.021804
v -0.165525 2.950593 0.053697
v -0.159503 2.939838 0.085350
v -0.147121 2.930419 0.115547
v -0.128856 2.922698 0.143127
v -0.105410 2.916971 0.167029
v -0.077684 2.913459 0.186337
v -0.046743 2.912297 0.200307
v -0.013776 2.913529 0.208403
v 0.019949 2.917109 0.210314
v 0.053137 2.922897 0.205966
v 0.084513 2.930673 0.195526
v 0.112870 2.940136 0.179396
v 0.137118 2.950925 0.158195
v 0.156327 2.962623 0.132738
v 0.169758 2.974781 0.104004
v 0.176894 2.986932 0.073096
v 0.177461 2.998610 0.041203
v 0.171439 3.009365 0.009550
v 0.159057 3.018784 -0.020646
v 0.140792 3.026505 -0.048226
v 0.117346 3.032231 -0.072129
v 0.089619 3.035743 -0.091436
v 0.058678 3.036905 -0.105407
v 0.025712 3.035673 -0.113503
vn -0.032624 0.051881 -0.998108
vn -0.012146 -0.120518 -0.992615
vn -0.201849 -0.111972 -0.972961
vn -0.224067 0.044801 -0.973540
vn -0.119968 0.930876 0.345042
vn -0.044893 0.982574 -0.180273
vn -0.144688 0.971923 -0.185461
vn -0.106265 0.554277 -0.825495
vn 0.082278 0.573077 -0.815332
vn -0.386273 -0.099368 -0.916990
vn -0.407971 0.035829 -0.912259
vn 0.052644 0.986267 -0.156499
vn 0.266518 0.579608 -0.770043
vn -0.558489 -0.082553 -0.825373
vn -0.577471 0.025666 -0.815973
vn 0.144169 0.982818 -0.115055
vn 0.439222 0.573534 -0.691458
vn -0.711295 -0.061434 -0.700156
vn -0.725852 0.015046 -0.687643
vn 0.225929 0.972411 -0.057649
vn 0.593585 0.555132 -0.582598
vn -0.837428 -0.036256 -0.545305
vn -0.846889 0.004791 -0.531693
vn 0.294717 0.955473 0.013367
vn 0.723624 0.525163 -0.447798
vn -0.930265 -0.007660 -0.366741
vn -0.935209 -0.004395 -0.354015
vn 0.347819 0.932676 0.095187
vn 0.824305 0.484787 -0.292337
vn -0.984741 0.023225 -0.172369
vn -0.986755 -0.012116 -0.161657
vn 0.383251 0.904996 0.184484
vn 0.891751 0.435652 -0.122349
vn -0.998077 0.054964 0.028504
vn -0.999115 -0.017975 0.037263
vn 0.399731 0.873531 0.277688
vn 0.923429 0.379681 0.055544
vn -0.970244 0.085757 0.226325
vn -0.971892 -0.022034 0.234352
vn 0.396710 0.839534 0.371136
vn 0.918241 0.319102 0.234443
vn -0.903958 0.113865 0.412152
vn -0.906552 -0.024415 0.421339
vn 0.374462 0.804376 0.461196
vn 0.876522 0.256264 0.407422
vn -0.803766 0.137669 0.578784
vn -0.806360 -0.025483 0.590838
vn 0.334056 0.769402 0.544420
vn 0.800043 0.193579 0.567827
vn -0.675222 0.155889 0.720908
vn -0.675893 -0.025605 0.736534
vn 0.277169 0.735923 0.617695
vn 0.691824 0.133488 0.709586
vn -0.524064 0.167669 0.834986
vn -0.520463 -0.025147 0.853481
vn 0.206061 0.705252 0.678335
vn 0.556169 0.078249 0.827357
vn -0.355632 0.172521 0.918546
vn -0.345988 -0.024384 0.937895
vn 0.123539 0.678457 0.724143
vn 0.398328 0.029908 0.916715
vn -0.174841 0.170232 0.969756
vn -0.158574 -0.023469 0.987060
vn 0.032777 0.656514 0.753563
vn 0.224372 -0.009705 0.974425
vn 0.013245 0.160863 0.986877
vn 0.035249 -0.022309 0.999115
vn -0.062807 0.640248 0.765587
vn 0.040895 -0.039155 0.998383
vn 0.203284 0.144871 0.968322
vn 0.228736 -0.020783 0.973235
vn -0.159764 0.630177 0.759819
vn -0.145146 -0.057375 0.987732
vn 0.388897 0.122990 0.913022
vn 0.414655 -0.018616 0.909757
vn -0.254463 0.626667 0.736534
vn -0.326792 -0.063692 0.942930
vn 0.562609 0.096377 0.821039
vn 0.585589 -0.015442 0.810419
vn -0.343455 0.629871 0.696616
vn -0.497238 -0.057894 0.865658
vn 0.716392 0.066469 0.694479
vn 0.734336 -0.010987 0.678671
vn -0.423475 0.639637 0.641469
vn -0.650014 -0.040132 0.758812
vn 0.842341 0.035035 0.537767
vn 0.854335 -0.005036 0.519639
vn -0.491531 0.655660 0.573107
vn -0.779412 -0.011139 0.626392
vn 0.933775 0.003845 0.357830
vn 0.940428 0.002411 0.339976
vn -0.545061 0.677358 0.494003
vn -0.880428 0.028108 0.473312
vn 0.986236 -0.025483 0.163244
vn 0.989013 0.011139 0.147313
vn -0.581988 0.704001 0.406995
vn -0.949187 0.076144 0.305307
vn 0.997955 -0.051851 -0.036622
vn 0.998505 0.020692 -0.050172
vn -0.600757 0.734581 0.315348
vn -0.982940 0.131169 0.128727
vn 0.969665 -0.074404 -0.232765
vn 0.969146 0.030488 -0.244545
vn -0.600574 0.767968 0.222449
vn -0.980285 0.191168 -0.049654
vn 0.904050 -0.092807 -0.417219
vn 0.902737 0.039735 -0.428266
vn -0.581225 0.802942 0.131901
vn -0.941130 0.253822 -0.223090
vn 0.805109 -0.107059 -0.583331
vn 0.802515 0.047761 -0.594653
vn -0.543321 0.838191 0.047182
vn -0.866909 0.316752 -0.384838
vn 0.677694 -0.117252 -0.725913
vn 0.672719 0.053865 -0.737907
vn -0.488174 0.872280 -0.028321
vn -0.760277 0.377514 -0.528611
vn 0.526902 -0.123600 -0.840877
vn 0.518418 0.057558 -0.853175
vn -0.417798 0.903867 -0.091647
vn -0.625294 0.433729 -0.648732
vn 0.357982 -0.126225 -0.925138
vn 0.345225 0.058504 -0.936674
vn -0.334880 0.931761 -0.140202
vn -0.467086 0.483169 -0.740501
vn 0.176427 -0.125217 -0.976287
vn 0.159398 0.056551 -0.985565
vn -0.242622 0.954741 -0.171911
vn -0.291818 0.523881 -0.800195
vn -0.202948 -0.175451 -0.963317
vn -0.011109 -0.191107 -0.981475
vn -0.059603 0.225745 -0.972350
vn 0.134404 0.240120 -0.961364
vn -0.389660 -0.152989 -0.908139
vn 0.323344 0.245155 -0.913938
vn -0.563982 -0.123844 -0.816431
vn 0.500015 0.240669 -0.831874
vn -0.718070 -0.088382 -0.690298
vn 0.657765 0.226844 -0.718223
vn -0.844111 -0.047578 -0.534013
vn 0.790613 0.204260 -0.577227
vn -0.935118 -0.002899 -0.354289
vn 0.893429 0.173864 -0.414106
vn -0.986145 0.043580 -0.159917
vn 0.962279 0.136876 -0.234993
vn -0.995209 0.089541 0.039155
vn 0.994385 0.094852 -0.046632
vn -0.963347 0.132542 0.233100
vn 0.988342 0.049471 0.143834
vn -0.894406 0.170446 0.413434
vn 0.944273 0.002503 0.329112
vn -0.793725 0.201605 0.573870
vn 0.863704 -0.044130 0.502029
vn -0.667135 0.224891 0.710135
vn 0.749687 -0.088748 0.655782
vn -0.520096 0.239662 0.819758
vn 0.606555 -0.129643 0.784356
vn -0.357402 0.245521 0.901089
vn 0.439894 -0.165319 0.882687
vn -0.183172 0.242409 0.952696
vn 0.256142 -0.194525 0.946837
vn -0.001434 0.230354 0.973083
vn 0.062471 -0.216224 0.974334
vn 0.183325 0.209601 0.960418
vn -0.133549 -0.229713 0.964019
vn 0.365703 0.180761 0.912992
vn -0.324412 -0.234504 0.916349
vn 0.538865 0.144749 0.829829
vn -0.502701 -0.230476 0.833125
vn 0.694845 0.103122 0.711692
vn -0.661519 -0.217719 0.717612
vn 0.825190 0.057833 0.561846
vn -0.794702 -0.196631 0.574236
vn 0.922300 0.011261 0.386273
vn -0.897092 -0.167974 0.408612
vn 0.980499 -0.034150 0.193457
vn -0.964751 -0.132664 0.227241
vn 0.997040 -0.076296 -0.006836
vn -0.995056 -0.092013 0.037202
vn 0.972167 -0.113468 -0.204871
vn -0.986908 -0.047517 -0.154027
vn 0.908567 -0.144597 -0.391888
vn -0.940764 -0.000793 -0.339030
vn 0.810511 -0.169134 -0.560747
vn -0.858486 0.046297 -0.510697
vn 0.683126 -0.186895 -0.705954
vn -0.743400 0.091952 -0.662465
vn 0.531846 -0.197913 -0.823359
vn -0.600055 0.134342 -0.788568
vn 0.362041 -0.202277 -0.909940
vn -0.433943 0.171758 -0.884396
vn 0.179174 -0.200018 -0.963256
vn -0.251503 0.202643 -0.946379
s 1
f 1//1 160//2 161//3
f 1//1 161//3 97//4
f 2//5 6//6 4//7
f 164//8 4//7 6//6
f 164//8 6//6 193//9
f 159//10 96//11 97//4
f 159//10 97//4 161//3
f 2//5 8//12 6//6
f 193//9 6//6 8//12
f 193//9 8//12 192//13
f 157//14 95//15 96//11
f 157//14 96//11 159//10
f 2//5 10//16 8//12
f 192//13 8//12 10//16
f 192//13 10//16 191//17
f 155//18 94//19 95//15
f 155//18 95//15 157//14
f 2//5 12//20 10//16
f 191//17 10//16 12//20
f 191//17 12//20 190//21
f 153//22 93//23 94//19
f 153//22 94//19 155//18
f 2//5 14//24 12//20
f 190//21 12//20 14//24
f 190//21 14//24 189//25
f 151//26 92//27 93//23
f 151//26 93//23 153//22
f 2//5 16//28 14//24
f 189//25 14//24 16//28
f 189//25 16//28 188//29
f 149//30 91//31 92//27
f 149//30 92//27 151//26
f 2//5 18//32 16//28
f 188//29 16//28 18//32
f 188//29 18//32 187//33
f 147//34 90//35 91//31
f 147//34 91//31 149//30
f 2//5 20//36 18//32
f 187//33 18//32 20//36
f 187//33 20//36 186//37
f 145//38 89//39 90//35
f 145//38 90//35 147//34
f 2//5 22//40 20//36
f 186//37 20//36 22//40
f 186//37 22//40 185//41
f 143//42 88//43 89//39
f 143//42 89//39 145//38
f 2//5 24//44 22//40
f 185//41 22//40 24//44
f 185//41 24//44 184//45
f 141//46 87//47 88//43
f 141//46 88//43 143//42
f 2//5 26//48 24//44
f 184//45 24//44 26//48
f 184//45 26//48 183//49
f 139//50 86//51 87//47
f 139//50 87//47 141//46
f 2//5 28//52 26//48
f 183//49 26//48 28//52
f 183//49 28//52 182//53
f 137//54 85//55 86//51
f 137//54 86//51 139//50
f 2//5 30//56 28//52
f 182//53 28//52 30//56
f 182//53 30//56 181//57
f 135//58 84//59 85//55
f 135//58 85//55 137//54
f 2//5 32//60 30//56
f 181//57 30//56 32//60
f 181//57 32//60 180//61
f 133//62 83//63 84//59
f 133//62 84//59 135//58
f 2//5 34//64 32//60
f 180//61 32//60 34//64
f 180//61 34//64 179//65
f 131//66 82//67 83//63
f 131//66 83//63 133//62
f 2//5 36//68 34//64
f 179//65 34//64 36//68
f 179//65 36//68 178//69
f 129//70 81//71 82//67
f 129//70 82//67 131//66
f 2//5 38//72 36//68
f 178//69 36//68 38//72
f 178//69 38//72 177//73
f 127//74 80//75 81//71
f 127//74 81//71 129//70
f 2//5 40//76 38//72
f 177//73 38//72 40//76
f 177//73 40//76 176//77
f 125//78 79//79 80//75
f 125//78 80//75 127//74
f 2//5 42//80 40//76
f 176//77 40//76 42//80
f 176//77 42//80 175//81
f 123//82 78//83 79//79
f 123//82 79//79 125//78
f 2//5 44//84 42//80
f 175//81 42//80 44//84
f 175//81 44//84 174//85
f 121//86 77//87 78//83
f 121//86 78//83 123//82
f 2//5 46//88 44//84
f 174//85 44//84 46//88
f 174//85 46//88 173//89
f 119//90 76//91 77//87
f 119//90 77//87 121//86
f 2//5 48//92 46//88
f 173//89 46//88 48//92
f 173//89 48//92 172//93
f 117//94 75//95 76//91
f 117//94 76//91 119//90
f 2//5 50//96 48//92
f 172//93 48//92 50//96
f 172//93 50//96 171//97
f 115//98 74//99 75//95
f 115//98 75//95 117//94
f 2//5 52//100 50//96
f 171//97 50//96 52//100
f 171//97 52//100 170//101
f 113//102 73//103 74//99
f 113//102 74//99 115//98
f 2//5 54//104 52//100
f 170//101 52//100 54//104
f 170//101 54//104 169//105
f 111//106 72//107 73//103
f 111//106 73//103 113//102
f 2//5 56//108 54//104
f 169//105 54//104 56//108
f 169//105 56//108 168//109
f 109//110 71//111 72//107
f 109//110 72//107 111//106
f 2//5 58//112 56//108
f 168//109 56//108 58//112
f 168//109 58//112 167//113
f 107//114 70//115 71//111
f 107//114 71//111 109//110
f 2//5 60//116 58//112
f 167//113 58//112 60//116
f 167//113 60//116 166//117
f 105//118 69//119 70//115
f 105//118 70//115 107//114
f 2//5 62//120 60//116
f 166//117 60//116 62//120
f 166//117 62//120 165//121
f 103//122 68//123 69//119
f 103//122 69//119 105//118
f 2//5 64//124 62//120
f 165//121 62//120 64//124
f 165//121 64//124 163//125
f 101//126 67//127 68//123
f 101//126 68//123 103//122
f 2//5 66//128 64//124
f 163//125 64//124 66//128
f 163//125 66//128 162//129
f 160//2 1//1 67//127
f 160//2 67//127 101//126
f 2//5 4//7 66//128
f 65//130 161//3 160//2
f 65//130 160//2 3//131
f 1//1 100//132 158//133
f 1//1 158//133 67//127
f 63//134 159//10 161//3
f 63//134 161//3 65//130
f 67//127 158//133 156//135
f 67//127 156//135 68//123
f 61//136 157//14 159//10
f 61//136 159//10 63//134
f 68//123 156//135 154//137
f 68//123 154//137 69//119
f 59//138 155//18 157//14
f 59//138 157//14 61//136
f 69//119 154//137 152//139
f 69//119 152//139 70//115
f 57//140 153//22 155//18
f 57//140 155//18 59//138
f 70//115 152//139 150//141
f 70//115 150//141 71//111
f 55//142 151//26 153//22
f 55//142 153//22 57//140
f 71//111 150//141 148//143
f 71//111 148//143 72//107
f 53//144 149//30 151//26
f 53//144 151//26 55//142
f 72//107 148//143 146//145
f 72//107 146//145 73//103
f 51//146 147//34 149//30
f 51//146 149//30 53//144
f 73//103 146//145 144//147
f 73//103 144//147 74//99
f 49//148 145//38 147//34
f 49//148 147//34 51//146
f 74//99 144//147 142//149
f 74//99 142//149 75//95
f 47//150 143//42 145//38
f 47//150 145//38 49//148
f 75//95 142//149 140//151
f 75//95 140//151 76//91
f 45//152 141//46 143//42
f 45//152 143//42 47//150
f 76//91 140//151 138//153
f 76//91 138//153 77//87
f 43//154 139//50 141//46
f 43//154 141//46 45//152
f 77//87 138//153 136//155
f 77//87 136//155 78//83
f 41//156 137//54 139//50
f 41//156 139//50 43//154
f 78//83 136//155 134//157
f 78//83 134//157 79//79
f 39//158 135//58 137//54
f 39//158 137//54 41//156
f 79//79 134//157 132//159
f 79//79 132//159 80//75
f 37//160 133//62 135//58
f 37//160 135//58 39//158
f 80//75 132//159 130//161
f 80//75 130//161 81//71
f 35//162 131//66 133//62
f 35//162 133//62 37//160
f 81//71 130//161 128//163
f 81//71 128//163 82//67
f 33//164 129//70 131//66
f 33//164 131//66 35//162
f 82//67 128//163 126//165
f 82//67 126//165 83//63
f 31//166 127//74 129//70
f 31//166 129//70 33//164
f 83//63 126//165 124//167
f 83//63 124//167 84//59
f 29//168 125//78 127//74
f 29//168 127//74 31//166
f 84//59 124//167 122//169
f 84//59 122//169 85//55
f 27//170 123//82 125//78
f 27//170 125//78 29//168
f 85//55 122//169 120//171
f 85//55 120//171 86//51
f 25//172 121//86 123//82
f 25//172 123//82 27//170
f 86//51 120//171 118//173
f 86//51 118//173 87//47
f 23//174 119//90 121//86
f 23//174 121//86 25//172
f 87//47 118//173 116//175
f 87//47 116//175 88//43
f 21//176 117//94 119//90
f 21//176 119//90 23//174
f 88//43 116//175 114//177
f 88//43 114//177 89//39
f 19//178 115//98 117//94
f 19//178 117//94 21//176
f 89//39 114//177 112//179
f 89//39 112//179 90//35
f 17//180 113//102 115//98
f 17//180 115//98 19//178
f 90//35 112//179 110//181
f 90//35 110//181 91//31
f 15//182 111//106 113//102
f 15//182 113//102 17//180
f 91//31 110//181 108//183
f 91//31 108//183 92//27
f 13//184 109//110 111//106
f 13//184 111//106 15//182
f 92//27 108//183 106//185
f 92//27 106//185 93//23
f 11//186 107//114 109//110
f 11//186 109//110 13//184
f 93//23 106//185 104//187
f 93//23 104//187 94//19
f 9//188 105//118 107//114
f 9//188 107//114 11//186
f 94//19 104//187 102//189
f 94//19 102//189 95//15
f 7//190 103//122 105//118
f 7//190 105//118 9//188
f 95//15 102//189 99//191
f 95//15 99//191 96//11
f 5//192 101//126 103//122
f 5//192 103//122 7//190
f 96//11 99//191 98//193
f 96//11 98//193 97//4
f 3//131 160//2 101//126
f 3//131 101//126 5//192
f 100//132 1//1 97//4
f 100//132 97//4 98//193
f 100//132 164//8 193//9
f 100//132 193//9 158//133
f 158//133 193//9 192//13
f 158//133 192//13 156//135
f 156//135 192//13 191//17
f 156//135 191//17 154//137
f 154//137 191//17 190//21
f 154//137 190//21 152//139
f 152//139 190//21 189//25
f 152//139 189//25 150//141
f 150//141 189//25 188//29
f 150//141 188//29 148//143
f 148//143 188//29 187//33
f 148//143 187//33 146//145
f 146//145 187//33 186//37
f 146//145 186//37 144//147
f 144//147 186//37 185//41
f 144//147 185//41 142//149
f 142//149 185//41 184//45
f 142//149 184//45 140//151
f 140//151 184//45 183//49
f 140//151 183//49 138//153
f 138//153 183//49 182//53
f 138//153 182//53 136//155
f 136//155 182//53 181//57
f 136//155 181//57 134//157
f 134//157 181//57 180//61
f 134//157 180//61 132//159
f 132//159 180//61 179//65
f 132//159 179//65 130//161
f 130//161 179//65 178//69
f 130//161 178//69 128//163
f 128//163 178//69 177//73
f 128//163 177//73 126//165
f 126//165 177//73 176//77
f 126//165 176//77 124//167
f 124//167 176//77 175//81
f 124//167 175//81 122//169
f 122//169 175//81 174//85
f 122//169 174//85 120//171
f 120//171 174//85 173//89
f 120//171 173//89 118//173
f 118//173 173//89 172//93
f 118//173 172//93 116//175
f 116//175 172//93 171//97
f 116//175 171//97 114//177
f 114//177 171//97 170//101
f 114//177 170//101 112//179
f 112//179 170//101 169//105
f 112//179 169//105 110//181
f 110//181 169//105 168//109
f 110//181 168//109 108//183
f 108//183 168//109 167//113
f 108//183 167//113 106//185
f 106//185 167//113 166//117
f 106//185 166//117 104//187
f 104//187 166//117 165//121
f 104//187 165//121 102//189
f 102//189 165//121 163//125
f 102//189 163//125 99//191
f 99//191 163//125 162//129
f 99//191 162//129 98//193
f 162//129 164//8 100//132
f 162//129 100//132 98//193
f 162//129 66//128 4//7
f 162//129 4//7 164//8
