# Blender v2.65 (sub 0) OBJ File: ''
# www.blender.org
v 0.054885 -0.860331 0.053812
v -0.850197 -0.860331 0.053811
v -0.836972 -0.860331 -0.574988
v 0.055206 -0.860331 -0.574989
v -0.804870 -0.860331 -1.098989
v 0.055207 -0.860331 -1.098989
v -1.755280 -0.860332 0.053811
v -1.729151 -0.860332 -0.574989
v -1.664947 -0.860332 -1.098989
v 0.947384 -0.860331 -0.574988
v 0.959968 -0.860331 0.053813
v 1.839562 -0.860331 -0.574988
v 1.865050 -0.860331 0.053812
v 0.915283 -0.860331 -1.098988
v 1.775360 -0.860331 -1.098988
v 0.954917 -0.860331 0.682612
v 0.053923 -0.860331 0.682611
v 0.934118 -0.860331 1.206612
v 0.052002 -0.860331 1.206611
v 1.855911 -0.860331 0.682612
v 1.816234 -0.860331 1.206612
v -0.847070 -0.860331 0.682610
v -1.748063 -0.860332 0.682611
v -0.830115 -0.860331 1.206610
v -1.712231 -0.860332 1.206611
v 0.055207 -0.860331 -1.594284
v 0.797579 -0.860331 -1.594284
v 0.861781 -0.860331 -1.413388
v 0.055207 -0.860331 -1.413389
v 1.539951 -0.860331 -1.594284
v 1.668356 -0.860331 -1.413388
v -0.751368 -0.860331 -1.413388
v -0.687166 -0.860331 -1.594285
v -1.557943 -0.860332 -1.413389
v -1.429538 -0.860332 -1.594285
v -0.622963 -0.860331 -1.717772
v 0.055207 -0.860331 -1.717771
v -0.569461 -0.860331 -1.859945
v 0.055207 -0.860331 -1.859945
v -1.301133 -0.860332 -1.717772
v -1.194129 -0.860331 -1.859945
v 0.733376 -0.860331 -1.717771
v 1.411546 -0.860331 -1.717770
v 0.679874 -0.860331 -1.859945
v 1.304542 -0.860331 -1.859944
v 0.055207 -0.860331 -2.381247
v 0.635916 -0.860331 -2.381248
v 0.647773 -0.860331 -2.096900
v 0.055207 -0.860331 -2.096900
v 1.216626 -0.860331 -2.381247
v 1.240340 -0.860331 -2.096900
v -0.537360 -0.860331 -2.096900
v -0.525502 -0.860331 -2.381248
v -1.129927 -0.860331 -2.096901
v -1.106210 -0.860331 -2.381248
v -0.532730 -0.860331 -2.665595
v 0.055208 -0.860331 -2.665595
v -0.557887 -0.860331 -2.902550
v 0.055208 -0.860331 -2.902550
v -1.120667 -0.860331 -2.665595
v -1.170982 -0.860331 -2.902551
v 0.643145 -0.860331 -2.665595
v 1.231083 -0.860331 -2.665594
v 0.668303 -0.860331 -2.902550
v 1.281397 -0.860331 -2.902550
v 0.055208 -0.860331 -3.119992
v 0.755943 -0.860331 -3.119992
v 0.710232 -0.860331 -3.044724
v 0.055208 -0.860331 -3.044724
v 1.456678 -0.860331 -3.119991
v 1.365255 -0.860331 -3.044723
v -0.599816 -0.860331 -3.044724
v -0.645527 -0.860331 -3.119992
v -1.254840 -0.860332 -3.044725
v -1.346262 -0.860332 -3.119993
v -0.682031 -0.860331 -3.156231
v 0.055208 -0.860331 -3.156231
v -0.696339 -0.860331 -3.181318
v 0.055208 -0.860331 -3.181317
v -1.419270 -0.860332 -3.156231
v -1.447885 -0.860332 -3.181318
v 0.792447 -0.860331 -3.156230
v 1.529686 -0.860331 -3.156230
v 0.806754 -0.860331 -3.181317
v 1.558300 -0.860331 -3.181317
v 0.055208 -0.860331 -3.276437
v 0.726183 -0.860331 -3.275392
v 0.785875 -0.860331 -3.223128
v 0.055208 -0.860331 -3.223128
v 1.397159 -0.860331 -3.273300
v 1.516543 -0.860331 -3.223127
v -0.675460 -0.860331 -3.223129
v -0.615768 -0.860331 -3.275392
v -1.406128 -0.860332 -3.223129
v -1.286744 -0.860332 -3.273301
v -0.513635 -0.860331 -3.331836
v 0.055208 -0.860331 -3.336017
v -0.390282 -0.860331 -3.390371
v 0.055208 -0.860331 -3.398733
v -1.082478 -0.860331 -3.323475
v -0.786076 -0.860331 -3.365284
v 0.624051 -0.860331 -3.331836
v 1.192893 -0.860331 -3.323473
v 0.500697 -0.860331 -3.390371
v 0.896491 -0.860331 -3.365284
v 0.045275 -0.857338 1.698235
v -0.767539 -0.857338 1.698235
v -0.801855 -0.860331 1.521011
v 0.048798 -0.860331 1.521012
v -1.580352 -0.857339 1.698234
v -1.652508 -0.860332 1.521011
v 0.899452 -0.860331 1.521013
v 0.858088 -0.857338 1.698236
v 1.750105 -0.860331 1.521013
v 1.670902 -0.857338 1.698236
v 0.817197 -0.848358 1.810704
v 0.042392 -0.848358 1.810704
v 0.783948 -0.830398 1.930845
v 0.041110 -0.830398 1.930844
v 1.592003 -0.848358 1.810705
v 1.526785 -0.830398 1.930845
v -0.732414 -0.848358 1.810704
v -1.507219 -0.848359 1.810703
v -0.701727 -0.830398 1.930844
v -1.444565 -0.830399 1.930843
v 0.045274 -0.764546 2.371355
v -0.670173 -0.764546 2.371355
v -0.680726 -0.800466 2.131076
v 0.042392 -0.800466 2.131076
v -1.385619 -0.764547 2.371354
v -1.403845 -0.800467 2.131075
v 0.765510 -0.800466 2.131077
v 0.760720 -0.764546 2.371356
v 1.488628 -0.800466 2.131077
v 1.476167 -0.764546 2.371356
v 0.768420 -0.728627 2.611634
v 0.048797 -0.728627 2.611633
v 0.787446 -0.698694 2.811865
v 0.052001 -0.698694 2.811865
v 1.488042 -0.728627 2.611634
v 1.522891 -0.698694 2.811866
v -0.670825 -0.728627 2.611633
v -1.390448 -0.728628 2.611632
v -0.683445 -0.698694 2.811864
v -1.418890 -0.698695 2.811864
v 0.054883 -0.671755 2.996222
v -0.740378 -0.671755 2.996222
v -0.708792 -0.680735 2.932004
v 0.053923 -0.680735 2.932005
v -1.535640 -0.671756 2.996221
v -1.471506 -0.680736 2.932004
v 0.816637 -0.680735 2.932005
v 0.850145 -0.671755 2.996222
v 1.579351 -0.680735 2.932006
v 1.645407 -0.671755 2.996223
v 0.882123 -0.668762 3.028687
v 0.055204 -0.668762 3.028686
v 0.906723 -0.668762 3.053566
v 0.055204 -0.668762 3.053566
v 1.709042 -0.668762 3.028687
v 1.758242 -0.668762 3.053567
v -0.771715 -0.668762 3.028686
v -1.598635 -0.668763 3.028685
v -0.796315 -0.668762 3.053566
v -1.647834 -0.668763 3.053565
v 0.054112 -0.662205 3.151056
v 0.055204 -0.668762 3.095035
v 0.918097 -0.668762 3.095036
v 0.916910 -0.662205 3.151057
v 1.780990 -0.668762 3.095036
v 1.779707 -0.662205 3.151058
v 0.903826 -0.642534 3.219595
v 0.050838 -0.642534 3.219595
v 0.879509 -0.603191 3.298615
v 0.044289 -0.603191 3.298614
v 1.756813 -0.642534 3.219596
v 1.714729 -0.603191 3.298615
v -0.802150 -0.642534 3.219594
v -0.808685 -0.662205 3.151056
v -1.655138 -0.642535 3.219594
v -1.671483 -0.662206 3.151056
v -0.790931 -0.603191 3.298614
v -1.626151 -0.603192 3.298613
v -0.807690 -0.668762 3.095035
v -1.670583 -0.668763 3.095034
v 0.020277 -0.458937 3.475810
v 0.033375 -0.537621 3.386080
v 0.844624 -0.537621 3.386081
v 0.803432 -0.458937 3.475811
v 1.655874 -0.537621 3.386081
v 1.586587 -0.458937 3.475811
v 0.760193 -0.380253 3.561622
v 0.007180 -0.380253 3.561622
v 0.719167 -0.314682 3.637333
v -0.003735 -0.314682 3.637333
v 1.513205 -0.380253 3.561623
v 1.442068 -0.314682 3.637334
v -0.745833 -0.380253 3.561621
v -0.762877 -0.458937 3.475810
v -1.498846 -0.380254 3.561621
v -1.546032 -0.458938 3.475809
v -0.726637 -0.314682 3.637332
v -1.449538 -0.314683 3.637332
v -0.777875 -0.537621 3.386080
v -1.589125 -0.537622 3.386079
v -0.013559 -0.255669 3.743433
v -0.010284 -0.275340 3.696763
v 0.684614 -0.275340 3.696763
v 0.637150 -0.255669 3.742887
v 1.379514 -0.275340 3.696764
v 1.287858 -0.255669 3.741792
v 0.557386 -0.249112 3.778680
v -0.014650 -0.249112 3.780868
v 0.461472 -0.249112 3.809309
v -0.014650 -0.249112 3.813685
v 1.129421 -0.249112 3.774305
v 0.866520 -0.249112 3.796182
v -0.586686 -0.249112 3.778678
v -0.664267 -0.255669 3.742884
v -1.158722 -0.249113 3.774302
v -1.314976 -0.255670 3.741790
v -0.490772 -0.249112 3.809309
v -0.895820 -0.249112 3.796180
v -0.705183 -0.275340 3.696763
v -1.400081 -0.275341 3.696761
vt 0.511971 0.435954
vt 0.364688 0.436880
vt 0.365982 0.361006
vt 0.511235 0.360116
vt 0.370516 0.297736
vt 0.510574 0.296885
vt 0.217319 0.437878
vt 0.220665 0.361957
vt 0.230381 0.298635
vt 0.656499 0.359299
vt 0.659272 0.435160
vt 0.801842 0.358533
vt 0.806687 0.434420
vt 0.650639 0.296084
vt 0.790791 0.295326
vt 0.659118 0.511004
vt 0.512592 0.511748
vt 0.656211 0.574185
vt 0.512916 0.574844
vt 0.805868 0.510342
vt 0.799908 0.573659
vt 0.366101 0.512700
vt 0.219425 0.513753
vt 0.369676 0.575824
vt 0.226081 0.576956
vt 0.509947 0.237109
vt 0.630840 0.236396
vt 0.641532 0.258179
vt 0.510176 0.258940
vt 0.751867 0.235724
vt 0.772998 0.257456
vt 0.378825 0.259730
vt 0.389058 0.237825
vt 0.247371 0.260563
vt 0.268040 0.238585
vt 0.399370 0.222848
vt 0.509791 0.222209
vt 0.407928 0.205623
vt 0.509611 0.205057
vt 0.288788 0.223539
vt 0.306018 0.206257
vt 0.620214 0.221543
vt 0.730803 0.220924
vt 0.611294 0.204420
vt 0.713210 0.203847
vt 0.508949 0.142202
vt 0.603183 0.141477
vt 0.605682 0.175822
vt 0.509310 0.176479
vt 0.698406 0.140841
vt 0.702514 0.175263
vt 0.412937 0.176963
vt 0.414713 0.142593
vt 0.316110 0.177551
vt 0.319492 0.143086
vt 0.413602 0.108156
vt 0.508590 0.108037
vt 0.409861 0.079398
vt 0.508292 0.079752
vt 0.316530 0.108561
vt 0.307598 0.079535
vt 0.603569 0.107030
vt 0.700639 0.106284
vt 0.606703 0.078231
vt 0.708959 0.077156
vt 0.508006 0.052636
vt 0.620768 0.050694
vt 0.612806 0.060930
vt 0.508114 0.062911
vt 0.739464 0.049052
vt 0.723073 0.059273
vt 0.403394 0.062172
vt 0.395218 0.052032
vt 0.293108 0.061822
vt 0.276504 0.051798
vt 0.380620 0.041521
vt 0.507890 0.041685
vt 0.370833 0.029603
vt 0.507761 0.029456
vt 0.248936 0.041838
vt 0.230432 0.030175
vt 0.635142 0.040011
vt 0.766819 0.038767
vt 0.644677 0.027978
vt 0.785075 0.026885
vt 0.507516 0.006184
vt 0.618821 0.005468
vt 0.635648 0.015890
vt 0.507630 0.017036
vt 0.737700 0.005619
vt 0.768764 0.015156
vt 0.379606 0.017409
vt 0.396210 0.006789
vt 0.246493 0.018254
vt 0.277352 0.008350
vt 0.416608 -0.001650
vt 0.507421 -0.002790
vt 0.437065 -0.008965
vt 0.507343 -0.010128
vt 0.318440 0.000344
vt 0.368982 -0.005596
vt 0.598248 -0.002728
vt 0.696447 -0.001899
vt 0.577639 -0.009799
vt 0.645785 -0.007238
vt 0.512414 0.633952
vt 0.380709 0.634941
vt 0.374808 0.613651
vt 0.512774 0.612657
vt 0.248399 0.636125
vt 0.236336 0.614831
vt 0.650804 0.612086
vt 0.644184 0.633456
vt 0.789389 0.611682
vt 0.776607 0.633132
vt 0.637592 0.647063
vt 0.512081 0.647497
vt 0.632230 0.661706
vt 0.512016 0.662068
vt 0.763826 0.646793
vt 0.753279 0.661497
vt 0.386633 0.648472
vt 0.260510 0.649636
vt 0.391867 0.663047
vt 0.270932 0.664211
vt 0.513181 0.715309
vt 0.398192 0.716521
vt 0.395762 0.687361
vt 0.512454 0.686305
vt 0.281371 0.718029
vt 0.277932 0.688624
vt 0.629233 0.686073
vt 0.628313 0.715274
vt 0.747195 0.686012
vt 0.745301 0.715496
vt 0.629211 0.744479
vt 0.514005 0.744166
vt 0.631775 0.768811
vt 0.514716 0.768034
vt 0.747308 0.745061
vt 0.753045 0.769866
vt 0.398959 0.745667
vt 0.281115 0.747530
vt 0.397897 0.769978
vt 0.276937 0.772303
vt 0.515462 0.794063
vt 0.387121 0.796347
vt 0.394496 0.784577
vt 0.515137 0.782279
vt 0.253319 0.799123
vt 0.268593 0.787300
vt 0.636078 0.783404
vt 0.644120 0.795083
vt 0.762341 0.784828
vt 0.778293 0.796494
vt 0.660181 0.807052
vt 0.515721 0.806469
vt 0.678561 0.820347
vt 0.515827 0.820328
vt 0.808455 0.808057
vt 0.841719 0.820464
vt 0.371605 0.808472
vt 0.223696 0.810981
vt 0.353538 0.821914
vt 0.190733 0.823700
vt 0.514941 0.852329
vt 0.515931 0.835993
vt 0.685038 0.835792
vt 0.683904 0.851998
vt 0.853402 0.835513
vt 0.852298 0.851606
vt 0.679546 0.867849
vt 0.514078 0.868541
vt 0.673639 0.883367
vt 0.512688 0.884392
vt 0.845336 0.867232
vt 0.835664 0.882450
vt 0.349345 0.869610
vt 0.346585 0.853645
vt 0.183897 0.870697
vt 0.178484 0.854986
vt 0.352547 0.885323
vt 0.190975 0.886071
vt 0.347376 0.837385
vt 0.179351 0.838834
vt 0.508367 0.917361
vt 0.510739 0.900141
vt 0.666940 0.899201
vt 0.658982 0.916531
vt 0.824598 0.898248
vt 0.811553 0.915605
vt 0.650553 0.933472
vt 0.505979 0.934153
vt 0.642475 0.948055
vt 0.503976 0.948505
vt 0.797754 0.932576
vt 0.784357 0.947207
vt 0.362200 0.935022
vt 0.358533 0.918234
vt 0.215452 0.935711
vt 0.206405 0.918909
vt 0.366290 0.949453
vt 0.224904 0.950182
vt 0.355316 0.901042
vt 0.198114 0.901718
vt 0.501698 0.972742
vt 0.502534 0.961351
vt 0.633945 0.960796
vt 0.619235 0.972150
vt 0.770055 0.959674
vt 0.744186 0.970388
vt 0.593476 0.980996
vt 0.501471 0.981633
vt 0.566998 0.987409
vt 0.501536 0.988072
vt 0.697881 0.978356
vt 0.647483 0.984705
vt 0.410190 0.982093
vt 0.385083 0.973585
vt 0.306827 0.980670
vt 0.261127 0.973254
vt 0.436509 0.988133
vt 0.356830 0.986378
vt 0.372050 0.962318
vt 0.236672 0.962739
vn 0.000000 -1.000000 0.000000
vn 0.000000 -0.999969 0.000000
vn 0.000000 -0.998810 0.048250
vn 0.000000 -0.999939 0.008423
vn 0.000000 -0.999268 0.038026
vn 0.000000 -0.999969 0.006775
vn 0.000000 -0.999969 0.006623
vn 0.000000 -0.999298 0.037294
vn 0.000000 -0.993500 0.113773
vn 0.000000 -0.988983 0.147832
vn 0.000000 -0.994751 0.102206
vn 0.000000 -0.994690 0.102695
vn 0.000000 -0.993316 0.115177
vn 0.000000 -0.989685 0.143162
vn 0.000000 -0.994720 0.102512
vn 0.000000 -0.989898 0.141575
vn 0.000000 -0.989929 0.141514
vn 0.000000 -0.994720 0.102329
vn 0.000000 -0.998932 0.045930
vn 0.000000 -0.999878 0.013794
vn 0.000000 -0.999878 0.013916
vn 0.000000 -0.980438 0.196692
vn 0.000000 -0.998291 0.058199
vn 0.000000 -0.997620 0.068850
vn 0.000000 -0.982269 0.187323
vn 0.000000 -0.932035 0.362285
vn 0.000000 -0.851131 0.524918
vn 0.000000 -0.940123 0.340770
vn 0.000000 -0.865291 0.501236
vn 0.000000 -0.937834 0.347056
vn 0.000000 -0.981597 0.190924
vn 0.000000 -0.860805 0.508896
vn 0.000000 -0.997559 0.069552
vn 0.000000 -0.744499 0.667592
vn 0.000000 -0.776543 0.630024
vn 0.000000 -0.784417 0.620197
vn 0.000000 -0.747093 0.664693
vn 0.000000 -0.746544 0.665304
vn 0.000000 -0.796533 0.604572
vn 0.000000 -0.742943 0.669332
vn 0.000000 -0.779015 0.626972
vn 0.000000 -0.743950 0.668203
vn 0.000000 -0.746239 0.665639
vn 0.000000 -0.782434 0.622700
vn 0.000000 -0.781732 0.623585
vn 0.000000 -0.959258 0.282449
vn 0.000000 -0.881466 0.472213
vn 0.000031 -0.880459 0.474075
vn 0.000732 -0.957121 0.289651
vn 0.000092 -0.850276 0.526292
vn 0.000641 -0.921812 0.387555
vn 0.000153 -0.995880 0.090609
vn 0.000000 -0.996246 0.086367
vn 0.000336 -0.980987 0.193976
vn -0.000153 -0.995880 0.090609
vn -0.000732 -0.957121 0.289590
vn -0.000336 -0.980987 0.193945
vn -0.000641 -0.921995 0.387127
vn -0.000031 -0.880459 0.474075
vn -0.000092 -0.851833 0.523789
s 1
usemtl Material_scratched_metal.jpg
f 1/1/1 2/2/1 3/3/1
f 1/1/1 3/3/1 4/4/1
f 4/4/1 3/3/1 5/5/1
f 4/4/1 5/5/1 6/6/1
f 2/2/1 7/7/1 8/8/1
f 2/2/1 8/8/1 3/3/1
f 3/3/1 8/8/1 9/9/2
f 3/3/1 9/9/2 5/5/1
f 1/1/1 4/4/1 10/10/1
f 1/1/1 10/10/1 11/11/1
f 11/11/1 10/10/1 12/12/1
f 11/11/1 12/12/1 13/13/1
f 4/4/1 6/6/1 14/14/1
f 4/4/1 14/14/1 10/10/1
f 10/10/1 14/14/1 15/15/1
f 10/10/1 15/15/1 12/12/1
f 1/1/1 11/11/1 16/16/1
f 1/1/1 16/16/1 17/17/1
f 17/17/1 16/16/1 18/18/1
f 17/17/1 18/18/1 19/19/1
f 11/11/1 13/13/1 20/20/2
f 11/11/1 20/20/2 16/16/1
f 16/16/1 20/20/2 21/21/1
f 16/16/1 21/21/1 18/18/1
f 1/1/1 17/17/1 22/22/1
f 1/1/1 22/22/1 2/2/1
f 2/2/1 22/22/1 23/23/2
f 2/2/1 23/23/2 7/7/1
f 17/17/1 19/19/1 24/24/1
f 17/17/1 24/24/1 22/22/1
f 22/22/1 24/24/1 25/25/2
f 22/22/1 25/25/2 23/23/2
f 26/26/2 27/27/1 28/28/1
f 26/26/2 28/28/1 29/29/2
f 29/29/2 28/28/1 14/14/1
f 29/29/2 14/14/1 6/6/1
f 27/27/1 30/30/1 31/31/1
f 27/27/1 31/31/1 28/28/1
f 28/28/1 31/31/1 15/15/1
f 28/28/1 15/15/1 14/14/1
f 26/26/2 29/29/2 32/32/1
f 26/26/2 32/32/1 33/33/1
f 33/33/1 32/32/1 34/34/1
f 33/33/1 34/34/1 35/35/1
f 29/29/2 6/6/1 5/5/1
f 29/29/2 5/5/1 32/32/1
f 32/32/1 5/5/1 9/9/2
f 32/32/1 9/9/2 34/34/1
f 26/26/2 33/33/1 36/36/2
f 26/26/2 36/36/2 37/37/1
f 37/37/1 36/36/2 38/38/1
f 37/37/1 38/38/1 39/39/1
f 33/33/1 35/35/1 40/40/1
f 33/33/1 40/40/1 36/36/2
f 36/36/2 40/40/1 41/41/1
f 36/36/2 41/41/1 38/38/1
f 26/26/2 37/37/1 42/42/1
f 26/26/2 42/42/1 27/27/1
f 27/27/1 42/42/1 43/43/1
f 27/27/1 43/43/1 30/30/1
f 37/37/1 39/39/1 44/44/1
f 37/37/1 44/44/1 42/42/1
f 42/42/1 44/44/1 45/45/1
f 42/42/1 45/45/1 43/43/1
f 46/46/1 47/47/1 48/48/1
f 46/46/1 48/48/1 49/49/2
f 49/49/2 48/48/1 44/44/1
f 49/49/2 44/44/1 39/39/1
f 47/47/1 50/50/1 51/51/1
f 47/47/1 51/51/1 48/48/1
f 48/48/1 51/51/1 45/45/1
f 48/48/1 45/45/1 44/44/1
f 46/46/1 49/49/2 52/52/1
f 46/46/1 52/52/1 53/53/1
f 53/53/1 52/52/1 54/54/2
f 53/53/1 54/54/2 55/55/1
f 49/49/2 39/39/1 38/38/1
f 49/49/2 38/38/1 52/52/1
f 52/52/1 38/38/1 41/41/1
f 52/52/1 41/41/1 54/54/2
f 46/46/1 53/53/1 56/56/1
f 46/46/1 56/56/1 57/57/1
f 57/57/1 56/56/1 58/58/1
f 57/57/1 58/58/1 59/59/1
f 53/53/1 55/55/1 60/60/1
f 53/53/1 60/60/1 56/56/1
f 56/56/1 60/60/1 61/61/1
f 56/56/1 61/61/1 58/58/1
f 46/46/1 57/57/1 62/62/1
f 46/46/1 62/62/1 47/47/1
f 47/47/1 62/62/1 63/63/1
f 47/47/1 63/63/1 50/50/1
f 57/57/1 59/59/1 64/64/1
f 57/57/1 64/64/1 62/62/1
f 62/62/1 64/64/1 65/65/2
f 62/62/1 65/65/2 63/63/1
f 66/66/1 67/67/2 68/68/1
f 66/66/1 68/68/1 69/69/1
f 69/69/1 68/68/1 64/64/1
f 69/69/1 64/64/1 59/59/1
f 67/67/2 70/70/1 71/71/1
f 67/67/2 71/71/1 68/68/1
f 68/68/1 71/71/1 65/65/2
f 68/68/1 65/65/2 64/64/1
f 66/66/1 69/69/1 72/72/1
f 66/66/1 72/72/1 73/73/1
f 73/73/1 72/72/1 74/74/1
f 73/73/1 74/74/1 75/75/1
f 69/69/1 59/59/1 58/58/1
f 69/69/1 58/58/1 72/72/1
f 72/72/1 58/58/1 61/61/1
f 72/72/1 61/61/1 74/74/1
f 66/66/1 73/73/1 76/76/1
f 66/66/1 76/76/1 77/77/1
f 77/77/1 76/76/1 78/78/1
f 77/77/1 78/78/1 79/79/1
f 73/73/1 75/75/1 80/80/1
f 73/73/1 80/80/1 76/76/1
f 76/76/1 80/80/1 81/81/2
f 76/76/1 81/81/2 78/78/1
f 66/66/1 77/77/1 82/82/2
f 66/66/1 82/82/2 67/67/2
f 67/67/2 82/82/2 83/83/1
f 67/67/2 83/83/1 70/70/1
f 77/77/1 79/79/1 84/84/1
f 77/77/1 84/84/1 82/82/2
f 82/82/2 84/84/1 85/85/1
f 82/82/2 85/85/1 83/83/1
f 86/86/1 87/87/2 88/88/2
f 86/86/1 88/88/2 89/89/1
f 89/89/1 88/88/2 84/84/1
f 89/89/1 84/84/1 79/79/1
f 87/87/2 90/90/1 91/91/1
f 87/87/2 91/91/1 88/88/2
f 88/88/2 91/91/1 85/85/1
f 88/88/2 85/85/1 84/84/1
f 86/86/1 89/89/1 92/92/1
f 86/86/1 92/92/1 93/93/1
f 93/93/1 92/92/1 94/94/2
f 93/93/1 94/94/2 95/95/1
f 89/89/1 79/79/1 78/78/1
f 89/89/1 78/78/1 92/92/1
f 92/92/1 78/78/1 81/81/2
f 92/92/1 81/81/2 94/94/2
f 86/86/1 93/93/1 96/96/1
f 86/86/1 96/96/1 97/97/1
f 97/97/1 96/96/1 98/98/1
f 97/97/1 98/98/1 99/99/1
f 93/93/1 95/95/1 100/100/1
f 93/93/1 100/100/1 96/96/1
f 96/96/1 100/100/1 101/101/1
f 96/96/1 101/101/1 98/98/1
f 86/86/1 97/97/1 102/102/1
f 86/86/1 102/102/1 87/87/2
f 87/87/2 102/102/1 103/103/2
f 87/87/2 103/103/2 90/90/1
f 97/97/1 99/99/1 104/104/1
f 97/97/1 104/104/1 102/102/1
f 102/102/1 104/104/1 105/105/1
f 102/102/1 105/105/1 103/103/2
f 106/106/3 107/107/3 108/108/4
f 106/106/3 108/108/4 109/109/4
f 109/109/4 108/108/4 24/24/1
f 109/109/4 24/24/1 19/19/1
f 107/107/3 110/110/5 111/111/6
f 107/107/3 111/111/6 108/108/4
f 108/108/4 111/111/6 25/25/2
f 108/108/4 25/25/2 24/24/1
f 106/106/3 109/109/4 112/112/4
f 106/106/3 112/112/4 113/113/3
f 113/113/3 112/112/4 114/114/7
f 113/113/3 114/114/7 115/115/8
f 109/109/4 19/19/1 18/18/1
f 109/109/4 18/18/1 112/112/4
f 112/112/4 18/18/1 21/21/1
f 112/112/4 21/21/1 114/114/7
f 106/106/3 113/113/3 116/116/9
f 106/106/3 116/116/9 117/117/9
f 117/117/9 116/116/9 118/118/10
f 117/117/9 118/118/10 119/119/10
f 113/113/3 115/115/8 120/120/11
f 113/113/3 120/120/11 116/116/9
f 116/116/9 120/120/11 121/121/10
f 116/116/9 121/121/10 118/118/10
f 106/106/3 117/117/9 122/122/9
f 106/106/3 122/122/9 107/107/3
f 107/107/3 122/122/9 123/123/12
f 107/107/3 123/123/12 110/110/5
f 117/117/9 119/119/10 124/124/10
f 117/117/9 124/124/10 122/122/9
f 122/122/9 124/124/10 125/125/10
f 122/122/9 125/125/10 123/123/12
f 126/126/10 127/127/10 128/128/10
f 126/126/10 128/128/10 129/129/10
f 129/129/10 128/128/10 124/124/10
f 129/129/10 124/124/10 119/119/10
f 127/127/10 130/130/10 131/131/10
f 127/127/10 131/131/10 128/128/10
f 128/128/10 131/131/10 125/125/10
f 128/128/10 125/125/10 124/124/10
f 126/126/10 129/129/10 132/132/10
f 126/126/10 132/132/10 133/133/10
f 133/133/10 132/132/10 134/134/10
f 133/133/10 134/134/10 135/135/10
f 129/129/10 119/119/10 118/118/10
f 129/129/10 118/118/10 132/132/10
f 132/132/10 118/118/10 121/121/10
f 132/132/10 121/121/10 134/134/10
f 126/126/10 133/133/10 136/136/10
f 126/126/10 136/136/10 137/137/10
f 137/137/10 136/136/10 138/138/10
f 137/137/10 138/138/10 139/139/10
f 133/133/10 135/135/10 140/140/10
f 133/133/10 140/140/10 136/136/10
f 136/136/10 140/140/10 141/141/10
f 136/136/10 141/141/10 138/138/10
f 126/126/10 137/137/10 142/142/10
f 126/126/10 142/142/10 127/127/10
f 127/127/10 142/142/10 143/143/10
f 127/127/10 143/143/10 130/130/10
f 137/137/10 139/139/10 144/144/10
f 137/137/10 144/144/10 142/142/10
f 142/142/10 144/144/10 145/145/10
f 142/142/10 145/145/10 143/143/10
f 146/146/13 147/147/13 148/148/14
f 146/146/13 148/148/14 149/149/14
f 149/149/14 148/148/14 144/144/10
f 149/149/14 144/144/10 139/139/10
f 147/147/13 150/150/15 151/151/16
f 147/147/13 151/151/16 148/148/14
f 148/148/14 151/151/16 145/145/10
f 148/148/14 145/145/10 144/144/10
f 146/146/13 149/149/14 152/152/14
f 146/146/13 152/152/14 153/153/13
f 153/153/13 152/152/14 154/154/17
f 153/153/13 154/154/17 155/155/18
f 149/149/14 139/139/10 138/138/10
f 149/149/14 138/138/10 152/152/14
f 152/152/14 138/138/10 141/141/10
f 152/152/14 141/141/10 154/154/17
f 146/146/13 153/153/13 156/156/19
f 146/146/13 156/156/19 157/157/19
f 157/157/19 156/156/19 158/158/1
f 157/157/19 158/158/1 159/159/1
f 153/153/13 155/155/18 160/160/20
f 153/153/13 160/160/20 156/156/19
f 156/156/19 160/160/20 161/161/1
f 156/156/19 161/161/1 158/158/1
f 146/146/13 157/157/19 162/162/19
f 146/146/13 162/162/19 147/147/13
f 147/147/13 162/162/19 163/163/21
f 147/147/13 163/163/21 150/150/15
f 157/157/19 159/159/1 164/164/2
f 157/157/19 164/164/2 162/162/19
f 162/162/19 164/164/2 165/165/2
f 162/162/19 165/165/2 163/163/21
f 166/166/22 167/167/23 168/168/23
f 166/166/22 168/168/23 169/169/22
f 169/169/22 168/168/23 170/170/24
f 169/169/22 170/170/24 171/171/25
f 167/167/23 159/159/1 158/158/1
f 167/167/23 158/158/1 168/168/23
f 168/168/23 158/158/1 161/161/1
f 168/168/23 161/161/1 170/170/24
f 166/166/22 169/169/22 172/172/26
f 166/166/22 172/172/26 173/173/26
f 173/173/26 172/172/26 174/174/27
f 173/173/26 174/174/27 175/175/27
f 169/169/22 171/171/25 176/176/28
f 169/169/22 176/176/28 172/172/26
f 172/172/26 176/176/28 177/177/29
f 172/172/26 177/177/29 174/174/27
f 166/166/22 173/173/26 178/178/26
f 166/166/22 178/178/26 179/179/22
f 179/179/22 178/178/26 180/180/30
f 179/179/22 180/180/30 181/181/31
f 173/173/26 175/175/27 182/182/27
f 173/173/26 182/182/27 178/178/26
f 178/178/26 182/182/27 183/183/32
f 178/178/26 183/183/32 180/180/30
f 166/166/22 179/179/22 184/184/23
f 166/166/22 184/184/23 167/167/23
f 167/167/23 184/184/23 164/164/2
f 167/167/23 164/164/2 159/159/1
f 179/179/22 181/181/31 185/185/33
f 179/179/22 185/185/33 184/184/23
f 184/184/23 185/185/33 165/165/2
f 184/184/23 165/165/2 164/164/2
f 186/186/34 187/187/35 188/188/35
f 186/186/34 188/188/35 189/189/34
f 189/189/34 188/188/35 190/190/36
f 189/189/34 190/190/36 191/191/37
f 187/187/35 175/175/27 174/174/27
f 187/187/35 174/174/27 188/188/35
f 188/188/35 174/174/27 177/177/29
f 188/188/35 177/177/29 190/190/36
f 186/186/34 189/189/34 192/192/38
f 186/186/34 192/192/38 193/193/38
f 193/193/38 192/192/38 194/194/39
f 193/193/38 194/194/39 195/195/39
f 189/189/34 191/191/37 196/196/40
f 189/189/34 196/196/40 192/192/38
f 192/192/38 196/196/40 197/197/41
f 192/192/38 197/197/41 194/194/39
f 186/186/34 193/193/38 198/198/38
f 186/186/34 198/198/38 199/199/34
f 199/199/34 198/198/38 200/200/42
f 199/199/34 200/200/42 201/201/43
f 193/193/38 195/195/39 202/202/39
f 193/193/38 202/202/39 198/198/38
f 198/198/38 202/202/39 203/203/44
f 198/198/38 203/203/44 200/200/42
f 186/186/34 199/199/34 204/204/35
f 186/186/34 204/204/35 187/187/35
f 187/187/35 204/204/35 182/182/27
f 187/187/35 182/182/27 175/175/27
f 199/199/34 201/201/43 205/205/45
f 199/199/34 205/205/45 204/204/35
f 204/204/35 205/205/45 183/183/32
f 204/204/35 183/183/32 182/182/27
f 206/206/46 207/207/47 208/208/48
f 206/206/46 208/208/48 209/209/49
f 209/209/49 208/208/48 210/210/50
f 209/209/49 210/210/50 211/211/51
f 207/207/47 195/195/39 194/194/39
f 207/207/47 194/194/39 208/208/48
f 208/208/48 194/194/39 197/197/41
f 208/208/48 197/197/41 210/210/50
f 206/206/46 209/209/49 212/212/52
f 206/206/46 212/212/52 213/213/53
f 213/213/53 212/212/52 214/214/1
f 213/213/53 214/214/1 215/215/2
f 209/209/49 211/211/51 216/216/54
f 209/209/49 216/216/54 212/212/52
f 212/212/52 216/216/54 217/217/1
f 212/212/52 217/217/1 214/214/1
f 206/206/46 213/213/53 218/218/55
f 206/206/46 218/218/55 219/219/56
f 219/219/56 218/218/55 220/220/57
f 219/219/56 220/220/57 221/221/58
f 213/213/53 215/215/2 222/222/1
f 213/213/53 222/222/1 218/218/55
f 218/218/55 222/222/1 223/223/1
f 218/218/55 223/223/1 220/220/57
f 206/206/46 219/219/56 224/224/59
f 206/206/46 224/224/59 207/207/47
f 207/207/47 224/224/59 202/202/39
f 207/207/47 202/202/39 195/195/39
f 219/219/56 221/221/58 225/225/60
f 219/219/56 225/225/60 224/224/59
f 224/224/59 225/225/60 203/203/44
f 224/224/59 203/203/44 202/202/39
