# Blender v2.65 (sub 0) OBJ File: ''
# www.blender.org
mtllib environment3obj.mtl
v -8.046149 -0.004533 -5.364107
v -8.046147 -0.004533 -8.046158
v -5.364097 -0.004533 -8.046157
v -5.364099 -0.004533 -5.364106
v -8.046150 -0.004534 -2.682056
v -5.364100 -0.004534 -2.682055
v -8.046152 -0.004534 -0.000005
v -5.364101 -0.004534 -0.000004
v -8.046154 -0.004534 2.682046
v -5.364102 -0.004534 2.682047
v -8.046155 -0.004535 5.364098
v -5.364104 -0.004535 5.364098
v -8.046157 -0.004535 8.046148
v -5.364105 -0.004535 8.046149
v -2.682046 -0.004533 -8.046155
v -2.682047 -0.004533 -5.364104
v -2.682049 -0.004534 -2.682054
v -2.682050 -0.004534 -0.000002
v -2.682051 -0.004534 2.682048
v -2.682052 -0.004535 5.364100
v -2.682053 -0.004535 8.046150
v 0.000004 -0.004533 -8.046154
v 0.000003 -0.004533 -5.364103
v 0.000002 -0.004534 -2.682053
v 0.000001 -0.004534 -0.000001
v 0.000000 -0.004534 2.682049
v -0.000001 -0.004535 5.364100
v -0.000002 -0.004535 8.046151
v 2.682055 -0.004533 -8.046152
v 2.682054 -0.004533 -5.364102
v 2.682053 -0.004534 -2.682052
v 2.682052 -0.004534 -0.000000
v 2.682051 -0.004534 2.682050
v 2.682051 -0.004535 5.364101
v 2.682050 -0.004535 8.046151
v 5.364105 -0.004533 -8.046151
v 5.364104 -0.004533 -5.364101
v 5.364104 -0.004534 -2.682051
v 5.364103 -0.004534 -0.000000
v 5.364102 -0.004534 2.682050
v 5.364101 -0.004535 5.364101
v 5.364101 -0.004535 8.046152
v 8.046156 -0.004533 -8.046150
v 8.046155 -0.004533 -5.364100
v 8.046155 -0.004534 -2.682049
v 8.046154 -0.004534 0.000001
v 8.046154 -0.004534 2.682052
v 8.046153 -0.004535 5.364102
v 8.046152 -0.004535 8.046153
vt 0.000000 0.000000
vt 1.000000 0.000000
vt 1.000000 1.000000
vt 0.000000 1.000000
vn 0.000000 -1.000000 -0.000000
usemtl Material_greyCheckered.jpg
s off
f 1/1/1 2/2/1 3/3/1
f 1/1/1 3/3/1 4/4/1
f 5/1/1 1/2/1 4/3/1
f 5/1/1 4/3/1 6/4/1
f 7/1/1 5/2/1 6/3/1
f 7/1/1 6/3/1 8/4/1
f 9/1/1 7/2/1 8/3/1
f 9/1/1 8/3/1 10/4/1
f 11/1/1 9/2/1 10/3/1
f 11/1/1 10/3/1 12/4/1
f 13/1/1 11/2/1 12/3/1
f 13/1/1 12/3/1 14/4/1
f 4/1/1 3/2/1 15/3/1
f 4/1/1 15/3/1 16/4/1
f 6/1/1 4/2/1 16/3/1
f 6/1/1 16/3/1 17/4/1
f 8/1/1 6/2/1 17/3/1
f 8/1/1 17/3/1 18/4/1
f 10/1/1 8/2/1 18/3/1
f 10/1/1 18/3/1 19/4/1
f 12/1/1 10/2/1 19/3/1
f 12/1/1 19/3/1 20/4/1
f 14/1/1 12/2/1 20/3/1
f 14/1/1 20/3/1 21/4/1
f 16/1/1 15/2/1 22/3/1
f 16/1/1 22/3/1 23/4/1
f 17/1/1 16/2/1 23/3/1
f 17/1/1 23/3/1 24/4/1
f 18/1/1 17/2/1 24/3/1
f 18/1/1 24/3/1 25/4/1
f 19/1/1 18/2/1 25/3/1
f 19/1/1 25/3/1 26/4/1
f 20/1/1 19/2/1 26/3/1
f 20/1/1 26/3/1 27/4/1
f 21/1/1 20/2/1 27/3/1
f 21/1/1 27/3/1 28/4/1
f 23/1/1 22/2/1 29/3/1
f 23/1/1 29/3/1 30/4/1
f 24/1/1 23/2/1 30/3/1
f 24/1/1 30/3/1 31/4/1
f 25/1/1 24/2/1 31/3/1
f 25/1/1 31/3/1 32/4/1
f 26/1/1 25/2/1 32/3/1
f 26/1/1 32/3/1 33/4/1
f 27/1/1 26/2/1 33/3/1
f 27/1/1 33/3/1 34/4/1
f 28/1/1 27/2/1 34/3/1
f 28/1/1 34/3/1 35/4/1
f 30/1/1 29/2/1 36/3/1
f 30/1/1 36/3/1 37/4/1
f 31/1/1 30/2/1 37/3/1
f 31/1/1 37/3/1 38/4/1
f 32/1/1 31/2/1 38/3/1
f 32/1/1 38/3/1 39/4/1
f 33/1/1 32/2/1 39/3/1
f 33/1/1 39/3/1 40/4/1
f 34/1/1 33/2/1 40/3/1
f 34/1/1 40/3/1 41/4/1
f 35/1/1 34/2/1 41/3/1
f 35/1/1 41/3/1 42/4/1
f 37/3/1 36/4/1 43/1/1
f 37/3/1 43/1/1 44/2/1
f 38/1/1 37/2/1 44/3/1
f 38/1/1 44/3/1 45/4/1
f 39/1/1 38/2/1 45/3/1
f 39/1/1 45/3/1 46/4/1
f 40/1/1 39/2/1 46/3/1
f 40/1/1 46/3/1 47/4/1
f 41/1/1 40/2/1 47/3/1
f 41/1/1 47/3/1 48/4/1
f 42/1/1 41/2/1 48/3/1
f 42/1/1 48/3/1 49/4/1
