# Blender v2.73 (sub 0) OBJ File: 'block_fort_2.blend'
# www.blender.org
v -2.940250 3.875000 1.545000
v -3.067500 3.875000 1.417750
v -2.940250 4.002250 1.417750
v -2.988947 3.875000 1.535314
v -3.030230 3.875000 1.507729
v -2.940250 3.923697 1.535314
v -2.991452 3.926201 1.525455
v -3.031178 3.927111 1.508678
v -3.020589 3.955338 1.498089
v -3.057814 3.923697 1.417750
v -3.030230 3.964979 1.417750
v -3.057814 3.875000 1.466447
v -3.047956 3.926201 1.468952
v -3.031178 3.965928 1.469861
v -2.940250 3.992564 1.466447
v -2.940250 3.964979 1.507729
v -2.988947 3.992564 1.417750
v -2.991452 3.982705 1.468952
v -2.992361 3.965928 1.508678
v 1.567500 3.875000 1.417750
v 1.440250 3.875000 1.545000
v 1.440250 4.002250 1.417750
v 1.557814 3.875000 1.466447
v 1.530230 3.875000 1.507729
v 1.557814 3.923697 1.417750
v 1.547956 3.926201 1.468952
v 1.531178 3.927111 1.508678
v 1.520589 3.955338 1.498089
v 1.440250 3.923697 1.535314
v 1.440250 3.964979 1.507729
v 1.488947 3.875000 1.535314
v 1.491452 3.926201 1.525455
v 1.492361 3.965928 1.508678
v 1.488947 3.992564 1.417750
v 1.530230 3.964979 1.417750
v 1.440250 3.992564 1.466447
v 1.491452 3.982705 1.468952
v 1.531178 3.965928 1.469861
v -2.940250 4.002250 -1.417750
v -3.067500 3.875000 -1.417750
v -2.940250 3.875000 -1.545000
v -2.988947 3.992564 -1.417750
v -3.030230 3.964979 -1.417750
v -2.940250 3.992564 -1.466447
v -2.991452 3.982705 -1.468952
v -3.031178 3.965928 -1.469861
v -3.020589 3.955338 -1.498089
v -3.057814 3.875000 -1.466447
v -3.030230 3.875000 -1.507729
v -3.057814 3.923697 -1.417750
v -3.047956 3.926201 -1.468952
v -3.031178 3.927111 -1.508678
v -2.940250 3.923697 -1.535314
v -2.940250 3.964979 -1.507729
v -2.988947 3.875000 -1.535314
v -2.991452 3.926201 -1.525455
v -2.992361 3.965928 -1.508678
v 1.440250 3.875000 -1.545000
v 1.567500 3.875000 -1.417750
v 1.440250 4.002250 -1.417750
v 1.488947 3.875000 -1.535314
v 1.530230 3.875000 -1.507729
v 1.440250 3.923697 -1.535314
v 1.491452 3.926201 -1.525455
v 1.531178 3.927111 -1.508678
v 1.520589 3.955338 -1.498089
v 1.557814 3.923697 -1.417750
v 1.530230 3.964979 -1.417750
v 1.557814 3.875000 -1.466447
v 1.547956 3.926201 -1.468952
v 1.531178 3.965928 -1.469861
v 1.440250 3.992564 -1.466447
v 1.440250 3.964979 -1.507729
v 1.488947 3.992564 -1.417750
v 1.491452 3.982705 -1.468952
v 1.492361 3.965928 -1.508678
v -3.067500 3.747750 1.417750
v -2.940250 3.747750 1.545000
v -3.057814 3.747750 1.466447
v -3.030230 3.747750 1.507729
v -2.988947 3.747750 1.535314
v 1.440250 3.747750 1.545000
v 1.567500 3.747750 1.417750
v 1.488947 3.747750 1.535314
v 1.530230 3.747750 1.507729
v 1.557814 3.747750 1.466447
v -2.940250 3.747750 -1.545000
v -3.067500 3.747750 -1.417750
v -2.988947 3.747750 -1.535314
v -3.030230 3.747750 -1.507729
v -3.057814 3.747750 -1.466447
v 1.567500 3.747750 -1.417750
v 1.440250 3.747750 -1.545000
v 1.557814 3.747750 -1.466447
v 1.530230 3.747750 -1.507729
v 1.488947 3.747750 -1.535314
vt 0.939989 0.006879
vt 0.045539 0.007327
vt 0.068546 0.042824
vt 0.056369 0.993121
vt 0.950820 0.992673
vt 0.927814 0.957176
vt 1.002710 0.932632
vt 0.987708 0.068565
vt 0.953319 0.091872
vt -0.006351 0.067368
vt 0.008651 0.931436
vt 0.043040 0.908128
vt 0.909220 0.059750
vt 0.921218 0.067419
vt 0.927769 0.053336
vt 0.928917 0.074637
vt 0.938148 0.064421
vt 0.905991 0.074923
vt 0.917841 0.078080
vt 0.924178 0.079986
vt 0.946643 0.077101
vt 0.934717 0.083662
vt 0.940537 0.097059
vt 0.925757 0.087313
vt 0.928375 0.100537
vt 0.916551 0.102706
vt 0.916656 0.088777
vt 0.904564 0.089537
vt 0.043353 0.097169
vt 0.048987 0.083497
vt 0.036828 0.077112
vt 0.054728 0.074297
vt 0.045301 0.064093
vt 0.055580 0.100335
vt 0.058047 0.086991
vt 0.059547 0.079604
vt 0.055741 0.052791
vt 0.062412 0.066929
vt 0.074399 0.059123
vt 0.065892 0.077598
vt 0.077711 0.074317
vt 0.079263 0.088765
vt 0.067193 0.088275
vt 0.067536 0.102197
vt 0.917096 0.911235
vt 0.929166 0.911725
vt 0.928823 0.897803
vt 0.938312 0.913009
vt 0.940779 0.899665
vt 0.918649 0.925683
vt 0.930467 0.922402
vt 0.936812 0.920396
vt 0.953006 0.902831
vt 0.947372 0.916503
vt 0.959531 0.922888
vt 0.941632 0.925703
vt 0.951058 0.935907
vt 0.940619 0.947209
vt 0.933947 0.933071
vt 0.921960 0.940877
vt 0.087139 0.940250
vt 0.075141 0.932581
vt 0.068590 0.946664
vt 0.067442 0.925363
vt 0.058211 0.935579
vt 0.090368 0.925077
vt 0.078518 0.921920
vt 0.072181 0.920014
vt 0.049716 0.922899
vt 0.061643 0.916338
vt 0.055822 0.902941
vt 0.070602 0.912687
vt 0.067985 0.899463
vt 0.079808 0.897294
vt 0.079703 0.911224
vt 0.091795 0.910463
vt 0.904587 0.103882
vt 0.966056 0.907709
vt 0.079440 0.103032
vt 0.915071 0.043337
vt 0.091772 0.896118
vt 0.030303 0.092291
vt 0.916919 0.896968
vt 0.081288 0.956663
vt 0.017790 0.949478
vt 0.029012 0.966252
vt 0.042015 0.980852
vt 0.992481 0.951031
vt 0.980235 0.967372
vt 0.966120 0.981361
vt 0.030239 0.018639
vt 0.016124 0.032628
vt 0.003878 0.048969
vt 0.978569 0.050522
vt 0.967347 0.033748
vt 0.954344 0.019148
vn -0.098000 0.000000 0.995200
vn 0.098000 0.000000 0.995200
vn 0.097000 0.097000 0.990500
vn 0.098000 0.000000 -0.995200
vn -0.098000 0.000000 -0.995200
vn -0.097000 0.097000 -0.990500
vn -0.995200 0.000000 -0.098000
vn -0.995200 0.000000 0.098000
vn -0.990500 0.097000 0.097000
vn 0.995200 0.000000 0.098000
vn 0.995200 0.000000 -0.098000
vn 0.990500 0.097000 -0.097000
vn -0.081100 0.373200 0.924200
vn -0.279000 0.279000 0.918800
vn -0.373200 0.081100 0.924200
vn -0.689800 0.219500 0.689800
vn -0.706700 0.032700 0.706700
vn -0.032700 0.706700 0.706700
vn -0.219500 0.689800 0.689800
vn -0.577300 0.577300 0.577300
vn -0.924200 0.081100 0.373200
vn -0.918800 0.279100 0.279100
vn -0.924200 0.373200 0.081100
vn -0.689800 0.689800 0.219500
vn -0.706700 0.706700 0.032700
vn -0.373200 0.924200 0.081100
vn -0.279000 0.918800 0.279100
vn -0.081100 0.924200 0.373200
vn 0.924200 0.373200 0.081100
vn 0.918800 0.279000 0.279100
vn 0.924200 0.081100 0.373200
vn 0.689800 0.219500 0.689800
vn 0.706700 0.032700 0.706700
vn 0.706700 0.706700 0.032700
vn 0.689800 0.689800 0.219500
vn 0.577300 0.577300 0.577300
vn 0.373200 0.081100 0.924200
vn 0.279000 0.279000 0.918800
vn 0.081100 0.373200 0.924200
vn 0.219500 0.689800 0.689800
vn 0.032700 0.706700 0.706700
vn 0.081100 0.924200 0.373200
vn 0.279000 0.918800 0.279100
vn 0.373200 0.924200 0.081100
vn -0.081100 0.924200 -0.373200
vn -0.279000 0.918800 -0.279100
vn -0.373200 0.924200 -0.081100
vn -0.689800 0.689800 -0.219500
vn -0.706700 0.706700 -0.032700
vn -0.032700 0.706700 -0.706700
vn -0.219500 0.689800 -0.689800
vn -0.577300 0.577300 -0.577300
vn -0.924200 0.373200 -0.081100
vn -0.918800 0.279000 -0.279100
vn -0.924200 0.081100 -0.373200
vn -0.689800 0.219500 -0.689800
vn -0.706700 0.032700 -0.706700
vn -0.373200 0.081100 -0.924200
vn -0.279000 0.279000 -0.918800
vn -0.081100 0.373200 -0.924200
vn 0.081100 0.373200 -0.924200
vn 0.279000 0.279000 -0.918800
vn 0.373200 0.081100 -0.924200
vn 0.689800 0.219500 -0.689900
vn 0.706700 0.032700 -0.706700
vn 0.032700 0.706700 -0.706700
vn 0.219500 0.689800 -0.689800
vn 0.577300 0.577300 -0.577300
vn 0.924200 0.081100 -0.373200
vn 0.918800 0.279100 -0.279100
vn 0.924200 0.373200 -0.081100
vn 0.689800 0.689800 -0.219500
vn 0.706700 0.706700 -0.032700
vn 0.373200 0.924200 -0.081100
vn 0.279000 0.918800 -0.279100
vn 0.081100 0.924200 -0.373200
vn -0.097000 0.990500 0.097000
vn -0.990500 0.097000 -0.097000
vn 0.097000 0.990500 0.097000
vn -0.097000 0.097000 0.990500
vn 0.097000 0.990500 -0.097000
vn 0.990500 0.097000 0.097000
vn -0.097000 0.990500 -0.097000
vn 0.097000 0.097000 -0.990500
vn 0.923900 0.000000 -0.382700
vn 0.707100 0.000000 -0.707100
vn 0.382700 0.000000 -0.923900
vn -0.923900 0.000000 -0.382700
vn -0.707100 0.000000 -0.707100
vn -0.382700 0.000000 -0.923900
vn 0.382700 0.000000 0.923900
vn 0.707100 0.000000 0.707100
vn 0.923900 0.000000 0.382700
vn -0.923900 0.000000 0.382700
vn -0.707100 0.000000 0.707100
vn -0.382700 0.000000 0.923900
s 1
f 78/1/1 82/2/2 21/3/3
f 93/4/4 87/5/5 41/6/6
f 88/7/7 77/8/8 2/9/9
f 83/10/10 92/11/11 59/12/12
f 6/13/13 7/14/14 4/15/15
f 7/14/14 8/16/16 5/17/17
f 16/18/18 19/19/19 7/14/14
f 7/14/14 19/19/19 9/20/20
f 12/21/21 13/22/22 10/23/23
f 13/22/22 14/24/24 11/25/25
f 5/17/17 8/16/16 13/22/22
f 13/22/22 8/16/16 9/20/20
f 17/26/26 18/27/27 15/28/28
f 18/27/27 19/19/19 16/18/18
f 11/25/25 14/24/24 18/27/27
f 18/27/27 14/24/24 9/20/20
f 25/29/29 26/30/30 23/31/31
f 26/30/30 27/32/32 24/33/33
f 35/34/34 38/35/35 26/30/30
f 26/30/30 38/35/35 28/36/36
f 31/37/37 32/38/38 29/39/39
f 32/38/38 33/40/40 30/41/41
f 24/33/33 27/32/32 32/38/38
f 32/38/38 27/32/32 28/36/36
f 36/42/42 37/43/43 34/44/44
f 37/43/43 38/35/35 35/34/34
f 30/41/41 33/40/40 37/43/43
f 37/43/43 33/40/40 28/36/36
f 44/45/45 45/46/46 42/47/47
f 45/46/46 46/48/48 43/49/49
f 54/50/50 57/51/51 45/46/46
f 45/46/46 57/51/51 47/52/52
f 50/53/53 51/54/54 48/55/55
f 51/54/54 52/56/56 49/57/57
f 43/49/49 46/48/48 51/54/54
f 51/54/54 46/48/48 47/52/52
f 55/58/58 56/59/59 53/60/60
f 56/59/59 57/51/51 54/50/50
f 49/57/57 52/56/56 56/59/59
f 56/59/59 52/56/56 47/52/52
f 63/61/61 64/62/62 61/63/63
f 64/62/62 65/64/64 62/65/65
f 73/66/66 76/67/67 64/62/62
f 64/62/62 76/67/67 66/68/68
f 69/69/69 70/70/70 67/71/71
f 70/70/70 71/72/72 68/73/73
f 62/65/65 65/64/64 70/70/70
f 70/70/70 65/64/64 66/68/68
f 74/74/74 75/75/75 72/76/76
f 75/75/75 76/67/67 73/66/66
f 68/73/73 71/72/72 75/75/75
f 75/75/75 71/72/72 66/68/68
f 42/47/47 17/26/26 3/77/77
f 43/49/49 11/25/25 17/26/26
f 50/53/53 10/23/23 11/25/25
f 50/53/53 40/78/78 2/9/9
f 15/28/28 36/42/42 22/79/79
f 16/18/18 30/41/41 36/42/42
f 6/13/13 29/39/39 30/41/41
f 1/80/80 21/3/3 29/39/39
f 34/44/44 74/74/74 60/81/81
f 35/34/34 68/73/73 74/74/74
f 25/29/29 67/71/71 68/73/73
f 25/29/29 20/82/82 59/12/12
f 72/76/76 44/45/45 39/83/83
f 73/66/66 54/50/50 44/45/45
f 63/61/61 53/60/60 54/50/50
f 58/84/84 41/6/6 53/60/60
f 94/85/85 69/69/69 59/12/12
f 95/86/86 62/65/65 69/69/69
f 96/87/87 61/63/63 62/65/65
f 93/4/4 58/84/84 61/63/63
f 48/55/55 91/88/88 88/7/7
f 49/57/57 90/89/89 91/88/88
f 55/58/58 89/90/90 90/89/89
f 41/6/6 87/5/5 89/90/90
f 84/91/91 31/37/37 21/3/3
f 85/92/92 24/33/33 31/37/37
f 86/93/93 23/31/31 24/33/33
f 83/10/10 20/82/82 23/31/31
f 79/94/94 12/21/21 2/9/9
f 80/95/95 5/17/17 12/21/21
f 81/96/96 4/15/15 5/17/17
f 78/1/1 1/80/80 4/15/15
f 22/79/79 60/81/81 39/83/83
f 1/80/80 78/1/1 21/3/3
f 58/84/84 93/4/4 41/6/6
f 40/78/78 88/7/7 2/9/9
f 20/82/82 83/10/10 59/12/12
f 1/80/80 6/13/13 4/15/15
f 4/15/15 7/14/14 5/17/17
f 6/13/13 16/18/18 7/14/14
f 8/16/16 7/14/14 9/20/20
f 2/9/9 12/21/21 10/23/23
f 10/23/23 13/22/22 11/25/25
f 12/21/21 5/17/17 13/22/22
f 14/24/24 13/22/22 9/20/20
f 3/77/77 17/26/26 15/28/28
f 15/28/28 18/27/27 16/18/18
f 17/26/26 11/25/25 18/27/27
f 19/19/19 18/27/27 9/20/20
f 20/82/82 25/29/29 23/31/31
f 23/31/31 26/30/30 24/33/33
f 25/29/29 35/34/34 26/30/30
f 27/32/32 26/30/30 28/36/36
f 21/3/3 31/37/37 29/39/39
f 29/39/39 32/38/38 30/41/41
f 31/37/37 24/33/33 32/38/38
f 33/40/40 32/38/38 28/36/36
f 22/79/79 36/42/42 34/44/44
f 34/44/44 37/43/43 35/34/34
f 36/42/42 30/41/41 37/43/43
f 38/35/35 37/43/43 28/36/36
f 39/83/83 44/45/45 42/47/47
f 42/47/47 45/46/46 43/49/49
f 44/45/45 54/50/50 45/46/46
f 46/48/48 45/46/46 47/52/52
f 40/78/78 50/53/53 48/55/55
f 48/55/55 51/54/54 49/57/57
f 50/53/53 43/49/49 51/54/54
f 52/56/56 51/54/54 47/52/52
f 41/6/6 55/58/58 53/60/60
f 53/60/60 56/59/59 54/50/50
f 55/58/58 49/57/57 56/59/59
f 57/51/51 56/59/59 47/52/52
f 58/84/84 63/61/61 61/63/63
f 61/63/63 64/62/62 62/65/65
f 63/61/61 73/66/66 64/62/62
f 65/64/64 64/62/62 66/68/68
f 59/12/12 69/69/69 67/71/71
f 67/71/71 70/70/70 68/73/73
f 69/69/69 62/65/65 70/70/70
f 71/72/72 70/70/70 66/68/68
f 60/81/81 74/74/74 72/76/76
f 72/76/76 75/75/75 73/66/66
f 74/74/74 68/73/73 75/75/75
f 76/67/67 75/75/75 66/68/68
f 39/83/83 42/47/47 3/77/77
f 42/47/47 43/49/49 17/26/26
f 43/49/49 50/53/53 11/25/25
f 10/23/23 50/53/53 2/9/9
f 3/77/77 15/28/28 22/79/79
f 15/28/28 16/18/18 36/42/42
f 16/18/18 6/13/13 30/41/41
f 6/13/13 1/80/80 29/39/39
f 22/79/79 34/44/44 60/81/81
f 34/44/44 35/34/34 74/74/74
f 35/34/34 25/29/29 68/73/73
f 67/71/71 25/29/29 59/12/12
f 60/81/81 72/76/76 39/83/83
f 72/76/76 73/66/66 44/45/45
f 73/66/66 63/61/61 54/50/50
f 63/61/61 58/84/84 53/60/60
f 92/11/11 94/85/85 59/12/12
f 94/85/85 95/86/86 69/69/69
f 95/86/86 96/87/87 62/65/65
f 96/87/87 93/4/4 61/63/63
f 40/78/78 48/55/55 88/7/7
f 48/55/55 49/57/57 91/88/88
f 49/57/57 55/58/58 90/89/89
f 55/58/58 41/6/6 89/90/90
f 82/2/2 84/91/91 21/3/3
f 84/91/91 85/92/92 31/37/37
f 85/92/92 86/93/93 24/33/33
f 86/93/93 83/10/10 23/31/31
f 77/8/8 79/94/94 2/9/9
f 79/94/94 80/95/95 12/21/21
f 80/95/95 81/96/96 5/17/17
f 81/96/96 78/1/1 4/15/15
f 3/77/77 22/79/79 39/83/83
