# Blender v2.73 (sub 0) OBJ File: 'block_fort_2.blend'
# www.blender.org
v -2.940250 3.875000 1.545000
v -3.067500 3.875000 1.417750
v -2.940250 4.002250 1.417750
v -2.988947 3.875000 1.535314
v -3.030230 3.875000 1.507729
v -2.940250 3.923697 1.535314
v -2.991452 3.926201 1.525455
v -3.031178 3.927111 1.508678
v -3.020589 3.955338 1.498089
v -3.057814 3.923697 1.417750
v -3.030230 3.964979 1.417750
v -3.057814 3.875000 1.466447
v -3.047956 3.926201 1.468952
v -3.031178 3.965928 1.469861
v -2.940250 3.992564 1.466447
v -2.940250 3.964979 1.507729
v -2.988947 3.992564 1.417750
v -2.991452 3.982705 1.468952
v -2.992361 3.965928 1.508678
v 1.567500 3.875000 1.417750
v 1.440250 3.875000 1.545000
v 1.440250 4.002250 1.417750
v 1.557814 3.875000 1.466447
v 1.530230 3.875000 1.507729
v 1.557814 3.923697 1.417750
v 1.547956 3.926201 1.468952
v 1.531178 3.927111 1.508678
v 1.520589 3.955338 1.498089
v 1.440250 3.923697 1.535314
v 1.440250 3.964979 1.507729
v 1.488947 3.875000 1.535314
v 1.491452 3.926201 1.525455
v 1.492361 3.965928 1.508678
v 1.488947 3.992564 1.417750
v 1.530230 3.964979 1.417750
v 1.440250 3.992564 1.466447
v 1.491452 3.982705 1.468952
v 1.531178 3.965928 1.469861
v -2.940250 4.002250 -1.417750
v -3.067500 3.875000 -1.417750
v -2.940250 3.875000 -1.545000
v -2.988947 3.992564 -1.417750
v -3.030230 3.964979 -1.417750
v -2.940250 3.992564 -1.466447
v -2.991452 3.982705 -1.468952
v -3.031178 3.965928 -1.469861
v -3.020589 3.955338 -1.498089
v -3.057814 3.875000 -1.466447
v -3.030230 3.875000 -1.507729
v -3.057814 3.923697 -1.417750
v -3.047956 3.926201 -1.468952
v -3.031178 3.927111 -1.508678
v -2.940250 3.923697 -1.535314
v -2.940250 3.964979 -1.507729
v -2.988947 3.875000 -1.535314
v -2.991452 3.926201 -1.525455
v -2.992361 3.965928 -1.508678
v 1.440250 3.875000 -1.545000
v 1.567500 3.875000 -1.417750
v 1.440250 4.002250 -1.417750
v 1.488947 3.875000 -1.535314
v 1.530230 3.875000 -1.507729
v 1.440250 3.923697 -1.535314
v 1.491452 3.926201 -1.525455
v 1.531178 3.927111 -1.508678
v 1.520589 3.955338 -1.498089
v 1.557814 3.923697 -1.417750
v 1.530230 3.964979 -1.417750
v 1.557814 3.875000 -1.466447
v 1.547956 3.926201 -1.468952
v 1.531178 3.965928 -1.469861
v 1.440250 3.992564 -1.466447
v 1.440250 3.964979 -1.507729
v 1.488947 3.992564 -1.417750
v 1.491452 3.982705 -1.468952
v 1.492361 3.965928 -1.508678
v -3.067500 3.747750 1.417750
v -2.940250 3.747750 1.545000
v -3.057814 3.747750 1.466447
v -3.030230 3.747750 1.507729
v -2.988947 3.747750 1.535314
v 1.440250 3.747750 1.545000
v 1.567500 3.747750 1.417750
v 1.488947 3.747750 1.535314
v 1.530230 3.747750 1.507729
v 1.557814 3.747750 1.466447
v -2.940250 3.747750 -1.545000
v -3.067500 3.747750 -1.417750
v -2.988947 3.747750 -1.535314
v -3.030230 3.747750 -1.507729
v -3.057814 3.747750 -1.466447
v 1.567500 3.747750 -1.417750
v 1.440250 3.747750 -1.545000
v 1.557814 3.747750 -1.466447
v 1.530230 3.747750 -1.507729
v 1.488947 3.747750 -1.535314
vt 0.491752 0.990000
vt 0.208238 0.990000
vt 0.208238 0.495005
vt 0.991754 0.990000
vt 0.708226 0.990000
vt 0.708226 0.495005
vt 0.691753 0.990000
vt 0.508224 0.990000
vt 0.508224 0.495005
vt 0.191766 0.990000
vt 0.008246 0.989999
vt 0.008246 0.495005
vt 0.491752 0.305579
vt 0.495066 0.295835
vt 0.494904 0.495005
vt 0.497637 0.292296
vt 0.499988 0.495005
vt 0.491752 0.144991
vt 0.495125 0.141301
vt 0.496952 0.182494
vt 0.505072 0.495005
vt 0.504910 0.295835
vt 0.508224 0.305579
vt 0.504851 0.141301
vt 0.508224 0.144991
vt 0.502339 0.292296
vt 0.503024 0.182494
vt 0.006556 0.062803
vt 0.191766 0.305579
vt 0.195080 0.295835
vt 0.194918 0.495005
vt 0.197651 0.292296
vt 0.200002 0.495005
vt 0.191766 0.144991
vt 0.195139 0.141301
vt 0.196966 0.182494
vt 0.205086 0.495005
vt 0.204924 0.295835
vt 0.208238 0.305579
vt 0.204865 0.141301
vt 0.208238 0.144991
vt 0.202353 0.292296
vt 0.203038 0.182494
vt 0.006137 0.062796
vt 0.006551 0.063196
vt 0.691753 0.305579
vt 0.695067 0.295835
vt 0.694905 0.495005
vt 0.697639 0.292296
vt 0.699990 0.495005
vt 0.691753 0.144991
vt 0.695126 0.141301
vt 0.696953 0.182494
vt 0.705074 0.495005
vt 0.704912 0.295835
vt 0.708226 0.305579
vt 0.704853 0.141301
vt 0.708226 0.144991
vt 0.702340 0.292296
vt 0.703026 0.182494
vt 0.991754 0.305579
vt 0.995068 0.295834
vt 0.994906 0.495005
vt 0.997639 0.292296
vt 0.997578 0.495005
vt 0.991754 0.144991
vt 0.995127 0.141300
vt 0.996954 0.182494
vt 0.005094 0.495005
vt 0.004932 0.295834
vt 0.008246 0.305579
vt 0.004873 0.141300
vt 0.008246 0.144991
vt 0.002422 0.495005
vt 0.002361 0.292296
vt 0.003046 0.182494
vt 0.006133 0.063189
vt 0.691753 0.495005
vt 0.491752 0.495005
vt 0.191766 0.495005
vt 0.991754 0.495005
vt 0.005094 0.989999
vt 0.002422 0.989999
vt 0.994906 0.990000
vt 0.694905 0.990000
vt 0.699990 0.990000
vt 0.705074 0.990000
vt 0.205086 0.990000
vt 0.200002 0.990000
vt 0.194918 0.990000
vt 0.505072 0.990000
vt 0.499988 0.990000
vt 0.494904 0.990000
vt 0.997578 0.990000
vn -0.098000 0.000000 0.995200
vn 0.098000 0.000000 0.995200
vn 0.097000 0.097000 0.990500
vn 0.098000 0.000000 -0.995200
vn -0.098000 0.000000 -0.995200
vn -0.097000 0.097000 -0.990500
vn -0.995200 0.000000 -0.098000
vn -0.995200 0.000000 0.098000
vn -0.990500 0.097000 0.097000
vn 0.995200 0.000000 0.098000
vn 0.995200 0.000000 -0.098000
vn 0.990500 0.097000 -0.097000
vn -0.081100 0.373200 0.924200
vn -0.279000 0.279000 0.918800
vn -0.373200 0.081100 0.924200
vn -0.689800 0.219500 0.689800
vn -0.706700 0.032700 0.706700
vn -0.032700 0.706700 0.706700
vn -0.219500 0.689800 0.689800
vn -0.577300 0.577300 0.577300
vn -0.924200 0.081100 0.373200
vn -0.918800 0.279100 0.279100
vn -0.924200 0.373200 0.081100
vn -0.689800 0.689800 0.219500
vn -0.706700 0.706700 0.032700
vn -0.373200 0.924200 0.081100
vn -0.279000 0.918800 0.279100
vn -0.081100 0.924200 0.373200
vn 0.924200 0.373200 0.081100
vn 0.918800 0.279000 0.279100
vn 0.924200 0.081100 0.373200
vn 0.689800 0.219500 0.689800
vn 0.706700 0.032700 0.706700
vn 0.706700 0.706700 0.032700
vn 0.689800 0.689800 0.219500
vn 0.577300 0.577300 0.577300
vn 0.373200 0.081100 0.924200
vn 0.279000 0.279000 0.918800
vn 0.081100 0.373200 0.924200
vn 0.219500 0.689800 0.689800
vn 0.032700 0.706700 0.706700
vn 0.081100 0.924200 0.373200
vn 0.279000 0.918800 0.279100
vn 0.373200 0.924200 0.081100
vn -0.081100 0.924200 -0.373200
vn -0.279000 0.918800 -0.279100
vn -0.373200 0.924200 -0.081100
vn -0.689800 0.689800 -0.219500
vn -0.706700 0.706700 -0.032700
vn -0.032700 0.706700 -0.706700
vn -0.219500 0.689800 -0.689800
vn -0.577300 0.577300 -0.577300
vn -0.924200 0.373200 -0.081100
vn -0.918800 0.279000 -0.279100
vn -0.924200 0.081100 -0.373200
vn -0.689800 0.219500 -0.689800
vn -0.706700 0.032700 -0.706700
vn -0.373200 0.081100 -0.924200
vn -0.279000 0.279000 -0.918800
vn -0.081100 0.373200 -0.924200
vn 0.081100 0.373200 -0.924200
vn 0.279000 0.279000 -0.918800
vn 0.373200 0.081100 -0.924200
vn 0.689800 0.219500 -0.689900
vn 0.706700 0.032700 -0.706700
vn 0.032700 0.706700 -0.706700
vn 0.219500 0.689800 -0.689800
vn 0.577300 0.577300 -0.577300
vn 0.924200 0.081100 -0.373200
vn 0.918800 0.279100 -0.279100
vn 0.924200 0.373200 -0.081100
vn 0.689800 0.689800 -0.219500
vn 0.706700 0.706700 -0.032700
vn 0.373200 0.924200 -0.081100
vn 0.279000 0.918800 -0.279100
vn 0.081100 0.924200 -0.373200
vn -0.097000 0.990500 0.097000
vn -0.990500 0.097000 -0.097000
vn 0.097000 0.990500 0.097000
vn -0.097000 0.097000 0.990500
vn 0.097000 0.990500 -0.097000
vn 0.990500 0.097000 0.097000
vn -0.097000 0.990500 -0.097000
vn 0.097000 0.097000 -0.990500
vn 0.923900 0.000000 -0.382700
vn 0.707100 0.000000 -0.707100
vn 0.382700 0.000000 -0.923900
vn -0.923900 0.000000 -0.382700
vn -0.707100 0.000000 -0.707100
vn -0.382700 0.000000 -0.923900
vn 0.382700 0.000000 0.923900
vn 0.707100 0.000000 0.707100
vn 0.923900 0.000000 0.382700
vn -0.923900 0.000000 0.382700
vn -0.707100 0.000000 0.707100
vn -0.382700 0.000000 0.923900
s 1
f 78/1/1 82/2/2 21/3/3
f 93/4/4 87/5/5 41/6/6
f 88/7/7 77/8/8 2/9/9
f 83/10/10 92/11/11 59/12/12
f 6/13/13 7/14/14 4/15/15
f 7/14/14 8/16/16 5/17/17
f 16/18/18 19/19/19 7/14/14
f 7/14/14 19/19/19 9/20/20
f 12/21/21 13/22/22 10/23/23
f 13/22/22 14/24/24 11/25/25
f 5/17/17 8/26/16 13/22/22
f 13/22/22 8/26/16 9/27/20
f 17/28/26 18/28/27 15/28/28
f 18/28/27 19/28/19 16/28/18
f 11/28/25 14/28/24 18/28/27
f 18/28/27 14/28/24 9/28/20
f 25/29/29 26/30/30 23/31/31
f 26/30/30 27/32/32 24/33/33
f 35/34/34 38/35/35 26/30/30
f 26/30/30 38/35/35 28/36/36
f 31/37/37 32/38/38 29/39/39
f 32/38/38 33/40/40 30/41/41
f 24/33/33 27/42/32 32/38/38
f 32/38/38 27/42/32 28/43/36
f 36/44/42 37/44/43 34/44/44
f 37/44/43 38/44/35 35/44/34
f 30/44/41 33/44/40 37/44/43
f 37/44/43 33/44/40 28/44/36
f 44/45/45 45/45/46 42/45/47
f 45/45/46 46/45/48 43/45/49
f 54/45/50 57/45/51 45/45/46
f 45/45/46 57/45/51 47/45/52
f 50/46/53 51/47/54 48/48/55
f 51/47/54 52/49/56 49/50/57
f 43/51/49 46/52/48 51/47/54
f 51/47/54 46/52/48 47/53/52
f 55/54/58 56/55/59 53/56/60
f 56/55/59 57/57/51 54/58/50
f 49/50/57 52/59/56 56/55/59
f 56/55/59 52/59/56 47/60/52
f 63/61/61 64/62/62 61/63/63
f 64/62/62 65/64/64 62/65/65
f 73/66/66 76/67/67 64/62/62
f 64/62/62 76/67/67 66/68/68
f 69/69/69 70/70/70 67/71/71
f 70/70/70 71/72/72 68/73/73
f 62/74/65 65/75/64 70/70/70
f 70/70/70 65/75/64 66/76/68
f 74/77/74 75/77/75 72/77/76
f 75/77/75 76/77/67 73/77/66
f 68/77/73 71/77/72 75/77/75
f 75/77/75 71/77/72 66/77/68
f 42/45/47 17/28/26 3/28/77
f 43/45/49 11/28/25 17/28/26
f 50/46/53 10/23/23 11/25/25
f 50/46/53 40/78/78 2/9/9
f 15/28/28 36/44/42 22/44/79
f 16/28/18 30/44/41 36/44/42
f 6/13/13 29/39/39 30/41/41
f 1/79/80 21/3/3 29/39/39
f 34/44/44 74/77/74 60/77/81
f 35/44/34 68/77/73 74/77/74
f 25/29/29 67/71/71 68/73/73
f 25/29/29 20/80/82 59/12/12
f 72/77/76 44/45/45 39/45/83
f 73/77/66 54/45/50 44/45/45
f 63/61/61 53/56/60 54/58/50
f 58/81/84 41/6/6 53/56/60
f 94/82/85 69/69/69 59/12/12
f 95/83/86 62/74/65 69/69/69
f 96/84/87 61/63/63 62/65/65
f 93/4/4 58/81/84 61/63/63
f 48/48/55 91/85/88 88/7/7
f 49/50/57 90/86/89 91/85/88
f 55/54/58 89/87/90 90/86/89
f 41/6/6 87/5/5 89/87/90
f 84/88/91 31/37/37 21/3/3
f 85/89/92 24/33/33 31/37/37
f 86/90/93 23/31/31 24/33/33
f 83/10/10 20/80/82 23/31/31
f 79/91/94 12/21/21 2/9/9
f 80/92/95 5/17/17 12/21/21
f 81/93/96 4/15/15 5/17/17
f 78/1/1 1/79/80 4/15/15
f 22/44/79 60/77/81 39/45/83
f 1/79/80 78/1/1 21/3/3
f 58/81/84 93/4/4 41/6/6
f 40/78/78 88/7/7 2/9/9
f 20/80/82 83/10/10 59/12/12
f 1/79/80 6/13/13 4/15/15
f 4/15/15 7/14/14 5/17/17
f 6/13/13 16/18/18 7/14/14
f 8/16/16 7/14/14 9/20/20
f 2/9/9 12/21/21 10/23/23
f 10/23/23 13/22/22 11/25/25
f 12/21/21 5/17/17 13/22/22
f 14/24/24 13/22/22 9/27/20
f 3/28/77 17/28/26 15/28/28
f 15/28/28 18/28/27 16/28/18
f 17/28/26 11/28/25 18/28/27
f 19/28/19 18/28/27 9/28/20
f 20/80/82 25/29/29 23/31/31
f 23/31/31 26/30/30 24/33/33
f 25/29/29 35/34/34 26/30/30
f 27/32/32 26/30/30 28/36/36
f 21/3/3 31/37/37 29/39/39
f 29/39/39 32/38/38 30/41/41
f 31/37/37 24/33/33 32/38/38
f 33/40/40 32/38/38 28/43/36
f 22/44/79 36/44/42 34/44/44
f 34/44/44 37/44/43 35/44/34
f 36/44/42 30/44/41 37/44/43
f 38/44/35 37/44/43 28/44/36
f 39/45/83 44/45/45 42/45/47
f 42/45/47 45/45/46 43/45/49
f 44/45/45 54/45/50 45/45/46
f 46/45/48 45/45/46 47/45/52
f 40/78/78 50/46/53 48/48/55
f 48/48/55 51/47/54 49/50/57
f 50/46/53 43/51/49 51/47/54
f 52/49/56 51/47/54 47/53/52
f 41/6/6 55/54/58 53/56/60
f 53/56/60 56/55/59 54/58/50
f 55/54/58 49/50/57 56/55/59
f 57/57/51 56/55/59 47/60/52
f 58/81/84 63/61/61 61/63/63
f 61/63/63 64/62/62 62/65/65
f 63/61/61 73/66/66 64/62/62
f 65/64/64 64/62/62 66/68/68
f 59/12/12 69/69/69 67/71/71
f 67/71/71 70/70/70 68/73/73
f 69/69/69 62/74/65 70/70/70
f 71/72/72 70/70/70 66/76/68
f 60/77/81 74/77/74 72/77/76
f 72/77/76 75/77/75 73/77/66
f 74/77/74 68/77/73 75/77/75
f 76/77/67 75/77/75 66/77/68
f 39/45/83 42/45/47 3/28/77
f 42/45/47 43/45/49 17/28/26
f 43/51/49 50/46/53 11/25/25
f 10/23/23 50/46/53 2/9/9
f 3/28/77 15/28/28 22/44/79
f 15/28/28 16/28/18 36/44/42
f 16/18/18 6/13/13 30/41/41
f 6/13/13 1/79/80 29/39/39
f 22/44/79 34/44/44 60/77/81
f 34/44/44 35/44/34 74/77/74
f 35/34/34 25/29/29 68/73/73
f 67/71/71 25/29/29 59/12/12
f 60/77/81 72/77/76 39/45/83
f 72/77/76 73/77/66 44/45/45
f 73/66/66 63/61/61 54/58/50
f 63/61/61 58/81/84 53/56/60
f 92/11/11 94/82/85 59/12/12
f 94/82/85 95/83/86 69/69/69
f 95/94/86 96/84/87 62/65/65
f 96/84/87 93/4/4 61/63/63
f 40/78/78 48/48/55 88/7/7
f 48/48/55 49/50/57 91/85/88
f 49/50/57 55/54/58 90/86/89
f 55/54/58 41/6/6 89/87/90
f 82/2/2 84/88/91 21/3/3
f 84/88/91 85/89/92 31/37/37
f 85/89/92 86/90/93 24/33/33
f 86/90/93 83/10/10 23/31/31
f 77/8/8 79/91/94 2/9/9
f 79/91/94 80/92/95 12/21/21
f 80/92/95 81/93/96 5/17/17
f 81/93/96 78/1/1 4/15/15
f 3/28/77 22/44/79 39/45/83
