# Blender v2.65 (sub 0) OBJ File: ''
# www.blender.org
v -0.342010 -0.000000 -0.000000
v -0.342010 -0.000000 -1.000000
v -0.342010 -0.195090 -0.980785
v 0.342010 0.000000 0.000000
v 0.342010 -0.195092 -0.980785
v 0.342010 -0.000002 -1.000000
v -0.342010 -0.382683 -0.923879
v 0.342010 -0.382685 -0.923879
v -0.342010 -0.555570 -0.831469
v 0.342010 -0.555572 -0.831469
v -0.342010 -0.707107 -0.707107
v 0.342010 -0.707108 -0.707106
v -0.342011 -0.831469 -0.555570
v 0.342009 -0.831471 -0.555569
v -0.342011 -0.923879 -0.382683
v 0.342009 -0.923881 -0.382682
v -0.342011 -0.980785 -0.195090
v 0.342009 -0.980786 -0.195088
v -0.342011 -1.000000 -0.000000
v 0.342009 -1.000000 0.000002
v -0.342010 -0.980785 0.195090
v 0.342009 -0.980785 0.195092
v -0.342010 -0.923879 0.382683
v 0.342010 -0.923879 0.382685
v -0.342010 -0.831469 0.555570
v 0.342010 -0.831469 0.555571
v -0.342010 -0.707107 0.707107
v 0.342010 -0.707107 0.707107
v -0.342010 -0.555570 0.831470
v 0.342010 -0.555570 0.831470
v -0.342011 -0.382683 0.923880
v 0.342009 -0.382684 0.923879
v -0.342010 -0.195090 0.980786
v 0.342009 -0.195091 0.980785
v -0.342010 0.000001 1.000000
v 0.342010 -0.000001 1.000000
v -0.342010 0.195091 0.980785
v 0.342010 0.195089 0.980785
v -0.342010 0.382684 0.923880
v 0.342010 0.382682 0.923880
v -0.342010 0.555571 0.831470
v 0.342010 0.555568 0.831471
v -0.342010 0.707107 0.707107
v 0.342010 0.707105 0.707108
v -0.342009 0.831470 0.555570
v 0.342011 0.831468 0.555572
v -0.342009 0.923880 0.382683
v 0.342011 0.923878 0.382686
v -0.342009 0.980786 0.195090
v 0.342011 0.980784 0.195094
v -0.342009 1.000000 -0.000001
v 0.342011 1.000000 0.000004
v -0.342009 0.980785 -0.195091
v 0.342010 0.980786 -0.195086
v -0.342010 0.923879 -0.382684
v 0.342010 0.923881 -0.382679
v -0.342010 0.831469 -0.555571
v 0.342010 0.831472 -0.555566
v -0.342010 0.707106 -0.707107
v 0.342010 0.707111 -0.707103
v -0.342010 0.555569 -0.831470
v 0.342010 0.555575 -0.831466
v -0.342009 0.382682 -0.923880
v 0.342011 0.382689 -0.923877
v -0.342009 0.195089 -0.980785
v 0.342010 0.195097 -0.980784
vt 0.993225 0.666050
vt 0.001842 0.670449
vt -0.000454 1.002936
vt 0.990929 0.998537
vt -0.004534 0.010100
vt 0.984181 0.012018
vt 0.987304 0.340645
vt -0.001410 0.338727
vt 0.990427 0.669272
vt 0.001713 0.667355
vt 0.993550 0.997900
vt 0.004836 0.995982
vt 0.019829 0.011117
vt 0.993694 0.010630
vt 0.995547 0.326181
vt 0.019682 0.327068
vt 0.993400 0.661732
vt 0.019135 0.661419
vt 0.992853 0.992483
vt 0.017388 0.993370
vt -0.007949 0.013529
vt 0.980898 0.015335
vt 0.984303 0.339047
vt -0.004545 0.337241
vt 0.987707 0.662759
vt -0.001141 0.660953
vt 0.991111 0.986471
vt 0.002263 0.984665
vt 1.007366 0.991234
vt 0.014917 0.990616
vt 0.011345 0.660607
vt 1.003795 0.661225
vt 0.007774 0.330598
vt 1.000224 0.331216
vt 0.012286 0.000956
vt 1.004735 0.001574
vt 0.016348 -0.009829
vt 1.003491 -0.008031
vt 0.998598 0.326047
vt 0.011455 0.324250
vt 0.993704 0.660125
vt 0.006561 0.658328
vt 0.988811 0.994204
vt 0.001668 0.992406
vt 0.011958 0.000593
vt 0.999102 0.001488
vt 0.994531 0.331524
vt 0.007387 0.330629
vt 0.989960 0.661559
vt 0.002816 0.660664
vt 0.985389 0.991594
vt -0.001756 0.990700
vt 0.020411 0.011588
vt 1.007571 0.010870
vt 1.005171 0.339322
vt 0.018012 0.340039
vt 1.002772 0.667773
vt 0.015613 0.668491
vt 1.000373 0.996224
vt 0.013214 0.996942
vt 0.027240 0.011548
vt 1.014384 0.011723
vt 1.010041 0.337299
vt 0.022897 0.337125
vt 1.005698 0.662875
vt 0.018554 0.662701
vt 1.001355 0.988451
vt 0.014211 0.988277
vt 0.011187 0.022162
vt 0.998329 0.017812
vt 0.994272 0.340425
vt 0.007130 0.344775
vt 0.990215 0.663038
vt 0.003073 0.667388
vt 0.986158 0.985651
vt -0.000984 0.990001
vt 0.006504 0.664418
vt 0.997896 0.664103
vt 0.993576 0.335842
vt 0.002184 0.336158
vt 0.989256 0.007582
vt -0.002136 0.007897
vt 0.981670 0.001876
vt -0.009713 0.006276
vt -0.003935 0.338362
vt 0.987448 0.333963
vt 0.500000 0.500000
vt 0.294653 0.115822
vt 0.373548 0.083142
vt 0.500000 0.499999
vt 0.626780 0.917933
vt 0.542809 0.934636
vt 0.457302 0.066483
vt 0.705879 0.885169
vt 0.542698 0.066483
vt 0.777066 0.837603
vt 0.626452 0.083143
vt 0.837606 0.777064
vt 0.705347 0.115822
vt 0.885171 0.705876
vt 0.776351 0.163265
vt 0.917935 0.626777
vt 0.836734 0.223649
vt 0.934638 0.542806
vt 0.884177 0.294653
vt 0.934638 0.457190
vt 0.916857 0.373548
vt 0.917934 0.373220
vt 0.933517 0.457302
vt 0.885171 0.294121
vt 0.933517 0.542697
vt 0.837605 0.222934
vt 0.916857 0.626452
vt 0.777065 0.162394
vt 0.884178 0.705347
vt 0.705878 0.114829
vt 0.836735 0.776351
vt 0.626780 0.082065
vt 0.776351 0.836735
vt 0.542809 0.065362
vt 0.705347 0.884178
vt 0.457193 0.065362
vt 0.626452 0.916857
vt 0.373222 0.082065
vt 0.542698 0.933517
vt 0.294123 0.114829
vt 0.457302 0.933517
vt 0.222936 0.162394
vt 0.373547 0.916857
vt 0.162396 0.222933
vt 0.294652 0.884178
vt 0.114831 0.294120
vt 0.223649 0.836734
vt 0.082067 0.373218
vt 0.163265 0.776351
vt 0.065363 0.457189
vt 0.115822 0.705347
vt 0.065362 0.542804
vt 0.083143 0.626452
vt 0.082065 0.626776
vt 0.066483 0.542697
vt 0.114828 0.705875
vt 0.066483 0.457301
vt 0.162394 0.777062
vt 0.083143 0.373547
vt 0.222933 0.837602
vt 0.115822 0.294652
vt 0.294120 0.885168
vt 0.163266 0.223648
vt 0.373218 0.917933
vt 0.223650 0.163264
vt 0.457189 0.934636
vn 0.000000 -0.098019 -0.995185
vn -0.000000 -0.290286 -0.956940
vn -0.000001 -0.471397 -0.881921
vn -0.000001 -0.634395 -0.773009
vn 0.000001 -0.634390 -0.773013
vn 0.000000 -0.773011 -0.634393
vn -0.000001 -0.773013 -0.634390
vn -0.000001 -0.881921 -0.471397
vn -0.000002 -0.956942 -0.290280
vn -0.000000 -0.956940 -0.290286
vn -0.000001 -0.995185 -0.098014
vn 0.000000 -0.995185 -0.098018
vn -0.000000 -0.995185 0.098019
vn -0.000000 -0.995185 0.098018
vn -0.000001 -0.956940 0.290286
vn -0.000002 -0.881920 0.471399
vn -0.000001 -0.881921 0.471397
vn -0.000001 -0.773011 0.634392
vn -0.000000 -0.773013 0.634390
vn -0.000000 -0.634393 0.773011
vn -0.000001 -0.471395 0.881922
vn 0.000000 -0.471397 0.881921
vn 0.000000 -0.290286 0.956940
vn 0.000001 -0.098019 0.995185
vn -0.000001 -0.098013 0.995185
vn -0.000000 0.098019 0.995185
vn 0.000000 0.290281 0.956941
vn 0.000001 0.471395 0.881922
vn 0.000000 0.471396 0.881921
vn 0.000001 0.634393 0.773011
vn 0.000000 0.634395 0.773009
vn 0.000001 0.773009 0.634395
vn -0.000000 0.773011 0.634393
vn 0.000001 0.881920 0.471399
vn 0.000000 0.881921 0.471397
vn 0.000001 0.956940 0.290287
vn 0.000001 0.956940 0.290286
vn 0.000002 0.995184 0.098023
vn -0.000001 0.995185 0.098013
vn 0.000001 0.995185 -0.098013
vn -0.000001 0.995185 -0.098019
vn 0.000001 0.956941 -0.290282
vn -0.000001 0.956940 -0.290286
vn 0.000001 0.881923 -0.471393
vn -0.000000 0.881921 -0.471397
vn 0.000002 0.773016 -0.634386
vn -0.000002 0.773009 -0.634395
vn 0.000000 0.634395 -0.773009
vn -0.000001 0.634393 -0.773011
vn 0.000002 0.471403 -0.881918
vn -0.000000 0.471397 -0.881921
vn 0.000002 0.290292 -0.956938
vn -0.000001 0.290282 -0.956941
vn 0.000001 0.098019 -0.995185
vn -1.000000 -0.000000 0.000000
vn 1.000000 0.000000 -0.000000
vn -1.000000 0.000001 0.000000
vn 1.000000 -0.000001 0.000000
vn -1.000000 0.000001 -0.000001
vn 1.000000 -0.000001 0.000001
vn -1.000000 0.000001 0.000004
vn -1.000000 -0.000000 -0.000001
vn 1.000000 -0.000002 -0.000004
vn 1.000000 0.000000 0.000001
vn -1.000000 0.000005 0.000001
vn 1.000000 -0.000005 -0.000000
vn 1.000000 -0.000001 -0.000004
vn -1.000000 0.000002 0.000004
vn 1.000000 -0.000005 -0.000001
vn -1.000000 0.000005 0.000000
usemtl Material_tireTread.jpg
s off
f 2/1/1 6/2/1 5/3/1
f 2/1/1 5/3/1 3/4/1
f 3/5/2 5/6/2 8/7/2
f 3/5/2 8/7/2 7/8/2
f 7/8/3 8/7/3 10/9/3
f 7/8/3 10/9/3 9/10/3
f 9/10/4 10/9/4 12/11/4
f 9/10/5 12/11/5 11/12/5
f 11/13/6 12/14/6 14/15/6
f 11/13/7 14/15/7 13/16/7
f 13/16/8 14/15/8 16/17/8
f 13/16/8 16/17/8 15/18/8
f 15/18/9 16/17/9 18/19/9
f 15/18/10 18/19/10 17/20/10
f 17/21/11 18/22/11 20/23/11
f 17/21/12 20/23/12 19/24/12
f 19/24/13 20/23/13 22/25/13
f 19/24/14 22/25/14 21/26/14
f 21/26/15 22/25/15 24/27/15
f 21/26/15 24/27/15 23/28/15
f 23/29/16 24/30/16 26/31/16
f 23/29/17 26/31/17 25/32/17
f 25/32/18 26/31/18 28/33/18
f 25/32/19 28/33/19 27/34/19
f 27/34/20 28/33/20 30/35/20
f 27/34/20 30/35/20 29/36/20
f 29/37/21 30/38/21 32/39/21
f 29/37/22 32/39/22 31/40/22
f 31/40/23 32/39/23 34/41/23
f 31/40/23 34/41/23 33/42/23
f 33/42/24 34/41/24 36/43/24
f 33/42/25 36/43/25 35/44/25
f 35/45/26 36/46/26 38/47/26
f 35/45/26 38/47/26 37/48/26
f 37/48/27 38/47/27 40/49/27
f 37/48/27 40/49/27 39/50/27
f 39/50/28 40/49/28 42/51/28
f 39/50/29 42/51/29 41/52/29
f 41/53/30 42/54/30 44/55/30
f 41/53/31 44/55/31 43/56/31
f 43/56/32 44/55/32 46/57/32
f 43/56/33 46/57/33 45/58/33
f 45/58/34 46/57/34 48/59/34
f 45/58/35 48/59/35 47/60/35
f 47/61/36 48/62/36 50/63/36
f 47/61/37 50/63/37 49/64/37
f 49/64/38 50/63/38 52/65/38
f 49/64/39 52/65/39 51/66/39
f 51/66/40 52/65/40 54/67/40
f 51/66/41 54/67/41 53/68/41
f 53/69/42 54/70/42 56/71/42
f 53/69/43 56/71/43 55/72/43
f 55/72/44 56/71/44 58/73/44
f 55/72/45 58/73/45 57/74/45
f 57/74/46 58/73/46 60/75/46
f 57/74/47 60/75/47 59/76/47
f 59/77/48 60/78/48 62/79/48
f 59/77/49 62/79/49 61/80/49
f 61/80/50 62/79/50 64/81/50
f 61/80/51 64/81/51 63/82/51
f 63/83/52 64/84/52 66/85/52
f 63/83/53 66/85/53 65/86/53
usemtl Material_bmw_wheel.png
f 6/2/54 2/1/54 65/86/54
f 6/2/54 65/86/54 66/85/54
f 1/87/55 2/88/55 3/89/55
f 4/90/56 5/91/56 6/92/56
f 1/87/55 3/89/55 7/93/55
f 4/90/56 8/94/56 5/91/56
f 1/87/55 7/93/55 9/95/55
f 4/90/56 10/96/56 8/94/56
f 1/87/57 9/95/57 11/97/57
f 4/90/56 12/98/56 10/96/56
f 1/87/57 11/97/57 13/99/57
f 4/90/58 14/100/58 12/98/58
f 1/87/57 13/99/57 15/101/57
f 4/90/58 16/102/58 14/100/58
f 1/87/57 15/101/57 17/103/57
f 4/90/58 18/104/58 16/102/58
f 1/87/59 17/103/59 19/105/59
f 4/90/60 20/106/60 18/104/60
f 1/87/61 19/105/61 21/107/61
f 4/90/60 22/108/60 20/106/60
f 1/87/62 21/107/62 23/109/62
f 4/90/63 24/110/63 22/108/63
f 1/87/62 23/109/62 25/111/62
f 4/90/64 26/112/64 24/110/64
f 1/87/62 25/111/62 27/113/62
f 4/90/64 28/114/64 26/112/64
f 1/87/62 27/113/62 29/115/62
f 4/90/64 30/116/64 28/114/64
f 1/87/62 29/115/62 31/117/62
f 4/90/64 32/118/64 30/116/64
f 1/87/65 31/117/65 33/119/65
f 4/90/64 34/120/64 32/118/64
f 1/87/55 33/119/55 35/121/55
f 4/90/66 36/122/66 34/120/66
f 1/87/55 35/121/55 37/123/55
f 4/90/56 38/124/56 36/122/56
f 1/87/55 37/123/55 39/125/55
f 4/90/56 40/126/56 38/124/56
f 1/87/55 39/125/55 41/127/55
f 4/90/56 42/128/56 40/126/56
f 1/87/55 41/127/55 43/129/55
f 4/90/58 44/130/58 42/128/58
f 1/87/57 43/129/57 45/131/57
f 4/90/58 46/132/58 44/130/58
f 1/87/57 45/131/57 47/133/57
f 4/90/58 48/134/58 46/132/58
f 1/87/57 47/133/57 49/135/57
f 4/90/58 50/136/58 48/134/58
f 1/87/59 49/135/59 51/137/59
f 4/90/60 52/138/60 50/136/60
f 1/87/59 51/137/59 53/139/59
f 4/90/67 54/140/67 52/138/67
f 1/87/68 53/139/68 55/141/68
f 4/90/64 56/142/64 54/140/64
f 1/87/62 55/141/62 57/143/62
f 4/90/64 58/144/64 56/142/64
f 1/87/62 57/143/62 59/145/62
f 4/90/64 60/146/64 58/144/64
f 1/87/62 59/145/62 61/147/62
f 4/90/64 62/148/64 60/146/64
f 1/87/62 61/147/62 63/149/62
f 4/90/64 64/150/64 62/148/64
f 1/87/62 63/149/62 65/151/62
f 4/90/69 66/152/69 64/150/69
f 2/88/70 1/87/70 65/151/70
f 4/90/56 6/92/56 66/152/56
