# Blender v2.61 (sub 0) OBJ File: 'pipe.blend'
# www.blender.org
mtllib pipe.mtl
v 0.000000 0.014508 -1.000000
v 0.195090 0.014508 -0.980785
v 0.382683 0.014508 -0.923880
v 0.555570 0.014508 -0.831470
v 0.707107 0.014508 -0.707107
v 0.831470 0.014508 -0.555570
v 0.923880 0.014508 -0.382683
v 0.980785 0.014508 -0.195090
v 1.000000 0.014508 -0.000000
v 0.980785 0.014508 0.195090
v 0.923880 0.014508 0.382683
v 0.831470 0.014508 0.555570
v 0.707107 0.014508 0.707107
v 0.555570 0.014508 0.831470
v 0.382683 0.014508 0.923880
v 0.195090 0.014508 0.980785
v -0.000000 0.014508 1.000000
v -0.195091 0.014508 0.980785
v -0.382684 0.014508 0.923879
v -0.555571 0.014508 0.831469
v -0.707107 0.014508 0.707106
v -0.831470 0.014508 0.555570
v -0.923880 0.014508 0.382683
v -0.980785 0.014508 0.195089
v -1.000000 0.014508 -0.000001
v -0.980785 0.014508 -0.195091
v -0.923879 0.014508 -0.382684
v -0.831469 0.014508 -0.555571
v -0.707106 0.014508 -0.707108
v -0.555569 0.014508 -0.831470
v -0.382682 0.014508 -0.923880
v -0.195089 0.014508 -0.980786
v 0.000002 2.014508 -1.000000
v 0.195092 2.014508 -0.980785
v 0.382685 2.014508 -0.923879
v 0.555572 2.014508 -0.831469
v 0.707108 2.014508 -0.707105
v 0.831471 2.014508 -0.555569
v 0.923880 2.014508 -0.382682
v 0.980786 2.014508 -0.195088
v 1.000000 2.014508 0.000002
v 0.980785 2.014508 0.195092
v 0.923879 2.014508 0.382685
v 0.831469 2.014508 0.555571
v 0.707106 2.014508 0.707107
v 0.555570 2.014508 0.831470
v 0.382684 2.014508 0.923880
v 0.195091 2.014508 0.980785
v 0.000001 2.014508 1.000000
v -0.195089 2.014508 0.980786
v -0.382682 2.014508 0.923880
v -0.555568 2.014508 0.831471
v -0.707105 2.014508 0.707109
v -0.831468 2.014508 0.555573
v -0.923878 2.014508 0.382686
v -0.980785 2.014508 0.195094
v -1.000000 2.014508 0.000004
v -0.980786 2.014508 -0.195086
v -0.923881 2.014508 -0.382679
v -0.831473 2.014508 -0.555566
v -0.707111 2.014508 -0.707103
v -0.555575 2.014508 -0.831466
v -0.382689 2.014508 -0.923877
v -0.195097 2.014508 -0.980784
v 0.000000 0.014508 0.000000
v -0.195097 2.468957 -0.980784
v -0.382689 2.468957 -0.923877
v -0.555575 2.468957 -0.831466
v -0.707111 2.468957 -0.707103
v -0.831473 2.468957 -0.555566
v -0.923881 2.468957 -0.382679
v -0.980786 2.468957 -0.195086
v -1.000000 2.468957 0.000004
v -0.980785 2.468957 0.195094
v -0.923878 2.468957 0.382686
v -0.831468 2.468957 0.555573
v -0.707105 2.468957 0.707109
v -0.555568 2.468957 0.831471
v -0.382682 2.468957 0.923880
v -0.195089 2.468957 0.980786
v 0.000001 2.468957 1.000000
v 0.195091 2.468957 0.980785
v 0.382684 2.468957 0.923880
v 0.555570 2.468957 0.831470
v 0.707106 2.468957 0.707107
v 0.831469 2.468957 0.555571
v 0.923879 2.468957 0.382685
v 0.980785 2.468957 0.195092
v 1.000000 2.468957 0.000002
v 0.980786 2.468957 -0.195088
v 0.923880 2.468957 -0.382682
v 0.831471 2.468957 -0.555569
v 0.707108 2.468957 -0.707105
v 0.555572 2.468957 -0.831469
v 0.382685 2.468957 -0.923879
v 0.195092 2.468957 -0.980785
v 0.000002 2.468957 -1.000000
v 0.000002 2.542109 -1.321936
v 0.257899 2.542109 -1.296535
v 0.505885 2.542109 -1.221308
v 0.734430 2.542109 -1.099148
v 0.934751 2.542109 -0.934748
v 1.099151 2.542109 -0.734426
v 1.221310 2.542109 -0.505881
v 1.296535 2.542109 -0.257895
v 1.321935 2.542109 0.000002
v 1.296534 2.542109 0.257899
v 1.221308 2.542109 0.505884
v 1.099148 2.542109 0.734428
v 0.934749 2.542109 0.934749
v 0.734428 2.542109 1.099149
v 0.505883 2.542109 1.221308
v 0.257898 2.542109 1.296534
v 0.000001 2.542109 1.321935
v -0.257895 2.542109 1.296534
v -0.505881 2.542109 1.221309
v -0.734425 2.542109 1.099150
v -0.934747 2.542109 0.934751
v -1.099147 2.542109 0.734430
v -1.221307 2.542109 0.505886
v -1.296533 2.542109 0.257901
v -1.321935 2.542109 0.000005
v -1.296536 2.542109 -0.257892
v -1.221311 2.542109 -0.505877
v -1.099153 2.542109 -0.734423
v -0.934755 2.542109 -0.934745
v -0.734434 2.542109 -1.099145
v -0.505891 2.542109 -1.221306
v -0.257906 2.542109 -1.296533
v -0.257906 1.941357 -1.296533
v -0.505891 1.941357 -1.221306
v -0.734434 1.941357 -1.099145
v -0.934755 1.941357 -0.934745
v -1.099153 1.941357 -0.734423
v -1.221311 1.941357 -0.505877
v -1.296536 1.941357 -0.257892
v -1.321935 1.941357 0.000005
v -1.296533 1.941357 0.257901
v -1.221307 1.941357 0.505886
v -1.099147 1.941357 0.734430
v -0.934747 1.941357 0.934751
v -0.734425 1.941357 1.099150
v -0.505881 1.941357 1.221309
v -0.257895 1.941357 1.296534
v 0.000001 1.941357 1.321935
v 0.257898 1.941357 1.296534
v 0.505883 1.941357 1.221308
v 0.734428 1.941357 1.099149
v 0.934749 1.941357 0.934749
v 1.099148 1.941357 0.734428
v 1.221308 1.941357 0.505884
v 1.296534 1.941357 0.257899
v 1.321935 1.941357 0.000002
v 1.296535 1.941357 -0.257895
v 1.221310 1.941357 -0.505881
v 1.099151 1.941357 -0.734426
v 0.934751 1.941357 -0.934748
v 0.734430 1.941357 -1.099148
v 0.505885 1.941357 -1.221308
v 0.257899 1.941357 -1.296535
v 0.000002 1.941357 -1.321936
vt 0.500000 0.500000
vn -0.000000 -1.000000 0.000000
vn 0.098018 -0.000000 -0.995185
vn 0.290285 -0.000000 -0.956940
vn 0.471397 -0.000000 -0.881921
vn 0.634394 -0.000000 -0.773010
vn 0.773011 0.000000 -0.634393
vn 0.881922 -0.000000 -0.471396
vn 0.956941 -0.000000 -0.290284
vn 0.995185 -0.000000 -0.098016
vn 0.995185 -0.000000 0.098018
vn 0.956940 -0.000000 0.290285
vn 0.881921 -0.000000 0.471397
vn 0.773010 -0.000000 0.634394
vn 0.634393 -0.000000 0.773011
vn 0.471397 -0.000000 0.881921
vn 0.290285 -0.000000 0.956940
vn 0.098017 -0.000000 0.995185
vn -0.098017 -0.000000 0.995185
vn -0.290284 -0.000000 0.956940
vn -0.471396 -0.000000 0.881922
vn -0.634393 0.000000 0.773011
vn -0.773010 0.000000 0.634394
vn -0.881921 0.000000 0.471398
vn -0.956940 -0.000000 0.290286
vn -0.995185 -0.000000 0.098019
vn -0.995185 -0.000000 -0.098016
vn -0.956941 -0.000000 -0.290283
vn -0.881922 -0.000000 -0.471395
vn -0.773012 -0.000000 -0.634392
vn -0.634395 -0.000000 -0.773009
vn -0.471399 -0.000000 -0.881920
vn -0.290287 -0.000000 -0.956940
vn -0.098018 0.000000 -0.995185
vn -0.021819 0.974911 0.221523
vn -0.064616 0.974911 0.213010
vn -0.104931 0.974911 0.196311
vn -0.141213 0.974911 0.172068
vn -0.172069 0.974911 0.141213
vn -0.196312 0.974911 0.104930
vn -0.213011 0.974911 0.064616
vn -0.221524 0.974911 0.021818
vn -0.221524 0.974911 -0.021819
vn -0.213011 0.974911 -0.064616
vn -0.196312 0.974911 -0.104931
vn -0.172069 0.974911 -0.141213
vn -0.141213 0.974911 -0.172069
vn -0.104931 0.974911 -0.196312
vn -0.064616 0.974911 -0.213011
vn -0.021818 0.974911 -0.221524
vn 0.021818 0.974911 -0.221524
vn 0.064616 0.974911 -0.213011
vn 0.104931 0.974911 -0.196312
vn 0.141213 0.974911 -0.172069
vn 0.172069 0.974911 -0.141214
vn 0.196312 0.974911 -0.104932
vn 0.213011 0.974911 -0.064617
vn 0.221524 0.974911 -0.021819
vn 0.221524 0.974911 0.021817
vn 0.213011 0.974911 0.064615
vn 0.196312 0.974911 0.104930
vn 0.172069 0.974911 0.141212
vn 0.141214 0.974911 0.172068
vn 0.104932 0.974911 0.196311
vn 0.064617 0.974911 0.213010
vn 0.021819 0.974911 0.221523
vn 0.021819 -0.974911 0.221523
vn 0.064617 -0.974911 0.213010
vn 0.104932 -0.974911 0.196311
vn 0.141214 -0.974911 0.172068
vn 0.172069 -0.974911 0.141212
vn 0.196312 -0.974911 0.104930
vn 0.213011 -0.974911 0.064615
vn 0.221524 -0.974911 0.021817
vn 0.221524 -0.974911 -0.021819
vn 0.213011 -0.974911 -0.064617
vn 0.196312 -0.974911 -0.104932
vn 0.172069 -0.974911 -0.141214
vn 0.141213 -0.974911 -0.172069
vn 0.104931 -0.974911 -0.196312
vn 0.064616 -0.974911 -0.213011
vn 0.021818 -0.974911 -0.221524
vn -0.021818 -0.974911 -0.221524
vn -0.064616 -0.974911 -0.213011
vn -0.104931 -0.974911 -0.196312
vn -0.141213 -0.974911 -0.172069
vn -0.172069 -0.974911 -0.141213
vn -0.196312 -0.974911 -0.104931
vn -0.213011 -0.974911 -0.064616
vn -0.221524 -0.974911 -0.021819
vn -0.221524 -0.974911 0.021818
vn -0.213011 -0.974911 0.064616
vn -0.196312 -0.974911 0.104930
vn -0.172069 -0.974911 0.141213
vn -0.141213 -0.974911 0.172068
vn -0.104931 -0.974911 0.196311
vn -0.064616 -0.974911 0.213010
vn -0.021819 -0.974911 0.221523
vn -0.098020 0.000000 -0.995184
vn -0.290291 0.000000 -0.956938
vn -0.471402 0.000000 -0.881918
vn -0.634398 0.000000 -0.773007
vn -0.773014 0.000000 -0.634389
vn -0.881924 0.000000 -0.471392
vn -0.956942 0.000000 -0.290280
vn -0.995185 0.000000 -0.098013
vn -0.995184 0.000000 0.098021
vn -0.956939 0.000000 0.290288
vn -0.881920 0.000000 0.471399
vn -0.773009 0.000000 0.634396
vn -0.634392 0.000000 0.773012
vn -0.471395 0.000000 0.881922
vn -0.290283 0.000000 0.956941
vn -0.098016 0.000000 0.995185
vn 0.098018 0.000000 0.995185
vn 0.881921 0.000000 0.471398
vn 0.956940 0.000000 0.290286
vn 0.995185 0.000000 0.098019
vn 0.995185 0.000000 -0.098015
vn 0.956941 0.000000 -0.290283
vn 0.881922 0.000000 -0.471395
vn 0.773012 0.000000 -0.634392
vn 0.634395 0.000000 -0.773009
vn 0.471398 0.000000 -0.881921
vn 0.290286 0.000000 -0.956940
vn 0.098019 0.000000 -0.995185
vn -0.995185 0.000000 0.098015
vn -0.995184 0.000000 -0.098019
vn -0.956940 0.000000 -0.290286
vn -0.881921 0.000000 -0.471398
vn -0.773010 0.000000 -0.634394
vn -0.956941 0.000000 0.290283
vn -0.881922 0.000000 0.471395
vn -0.773012 0.000000 0.634392
vn -0.634395 0.000000 0.773009
vn -0.471398 0.000000 0.881920
vn -0.290286 0.000000 0.956940
vn -0.098019 0.000000 0.995185
vn 0.098020 0.000000 0.995184
vn 0.290291 0.000000 0.956938
vn 0.471402 0.000000 0.881918
vn 0.634398 0.000000 0.773007
vn 0.773014 0.000000 0.634389
vn 0.881924 0.000000 0.471392
vn 0.956942 0.000000 0.290280
vn 0.995185 0.000000 0.098013
vn 0.995184 0.000000 -0.098021
vn 0.956939 0.000000 -0.290288
vn 0.881920 0.000000 -0.471400
vn 0.773009 0.000000 -0.634395
vn 0.634392 0.000000 -0.773012
vn 0.471395 0.000000 -0.881922
vn 0.290283 0.000000 -0.956941
vn 0.098016 0.000000 -0.995185
vn -0.290285 0.000000 -0.956940
vn -0.471397 0.000000 -0.881921
vn -0.634393 0.000000 -0.773011
usemtl Material
s off
f 65/1/1 1/1/1 2/1/1
f 65/1/1 2/1/1 3/1/1
f 65/1/1 3/1/1 4/1/1
f 65/1/1 4/1/1 5/1/1
f 65/1/1 5/1/1 6/1/1
f 65/1/1 6/1/1 7/1/1
f 65/1/1 7/1/1 8/1/1
f 65/1/1 8/1/1 9/1/1
f 65/1/1 9/1/1 10/1/1
f 65/1/1 10/1/1 11/1/1
f 65/1/1 11/1/1 12/1/1
f 65/1/1 12/1/1 13/1/1
f 65/1/1 13/1/1 14/1/1
f 65/1/1 14/1/1 15/1/1
f 65/1/1 15/1/1 16/1/1
f 65/1/1 16/1/1 17/1/1
f 65/1/1 17/1/1 18/1/1
f 65/1/1 18/1/1 19/1/1
f 65/1/1 19/1/1 20/1/1
f 65/1/1 20/1/1 21/1/1
f 65/1/1 21/1/1 22/1/1
f 65/1/1 22/1/1 23/1/1
f 65/1/1 23/1/1 24/1/1
f 65/1/1 24/1/1 25/1/1
f 65/1/1 25/1/1 26/1/1
f 65/1/1 26/1/1 27/1/1
f 65/1/1 27/1/1 28/1/1
f 65/1/1 28/1/1 29/1/1
f 65/1/1 29/1/1 30/1/1
f 65/1/1 30/1/1 31/1/1
f 65/1/1 31/1/1 32/1/1
f 32/1/1 1/1/1 65/1/1
f 1/1/2 33/1/2 34/1/2
f 1/1/2 34/1/2 2/1/2
f 2/1/3 34/1/3 35/1/3
f 2/1/3 35/1/3 3/1/3
f 3/1/4 35/1/4 36/1/4
f 3/1/4 36/1/4 4/1/4
f 4/1/5 36/1/5 37/1/5
f 4/1/5 37/1/5 5/1/5
f 5/1/6 37/1/6 38/1/6
f 5/1/6 38/1/6 6/1/6
f 6/1/7 38/1/7 39/1/7
f 6/1/7 39/1/7 7/1/7
f 7/1/8 39/1/8 40/1/8
f 7/1/8 40/1/8 8/1/8
f 8/1/9 40/1/9 41/1/9
f 8/1/9 41/1/9 9/1/9
f 9/1/10 41/1/10 42/1/10
f 9/1/10 42/1/10 10/1/10
f 10/1/11 42/1/11 43/1/11
f 10/1/11 43/1/11 11/1/11
f 11/1/12 43/1/12 44/1/12
f 11/1/12 44/1/12 12/1/12
f 12/1/13 44/1/13 45/1/13
f 12/1/13 45/1/13 13/1/13
f 13/1/14 45/1/14 46/1/14
f 13/1/14 46/1/14 14/1/14
f 14/1/15 46/1/15 47/1/15
f 14/1/15 47/1/15 15/1/15
f 15/1/16 47/1/16 48/1/16
f 15/1/16 48/1/16 16/1/16
f 16/1/17 48/1/17 49/1/17
f 16/1/17 49/1/17 17/1/17
f 17/1/18 49/1/18 50/1/18
f 17/1/18 50/1/18 18/1/18
f 18/1/19 50/1/19 51/1/19
f 18/1/19 51/1/19 19/1/19
f 19/1/20 51/1/20 52/1/20
f 19/1/20 52/1/20 20/1/20
f 20/1/21 52/1/21 53/1/21
f 20/1/21 53/1/21 21/1/21
f 21/1/22 53/1/22 54/1/22
f 21/1/22 54/1/22 22/1/22
f 22/1/23 54/1/23 55/1/23
f 22/1/23 55/1/23 23/1/23
f 23/1/24 55/1/24 56/1/24
f 23/1/24 56/1/24 24/1/24
f 24/1/25 56/1/25 57/1/25
f 24/1/25 57/1/25 25/1/25
f 25/1/26 57/1/26 58/1/26
f 25/1/26 58/1/26 26/1/26
f 26/1/27 58/1/27 59/1/27
f 26/1/27 59/1/27 27/1/27
f 27/1/28 59/1/28 60/1/28
f 27/1/28 60/1/28 28/1/28
f 28/1/29 60/1/29 61/1/29
f 28/1/29 61/1/29 29/1/29
f 29/1/30 61/1/30 62/1/30
f 29/1/30 62/1/30 30/1/30
f 30/1/31 62/1/31 63/1/31
f 30/1/31 63/1/31 31/1/31
f 31/1/32 63/1/32 64/1/32
f 31/1/32 64/1/32 32/1/32
f 33/1/33 1/1/33 32/1/33
f 33/1/33 32/1/33 64/1/33
f 97/1/34 96/1/34 99/1/34
f 97/1/34 99/1/34 98/1/34
f 96/1/35 95/1/35 100/1/35
f 96/1/35 100/1/35 99/1/35
f 95/1/36 94/1/36 101/1/36
f 95/1/36 101/1/36 100/1/36
f 94/1/37 93/1/37 102/1/37
f 94/1/37 102/1/37 101/1/37
f 93/1/38 92/1/38 103/1/38
f 93/1/38 103/1/38 102/1/38
f 92/1/39 91/1/39 104/1/39
f 92/1/39 104/1/39 103/1/39
f 91/1/40 90/1/40 105/1/40
f 91/1/40 105/1/40 104/1/40
f 90/1/41 89/1/41 106/1/41
f 90/1/41 106/1/41 105/1/41
f 89/1/42 88/1/42 107/1/42
f 89/1/42 107/1/42 106/1/42
f 88/1/43 87/1/43 108/1/43
f 88/1/43 108/1/43 107/1/43
f 87/1/44 86/1/44 109/1/44
f 87/1/44 109/1/44 108/1/44
f 86/1/45 85/1/45 110/1/45
f 86/1/45 110/1/45 109/1/45
f 85/1/46 84/1/46 111/1/46
f 85/1/46 111/1/46 110/1/46
f 84/1/47 83/1/47 112/1/47
f 84/1/47 112/1/47 111/1/47
f 83/1/48 82/1/48 113/1/48
f 83/1/48 113/1/48 112/1/48
f 82/1/49 81/1/49 114/1/49
f 82/1/49 114/1/49 113/1/49
f 81/1/50 80/1/50 115/1/50
f 81/1/50 115/1/50 114/1/50
f 80/1/51 79/1/51 116/1/51
f 80/1/51 116/1/51 115/1/51
f 79/1/52 78/1/52 117/1/52
f 79/1/52 117/1/52 116/1/52
f 78/1/53 77/1/53 118/1/53
f 78/1/53 118/1/53 117/1/53
f 77/1/54 76/1/54 119/1/54
f 77/1/54 119/1/54 118/1/54
f 76/1/55 75/1/55 120/1/55
f 76/1/55 120/1/55 119/1/55
f 75/1/56 74/1/56 121/1/56
f 75/1/56 121/1/56 120/1/56
f 74/1/57 73/1/57 122/1/57
f 74/1/57 122/1/57 121/1/57
f 73/1/58 72/1/58 123/1/58
f 73/1/58 123/1/58 122/1/58
f 72/1/59 71/1/59 124/1/59
f 72/1/59 124/1/59 123/1/59
f 71/1/60 70/1/60 125/1/60
f 71/1/60 125/1/60 124/1/60
f 70/1/61 69/1/61 126/1/61
f 70/1/61 126/1/61 125/1/61
f 69/1/62 68/1/62 127/1/62
f 69/1/62 127/1/62 126/1/62
f 68/1/63 67/1/63 128/1/63
f 68/1/63 128/1/63 127/1/63
f 67/1/64 66/1/64 129/1/64
f 67/1/64 129/1/64 128/1/64
f 66/1/65 97/1/65 98/1/65
f 66/1/65 98/1/65 129/1/65
f 33/1/66 64/1/66 130/1/66
f 33/1/66 130/1/66 161/1/66
f 64/1/67 63/1/67 131/1/67
f 64/1/67 131/1/67 130/1/67
f 63/1/68 62/1/68 132/1/68
f 63/1/68 132/1/68 131/1/68
f 62/1/69 61/1/69 133/1/69
f 62/1/69 133/1/69 132/1/69
f 61/1/70 60/1/70 134/1/70
f 61/1/70 134/1/70 133/1/70
f 60/1/71 59/1/71 135/1/71
f 60/1/71 135/1/71 134/1/71
f 59/1/72 58/1/72 136/1/72
f 59/1/72 136/1/72 135/1/72
f 58/1/73 57/1/73 137/1/73
f 58/1/73 137/1/73 136/1/73
f 57/1/74 56/1/74 138/1/74
f 57/1/74 138/1/74 137/1/74
f 56/1/75 55/1/75 139/1/75
f 56/1/75 139/1/75 138/1/75
f 55/1/76 54/1/76 140/1/76
f 55/1/76 140/1/76 139/1/76
f 54/1/77 53/1/77 141/1/77
f 54/1/77 141/1/77 140/1/77
f 53/1/78 52/1/78 142/1/78
f 53/1/78 142/1/78 141/1/78
f 52/1/79 51/1/79 143/1/79
f 52/1/79 143/1/79 142/1/79
f 51/1/80 50/1/80 144/1/80
f 51/1/80 144/1/80 143/1/80
f 50/1/81 49/1/81 145/1/81
f 50/1/81 145/1/81 144/1/81
f 49/1/82 48/1/82 146/1/82
f 49/1/82 146/1/82 145/1/82
f 48/1/83 47/1/83 147/1/83
f 48/1/83 147/1/83 146/1/83
f 47/1/84 46/1/84 148/1/84
f 47/1/84 148/1/84 147/1/84
f 46/1/85 45/1/85 149/1/85
f 46/1/85 149/1/85 148/1/85
f 45/1/86 44/1/86 150/1/86
f 45/1/86 150/1/86 149/1/86
f 44/1/87 43/1/87 151/1/87
f 44/1/87 151/1/87 150/1/87
f 43/1/88 42/1/88 152/1/88
f 43/1/88 152/1/88 151/1/88
f 42/1/89 41/1/89 153/1/89
f 42/1/89 153/1/89 152/1/89
f 41/1/90 40/1/90 154/1/90
f 41/1/90 154/1/90 153/1/90
f 40/1/91 39/1/91 155/1/91
f 40/1/91 155/1/91 154/1/91
f 39/1/92 38/1/92 156/1/92
f 39/1/92 156/1/92 155/1/92
f 38/1/93 37/1/93 157/1/93
f 38/1/93 157/1/93 156/1/93
f 37/1/94 36/1/94 158/1/94
f 37/1/94 158/1/94 157/1/94
f 36/1/95 35/1/95 159/1/95
f 36/1/95 159/1/95 158/1/95
f 35/1/96 34/1/96 160/1/96
f 35/1/96 160/1/96 159/1/96
f 34/1/97 33/1/97 161/1/97
f 34/1/97 161/1/97 160/1/97
f 161/1/98 130/1/98 129/1/98
f 161/1/98 129/1/98 98/1/98
f 130/1/99 131/1/99 128/1/99
f 130/1/99 128/1/99 129/1/99
f 131/1/100 132/1/100 127/1/100
f 131/1/100 127/1/100 128/1/100
f 132/1/101 133/1/101 126/1/101
f 132/1/101 126/1/101 127/1/101
f 133/1/102 134/1/102 125/1/102
f 133/1/102 125/1/102 126/1/102
f 134/1/103 135/1/103 124/1/103
f 134/1/103 124/1/103 125/1/103
f 135/1/104 136/1/104 123/1/104
f 135/1/104 123/1/104 124/1/104
f 136/1/105 137/1/105 122/1/105
f 136/1/105 122/1/105 123/1/105
f 137/1/106 138/1/106 121/1/106
f 137/1/106 121/1/106 122/1/106
f 138/1/107 139/1/107 120/1/107
f 138/1/107 120/1/107 121/1/107
f 139/1/108 140/1/108 119/1/108
f 139/1/108 119/1/108 120/1/108
f 140/1/109 141/1/109 118/1/109
f 140/1/109 118/1/109 119/1/109
f 141/1/110 142/1/110 117/1/110
f 141/1/110 117/1/110 118/1/110
f 142/1/111 143/1/111 116/1/111
f 142/1/111 116/1/111 117/1/111
f 143/1/112 144/1/112 115/1/112
f 143/1/112 115/1/112 116/1/112
f 144/1/113 145/1/113 114/1/113
f 144/1/113 114/1/113 115/1/113
f 145/1/114 146/1/114 113/1/114
f 145/1/114 113/1/114 114/1/114
f 146/1/16 147/1/16 112/1/16
f 146/1/16 112/1/16 113/1/16
f 147/1/15 148/1/15 111/1/15
f 147/1/15 111/1/15 112/1/15
f 148/1/14 149/1/14 110/1/14
f 148/1/14 110/1/14 111/1/14
f 149/1/13 150/1/13 109/1/13
f 149/1/13 109/1/13 110/1/13
f 150/1/115 151/1/115 108/1/115
f 150/1/115 108/1/115 109/1/115
f 151/1/116 152/1/116 107/1/116
f 151/1/116 107/1/116 108/1/116
f 152/1/117 153/1/117 106/1/117
f 152/1/117 106/1/117 107/1/117
f 153/1/118 154/1/118 105/1/118
f 153/1/118 105/1/118 106/1/118
f 154/1/119 155/1/119 104/1/119
f 154/1/119 104/1/119 105/1/119
f 155/1/120 156/1/120 103/1/120
f 155/1/120 103/1/120 104/1/120
f 156/1/121 157/1/121 102/1/121
f 156/1/121 102/1/121 103/1/121
f 157/1/122 158/1/122 101/1/122
f 157/1/122 101/1/122 102/1/122
f 158/1/123 159/1/123 100/1/123
f 158/1/123 100/1/123 101/1/123
f 159/1/124 160/1/124 99/1/124
f 159/1/124 99/1/124 100/1/124
f 160/1/125 161/1/125 98/1/125
f 160/1/125 98/1/125 99/1/125
f 40/1/126 41/1/126 89/1/126
f 40/1/126 89/1/126 90/1/126
f 41/1/127 42/1/127 88/1/127
f 41/1/127 88/1/127 89/1/127
f 42/1/128 43/1/128 87/1/128
f 42/1/128 87/1/128 88/1/128
f 43/1/129 44/1/129 86/1/129
f 43/1/129 86/1/129 87/1/129
f 44/1/130 45/1/130 85/1/130
f 44/1/130 85/1/130 86/1/130
f 39/1/131 40/1/131 90/1/131
f 39/1/131 90/1/131 91/1/131
f 38/1/132 39/1/132 91/1/132
f 38/1/132 91/1/132 92/1/132
f 37/1/133 38/1/133 92/1/133
f 37/1/133 92/1/133 93/1/133
f 36/1/134 37/1/134 93/1/134
f 36/1/134 93/1/134 94/1/134
f 35/1/135 36/1/135 94/1/135
f 35/1/135 94/1/135 95/1/135
f 34/1/136 35/1/136 95/1/136
f 34/1/136 95/1/136 96/1/136
f 33/1/137 34/1/137 96/1/137
f 33/1/137 96/1/137 97/1/137
f 33/1/138 97/1/138 66/1/138
f 33/1/138 66/1/138 64/1/138
f 63/1/139 64/1/139 66/1/139
f 63/1/139 66/1/139 67/1/139
f 62/1/140 63/1/140 67/1/140
f 62/1/140 67/1/140 68/1/140
f 61/1/141 62/1/141 68/1/141
f 61/1/141 68/1/141 69/1/141
f 60/1/142 61/1/142 69/1/142
f 60/1/142 69/1/142 70/1/142
f 59/1/143 60/1/143 70/1/143
f 59/1/143 70/1/143 71/1/143
f 58/1/144 59/1/144 71/1/144
f 58/1/144 71/1/144 72/1/144
f 57/1/145 58/1/145 72/1/145
f 57/1/145 72/1/145 73/1/145
f 56/1/146 57/1/146 73/1/146
f 56/1/146 73/1/146 74/1/146
f 55/1/147 56/1/147 74/1/147
f 55/1/147 74/1/147 75/1/147
f 54/1/148 55/1/148 75/1/148
f 54/1/148 75/1/148 76/1/148
f 53/1/149 54/1/149 76/1/149
f 53/1/149 76/1/149 77/1/149
f 52/1/150 53/1/150 77/1/150
f 52/1/150 77/1/150 78/1/150
f 51/1/151 52/1/151 78/1/151
f 51/1/151 78/1/151 79/1/151
f 50/1/152 51/1/152 79/1/152
f 50/1/152 79/1/152 80/1/152
f 49/1/153 50/1/153 80/1/153
f 49/1/153 80/1/153 81/1/153
f 48/1/33 49/1/33 81/1/33
f 48/1/33 81/1/33 82/1/33
f 47/1/154 48/1/154 82/1/154
f 47/1/154 82/1/154 83/1/154
f 46/1/155 47/1/155 83/1/155
f 46/1/155 83/1/155 84/1/155
f 45/1/156 46/1/156 84/1/156
f 45/1/156 84/1/156 85/1/156
