# Blender v2.73 (sub 0) OBJ File: 'plank_flat_1.blend'
# www.blender.org
mtllib plank_1.mtl
v -3.900000 -0.200000 0.900000
v -3.900000 -0.100000 1.000000
v -4.000000 -0.100000 0.900000
v -4.000000 -0.100000 -0.900000
v -3.900000 -0.100000 -1.000000
v -3.900000 -0.200000 -0.900000
v 3.900000 -0.100000 -1.000000
v 4.000000 -0.100000 -0.900000
v 3.900000 -0.200000 -0.900000
v 4.000000 -0.100000 0.900000
v 3.900000 -0.100000 1.000000
v 3.900000 -0.200000 0.900000
v -4.000000 0.100000 0.900000
v -3.900000 0.100000 1.000000
v -3.900000 0.200000 0.900000
v -4.000000 0.100000 -0.900000
v -3.900000 0.200000 -0.900000
v -3.900000 0.100000 -1.000000
v 3.900000 0.100000 -1.000000
v 3.900000 0.200000 -0.900000
v 4.000000 0.100000 -0.900000
v 4.000000 0.100000 0.900000
v 3.900000 0.100000 1.000000
v -2.406389 -0.100000 1.000000
v -2.406389 0.100000 1.000000
v -2.406389 -0.200000 0.900000
v -2.406389 0.200000 0.900000
v 3.111826 0.100000 -0.300000
v 2.925000 0.200000 -0.300000
v 4.000000 0.100000 -0.339398
v 3.900000 0.200000 -0.339398
v 3.900000 0.200000 -0.255450
v 4.000000 0.100000 -0.255450
v -2.211115 -0.100000 0.804927
v -2.211115 0.100000 0.804927
v -2.211115 -0.200000 0.704927
v -2.211115 0.200000 0.704927
v 2.925002 0.200000 0.868877
v -2.406390 0.200000 -0.900000
v 2.924998 0.200000 -0.900000
v -2.408930 -0.200000 -0.900000
v -2.213380 -0.200000 -0.900000
v -2.213384 0.200000 -0.900000
v -2.406528 0.100000 -1.000000
v -2.213526 0.100000 -1.000000
v -2.213526 -0.100000 -1.000000
v -2.406527 -0.100000 -1.000000
v 2.924996 0.100000 -1.000000
v 2.924996 -0.100000 -1.000000
v 2.924996 -0.200000 -0.900000
v 2.925007 -0.100000 0.968877
v 2.925004 0.100000 0.968877
v 2.925007 -0.200000 0.868877
v -2.406390 0.200000 -0.300009
v 3.796714 0.200000 0.896703
v -2.211115 0.200000 -0.300001
v 4.000000 -0.100000 -0.339398
v 4.000000 -0.100000 -0.255451
v 3.900000 -0.200000 -0.297425
v -4.000000 -0.100000 -0.297423
v -3.900000 -0.200000 -0.297422
v -2.212530 -0.200000 -0.297421
v 2.924999 -0.200000 -0.297421
v -2.408080 -0.200000 -0.297422
v -3.900000 0.200000 -0.297421
v -4.000000 0.100000 -0.297421
v 3.900000 0.200000 0.799995
v 3.796713 0.100000 0.996703
v 3.796714 0.200000 -0.260169
v 3.796714 0.100000 -0.265647
v 3.796711 -0.200000 0.896703
v 3.796711 -0.100000 0.996703
v 3.796711 -0.200000 -0.900000
v 3.796712 -0.100000 -1.000000
v 3.796713 0.100000 -1.000000
v 3.796711 -0.200000 -0.297424
v 3.801273 0.100000 -0.330583
v 3.796708 0.200000 -0.900000
v 3.796709 0.200000 -0.335224
vt 1.663734 0.404989
vt 1.637722 0.407980
vt 1.633572 0.404015
vt 1.643423 0.353329
vt 1.647908 0.348909
vt 1.676688 0.352354
vt 1.590034 0.408566
vt 1.596245 0.412534
vt 1.564969 0.411788
vt 1.593663 0.463552
vt 1.590497 0.467899
vt 1.561348 0.464618
vt 1.592564 0.403845
vt 1.588392 0.408056
vt 1.561327 0.404802
vt 1.601360 0.353209
vt 1.569411 0.352253
vt 1.596495 0.349065
vt 1.639306 0.408100
vt 1.668083 0.411145
vt 1.637121 0.412359
vt 1.634292 0.463565
vt 1.640887 0.467409
vt 1.667269 0.461803
vt 1.643526 0.430951
vt 0.997360 0.120872
vt 0.997256 0.798470
vt 0.964696 0.802265
vt 0.966258 0.120353
vt 0.913709 0.803426
vt 0.903394 0.832934
vt 0.927746 0.835244
vt 0.922959 0.986916
vt 0.960974 0.833844
vt 0.985789 0.830390
vt 0.992607 0.986467
vt 1.594582 0.430869
vt 1.594782 0.370517
vt 1.678887 0.428025
vt 1.643656 0.428313
vt 0.426629 0.780860
vt 0.426869 0.804951
vt 0.395201 0.805052
vt 1.643659 0.370688
vt 1.677312 0.370775
vt 0.878057 0.802580
vt 0.471781 0.804882
vt 1.561314 0.370388
vt 0.382459 0.125392
vt 0.243099 0.124855
vt 0.259774 0.014516
vt 0.891029 0.120386
vt 0.922213 0.120151
vt 0.895333 0.986751
vt 0.635953 0.988016
vt 0.637648 0.807100
vt 0.237977 0.074078
vt 0.963805 0.986784
vt 1.678900 0.465669
vt 0.641495 0.783032
vt 0.630896 0.124054
vt 0.492903 0.015444
vt 0.493133 0.125110
vt 0.460770 0.125227
vt 0.384048 0.015223
vt 0.415882 0.015350
vt 0.414894 0.125354
vt 0.427786 0.988531
vt 0.396476 0.988579
vt 0.460978 0.015442
vt 0.472054 0.988471
vt 0.504102 0.780780
vt 0.471910 0.780771
vt 0.893460 0.013342
vt 0.924740 0.013216
vt 0.204297 0.016139
vt 0.968878 0.013583
vt 0.045255 0.784563
vt 0.260223 0.782232
vt 0.261265 0.805954
vt -0.024723 0.138405
vt 1.594737 0.428317
vt 1.561909 0.429548
vt 0.628177 0.015102
vt 0.503424 0.805272
vt 0.394597 0.781050
vt 0.503359 0.988434
vt 1.000049 0.014225
vt 0.003694 0.808177
vt 0.263425 0.988604
vt -0.049654 0.030623
vt -0.030530 0.016800
vt 0.969229 0.000937
vt 0.925113 0.000554
vt 0.893868 0.000645
vt 0.461028 0.002533
vt 0.628005 0.002310
vt 0.492875 0.002559
vt 0.260354 0.002083
vt 0.384210 0.002450
vt 0.415950 0.002471
vt 0.238614 0.013704
vt 0.225169 0.014121
vt 0.225290 0.014639
vt 0.201394 0.003839
vt 0.220573 -0.009284
vt 1.675544 0.431093
vt 0.003023 0.988351
vt 0.238574 -0.009816
vn -0.577400 -0.577300 0.577400
vn -0.577400 -0.577300 -0.577400
vn 0.577400 -0.577300 -0.577400
vn 0.577400 -0.577300 0.577400
vn -0.577400 0.577300 0.577400
vn -0.577400 0.577300 -0.577400
vn 0.577400 0.577300 -0.577400
vn 0.707100 0.000000 0.707100
vn 0.707100 0.000000 -0.707100
vn -0.707100 0.000000 -0.707100
vn 0.707100 0.707100 0.000000
vn -0.707100 0.000000 0.707100
vn -0.022600 0.706900 0.706900
vn -0.031900 0.000000 0.999500
vn 0.000000 -0.707100 0.707100
vn 0.000000 0.707100 0.707100
vn 0.706700 0.000000 0.707500
vn 1.000000 0.000000 0.000000
vn -1.000000 0.000000 0.000000
vn 0.000000 0.707100 -0.707100
vn -0.707100 -0.707100 0.000000
vn 0.577000 -0.577500 0.577500
vn 0.577000 0.577500 0.577500
vn 0.000000 0.000000 -1.000000
vn -0.707100 0.707100 0.000000
vn 0.000000 1.000000 0.000000
vn -0.022600 -0.706900 0.706900
vn 0.000000 -1.000000 0.000000
vn 0.040300 0.075200 0.996400
vn 0.000000 0.000000 1.000000
vn 0.386200 0.825000 0.412500
vn 0.000000 -0.707100 -0.707100
vn 0.045500 0.085000 -0.995300
vn 0.707100 -0.707100 0.000000
vn 0.040300 0.048200 0.998000
vn 0.045600 0.054600 -0.997500
vn 0.044300 0.048300 0.997900
vn 0.408200 0.816500 0.408200
vn 0.050000 0.054600 -0.997300
vn 0.044300 0.044300 0.998000
vn 0.050000 0.050000 -0.997500
usemtl Material.001
s off
f 1/1/1 2/2/1 3/3/1
f 4/4/2 5/5/2 6/6/2
f 7/7/3 8/8/3 9/9/3
f 10/10/4 11/11/4 12/12/4
f 13/13/5 14/14/5 15/15/5
f 16/16/6 17/17/6 18/18/6
f 19/19/7 20/20/7 21/21/7
f 22/22/8 23/23/8 11/11/8
f 19/19/9 21/21/9 8/8/9
f 16/16/10 18/18/10 5/5/10
f 67/24/11 22/22/11 33/25/11
f 14/14/12 13/13/12 3/3/12
f 38/26/13 37/27/13 35/28/13
f 52/29/14 35/28/14 34/30/14
f 26/31/15 24/32/15 2/33/15
f 25/34/16 27/35/16 15/36/16
f 25/34/17 24/32/17 34/30/17
f 10/10/18 58/37/18 33/25/18
f 3/3/19 13/13/19 66/38/19
f 31/39/11 30/40/11 21/21/11
f 45/41/20 44/42/20 39/43/20
f 3/3/21 60/44/21 61/45/21
f 26/31/22 36/46/22 34/30/22
f 35/28/23 37/27/23 27/35/23
f 47/47/24 44/42/24 45/41/24
f 65/48/25 66/38/25 13/13/25
f 40/49/26 29/50/26 79/51/26
f 53/52/27 51/53/27 34/30/27
f 1/54/28 61/55/28 64/56/28
f 79/51/29 29/50/29 28/57/29
f 14/58/30 2/33/30 24/32/30
f 67/24/31 55/59/31 23/23/31
f 36/46/28 62/60/28 63/61/28
f 73/62/32 50/63/32 49/64/32
f 78/65/20 75/66/20 48/67/20
f 44/42/20 18/68/20 17/69/20
f 74/70/24 49/64/24 48/67/24
f 5/71/24 18/68/24 44/42/24
f 49/64/32 50/63/32 42/72/32
f 46/73/24 45/41/24 48/67/24
f 71/74/27 72/75/27 51/53/27
f 28/57/33 29/50/33 69/76/33
f 68/77/14 52/29/14 51/53/14
f 37/78/26 56/79/26 54/80/26
f 37/78/26 38/81/26 29/50/26
f 58/37/18 57/82/18 30/40/18
f 57/82/18 8/8/18 21/21/18
f 58/37/34 59/83/34 57/82/34
f 9/9/34 8/8/34 57/82/34
f 12/12/34 59/83/34 58/37/34
f 53/52/28 63/61/28 76/84/28
f 42/72/32 41/85/32 47/47/32
f 56/79/26 29/50/26 40/49/26
f 54/80/26 56/79/26 43/86/26
f 36/46/28 26/31/28 64/56/28
f 41/85/32 6/87/32 5/71/32
f 48/67/20 45/41/20 43/86/20
f 61/55/28 6/87/28 41/85/28
f 63/61/28 50/63/28 73/62/28
f 64/56/28 41/85/28 42/72/28
f 60/44/21 4/4/21 6/6/21
f 62/60/28 42/72/28 50/63/28
f 52/29/13 68/77/13 55/88/13
f 60/44/19 66/38/19 16/16/19
f 54/80/26 39/43/26 17/69/26
f 27/89/26 54/80/26 65/90/26
f 17/17/25 16/16/25 66/38/25
f 69/76/26 29/50/26 38/81/26
f 69/76/26 55/91/26 67/92/26
f 68/77/13 23/93/13 55/88/13
f 11/94/14 23/93/14 68/77/14
f 12/95/27 11/94/27 72/75/27
f 7/96/24 74/70/24 75/66/24
f 71/74/28 76/84/28 59/97/28
f 9/98/32 73/62/32 74/70/32
f 59/97/28 76/84/28 73/62/28
f 78/65/26 79/51/26 31/99/26
f 20/100/20 19/101/20 75/66/20
f 31/99/35 79/51/35 77/102/35
f 28/57/26 70/103/26 77/102/26
f 70/104/36 69/76/36 32/105/36
f 77/102/26 70/103/26 33/106/26
f 10/10/8 22/22/8 11/11/8
f 7/7/9 19/19/9 8/8/9
f 4/4/10 16/16/10 5/5/10
f 32/107/11 67/24/11 33/25/11
f 2/2/12 14/14/12 3/3/12
f 52/29/13 38/26/13 35/28/13
f 51/53/14 52/29/14 34/30/14
f 1/54/15 26/31/15 2/33/15
f 14/58/16 25/34/16 15/36/16
f 35/28/17 25/34/17 34/30/17
f 22/22/18 10/10/18 33/25/18
f 60/44/19 3/3/19 66/38/19
f 20/20/11 31/39/11 21/21/11
f 43/86/20 45/41/20 39/43/20
f 1/1/21 3/3/21 61/45/21
f 24/32/22 26/31/22 34/30/22
f 25/34/23 35/28/23 27/35/23
f 46/73/24 47/47/24 45/41/24
f 15/15/25 65/48/25 13/13/25
f 78/65/26 40/49/26 79/51/26
f 36/46/27 53/52/27 34/30/27
f 26/31/28 1/54/28 64/56/28
f 77/102/37 79/51/37 28/57/37
f 25/34/30 14/58/30 24/32/30
f 22/22/38 67/24/38 23/23/38
f 53/52/28 36/46/28 63/61/28
f 74/70/32 73/62/32 49/64/32
f 40/49/20 78/65/20 48/67/20
f 39/43/20 44/42/20 17/69/20
f 75/66/24 74/70/24 48/67/24
f 47/47/24 5/71/24 44/42/24
f 46/73/32 49/64/32 42/72/32
f 49/64/24 46/73/24 48/67/24
f 53/52/27 71/74/27 51/53/27
f 70/104/39 28/57/39 69/76/39
f 72/75/14 68/77/14 51/53/14
f 27/89/26 37/78/26 54/80/26
f 56/79/26 37/78/26 29/50/26
f 33/25/18 58/37/18 30/40/18
f 30/40/18 57/82/18 21/21/18
f 59/83/34 9/9/34 57/82/34
f 10/10/34 12/12/34 58/37/34
f 71/74/28 53/52/28 76/84/28
f 46/73/32 42/72/32 47/47/32
f 43/86/26 56/79/26 40/49/26
f 39/43/26 54/80/26 43/86/26
f 62/60/28 36/46/28 64/56/28
f 47/47/32 41/85/32 5/71/32
f 40/49/20 48/67/20 43/86/20
f 64/56/28 61/55/28 41/85/28
f 76/84/28 63/61/28 73/62/28
f 62/60/28 64/56/28 42/72/28
f 61/45/21 60/44/21 6/6/21
f 63/61/28 62/60/28 50/63/28
f 38/26/13 52/29/13 55/88/13
f 4/4/19 60/44/19 16/16/19
f 65/90/26 54/80/26 17/69/26
f 15/108/26 27/89/26 65/90/26
f 65/48/25 17/17/25 66/38/25
f 55/91/26 69/76/26 38/81/26
f 32/105/26 69/76/26 67/92/26
f 72/75/14 11/94/14 68/77/14
f 71/74/27 12/95/27 72/75/27
f 19/101/24 7/96/24 75/66/24
f 12/95/28 71/74/28 59/97/28
f 7/96/32 9/98/32 74/70/32
f 9/98/28 59/97/28 73/62/28
f 20/100/26 78/65/26 31/99/26
f 78/65/20 20/100/20 75/66/20
f 30/109/40 31/99/40 77/102/40
f 33/106/41 70/104/41 32/105/41
f 30/109/26 77/102/26 33/106/26
