# Blender v2.73 (sub 0) OBJ File: 'plank_flat_2.blend'
# www.blender.org
v -3.900000 -0.200000 0.900000
v -3.900000 -0.100000 1.000000
v -4.000000 -0.100000 0.900000
v -4.000000 -0.100000 -0.900000
v -3.900000 -0.100000 -1.000000
v -3.900000 -0.200000 -0.900000
v 3.900000 -0.100000 -1.000000
v 4.000000 -0.100000 -0.900000
v 3.900000 -0.200000 -0.900000
v 4.000000 -0.100000 0.900000
v 3.900000 -0.100000 1.000000
v 3.900000 -0.200000 0.900000
v -4.000000 0.100000 0.900000
v -3.900000 0.100000 1.000000
v -3.900000 0.200000 0.900000
v -4.000000 0.100000 -0.900000
v -3.900000 0.200000 -0.900000
v -3.900000 0.100000 -1.000000
v 3.900000 0.100000 -1.000000
v 3.900000 0.200000 -0.900000
v 4.000000 0.100000 -0.900000
v 4.000000 0.100000 0.900000
v 3.900000 0.200000 0.900000
v 3.900000 0.100000 1.000000
vt 1.748162 0.635329
vt 1.731946 0.650178
vt 1.729103 0.631099
vt 1.729775 0.411426
vt 1.732035 0.391485
vt 1.748159 0.406803
vt 1.701498 0.650907
vt 1.704341 0.669987
vt 1.685282 0.665756
vt 1.703668 0.889659
vt 1.701408 0.909601
vt 1.685285 0.894282
vt 1.703668 0.630499
vt 1.701408 0.650441
vt 1.685285 0.635122
vt 1.704341 0.410827
vt 1.685282 0.406596
vt 1.701498 0.391747
vt 1.732035 0.650645
vt 1.748159 0.665963
vt 1.729775 0.670586
vt 1.729103 0.890259
vt 1.748162 0.894489
vt 1.731946 0.909338
vt -0.806319 -0.003382
vt -0.412997 -0.003383
vt -0.412995 0.996411
vt 0.160442 -0.003384
vt 0.191345 -0.003384
vt 0.191348 0.996410
vt -0.382095 -0.003383
vt -0.382092 0.996411
vt 0.116743 0.996410
vt 0.116734 -0.003384
vt 0.085832 -0.003384
vt -0.307490 -0.003383
vt 0.085841 0.996410
vt -0.338392 -0.003383
vt -0.338383 0.996411
vt -0.307481 0.996411
vt -0.806316 0.996412
vt 0.160446 0.996410
vn -0.577400 -0.577300 0.577400
vn -0.577400 -0.577300 -0.577400
vn 0.577400 -0.577300 -0.577400
vn 0.577400 -0.577300 0.577400
vn -0.577400 0.577300 0.577400
vn -0.577400 0.577300 -0.577400
vn 0.577400 0.577300 -0.577400
vn 0.577400 0.577300 0.577400
vn -0.707100 0.707100 0.000000
vn -0.707100 -0.707100 0.000000
vn 0.707100 0.707100 0.000000
vn 0.707100 -0.707100 0.000000
vn 0.000000 1.000000 0.000000
vn 0.000000 0.707100 0.707100
vn 0.707100 0.000000 0.707100
vn 1.000000 0.000000 0.000000
vn 0.707100 0.000000 -0.707100
vn 0.000000 0.707100 -0.707100
vn -0.707100 0.000000 -0.707100
vn -1.000000 0.000000 0.000000
vn -0.707100 0.000000 0.707100
vn 0.000000 0.000000 1.000000
vn 0.000000 -0.707100 0.707100
vn 0.000000 -1.000000 0.000000
vn 0.000000 0.000000 -1.000000
vn 0.000000 -0.707100 -0.707100
s off
f 1/1/1 2/2/1 3/3/1
f 4/4/2 5/5/2 6/6/2
f 7/7/3 8/8/3 9/9/3
f 10/10/4 11/11/4 12/12/4
f 13/13/5 14/14/5 15/15/5
f 16/16/6 17/17/6 18/18/6
f 19/19/7 20/20/7 21/21/7
f 22/22/8 23/23/8 24/24/8
f 17/17/9 16/16/9 13/13/9
f 1/1/10 3/3/10 4/4/10
f 23/23/11 22/22/11 21/21/11
f 9/9/12 8/8/12 10/10/12
f 23/25/13 20/26/13 17/27/13
f 24/28/14 23/29/14 15/30/14
f 22/22/15 24/24/15 11/11/15
f 10/10/16 8/8/16 21/21/16
f 19/19/17 21/21/17 8/8/17
f 20/26/18 19/31/18 18/32/18
f 16/16/19 18/18/19 5/5/19
f 4/4/20 3/3/20 13/13/20
f 14/14/21 13/13/21 3/3/21
f 2/33/22 11/34/22 24/28/22
f 12/35/23 11/34/23 2/33/23
f 9/36/24 12/35/24 1/37/24
f 7/38/25 5/39/25 18/32/25
f 7/38/26 9/36/26 6/40/26
f 15/15/9 17/17/9 13/13/9
f 6/6/10 1/1/10 4/4/10
f 20/20/11 23/23/11 21/21/11
f 12/12/12 9/9/12 10/10/12
f 15/41/13 23/25/13 17/27/13
f 14/42/14 24/28/14 15/30/14
f 10/10/15 22/22/15 11/11/15
f 22/22/16 10/10/16 21/21/16
f 7/7/17 19/19/17 8/8/17
f 17/27/18 20/26/18 18/32/18
f 4/4/19 16/16/19 5/5/19
f 16/16/20 4/4/20 13/13/20
f 2/2/21 14/14/21 3/3/21
f 14/42/22 2/33/22 24/28/22
f 1/37/23 12/35/23 2/33/23
f 6/40/24 9/36/24 1/37/24
f 19/31/25 7/38/25 18/32/25
f 5/39/26 7/38/26 6/40/26
