# Blender v2.73 (sub 0) OBJ File: 'block_fort_2.blend'
# www.blender.org
v 1.300000 1.978816 -1.500000
v 1.500000 1.978816 -1.300000
v 1.376536 1.978816 -1.484776
v 1.441421 1.978816 -1.441421
v 1.484776 1.978816 -1.376537
v 1.500000 1.978816 1.300000
v 1.300000 1.978816 1.500000
v 1.484776 1.978816 1.376536
v 1.441421 1.978816 1.441421
v 1.376536 1.978816 1.484776
v -2.800000 1.978816 1.500000
v -3.000000 1.978816 1.300000
v -2.876537 1.978816 1.484776
v -2.941422 1.978816 1.441421
v -2.984776 1.978816 1.376536
v -3.000000 1.978816 -1.300000
v -2.799999 1.978816 -1.500000
v -2.984776 1.978816 -1.376537
v -2.941421 1.978816 -1.441422
v -2.876536 1.978816 -1.484776
v 1.500000 3.878816 -1.299999
v 1.300000 3.878816 -1.500000
v 1.484776 3.878816 -1.376536
v 1.441422 3.878816 -1.441421
v 1.376537 3.878816 -1.484775
v 1.299999 3.878816 1.500000
v 1.499999 3.878816 1.300000
v 1.376536 3.878816 1.484776
v 1.441421 3.878816 1.441422
v 1.484775 3.878816 1.376537
v -3.000000 3.878816 1.299999
v -2.800000 3.878816 1.500000
v -2.984776 3.878816 1.376536
v -2.941422 3.878816 1.441421
v -2.876537 3.878816 1.484776
v -2.800000 3.878816 -1.500000
v -3.000000 3.878816 -1.300000
v -2.876537 3.878816 -1.484776
v -2.941422 3.878816 -1.441421
v -2.984776 3.878816 -1.376537
vt 0.779870 0.997506
vt 0.500000 0.997506
vt 0.500000 0.000038
vt 0.478693 0.000038
vt 0.478693 0.997506
vt 0.301214 0.997506
vt 0.978656 0.997505
vt 0.801177 0.997506
vt 0.801177 0.000038
vt 0.999963 0.997505
vt 0.994636 0.997505
vt 0.994636 0.000037
vt 0.989310 0.997505
vt 0.989309 0.000037
vt 0.983983 0.997505
vt 0.983982 0.000037
vt 0.978655 0.000037
vt 0.795850 0.997506
vt 0.795850 0.000038
vt 0.790524 0.997506
vt 0.790524 0.000038
vt 0.785197 0.997506
vt 0.785197 0.000038
vt 0.779870 0.000038
vt 0.494673 0.997506
vt 0.494673 0.000038
vt 0.489346 0.997506
vt 0.489347 0.000038
vt 0.484020 0.997506
vt 0.484020 0.000038
vt 0.295887 0.997506
vt 0.295888 0.000038
vt 0.290560 0.997506
vt 0.290561 0.000038
vt 0.285234 0.997506
vt 0.285234 0.000038
vt 0.279907 0.997506
vt 0.279907 0.000038
vt 0.000038 0.000037
vt 0.301214 0.000038
vt 0.999962 0.000037
vt 0.000037 0.997505
vn 0.098000 -0.000000 0.995200
vn -0.098000 -0.000000 0.995200
vn -0.995200 -0.000000 0.098000
vn -0.995200 -0.000000 -0.098000
vn 0.995200 -0.000000 -0.098000
vn 0.995200 0.000000 0.098000
vn 0.098000 0.000000 -0.995200
vn 0.382700 0.000000 -0.923900
vn 0.707100 0.000000 -0.707100
vn 0.923900 0.000000 -0.382700
vn 0.923900 0.000000 0.382700
vn 0.707100 -0.000000 0.707100
vn 0.382700 -0.000000 0.923900
vn -0.382700 -0.000000 0.923900
vn -0.707100 -0.000000 0.707100
vn -0.923900 -0.000000 0.382700
vn -0.923900 -0.000000 -0.382700
vn -0.707100 -0.000000 -0.707100
vn -0.382700 0.000000 -0.923900
vn -0.098000 0.000000 -0.995200
s 1
f 26/1/1 32/2/2 11/3/2
f 12/4/3 31/5/3 37/6/4
f 21/7/5 27/8/6 6/9/6
f 22/10/7 25/11/8 3/12/8
f 25/11/8 24/13/9 4/14/9
f 24/13/9 23/15/10 5/16/10
f 23/15/10 21/7/5 2/17/5
f 27/8/6 30/18/11 8/19/11
f 30/18/11 29/20/12 9/21/12
f 29/20/12 28/22/13 10/23/13
f 28/22/13 26/1/1 7/24/1
f 32/2/2 35/25/14 13/26/14
f 35/25/14 34/27/15 14/28/15
f 34/27/15 33/29/16 15/30/16
f 33/29/16 31/5/3 12/4/3
f 37/6/4 40/31/17 18/32/17
f 40/31/17 39/33/18 19/34/18
f 39/33/18 38/35/19 20/36/19
f 38/35/19 36/37/20 17/38/20
f 1/39/7 17/38/20 36/37/20
f 7/24/1 26/1/1 11/3/2
f 16/40/4 12/4/3 37/6/4
f 2/17/5 21/7/5 6/9/6
f 1/41/7 22/10/7 3/12/8
f 3/12/8 25/11/8 4/14/9
f 4/14/9 24/13/9 5/16/10
f 5/16/10 23/15/10 2/17/5
f 6/9/6 27/8/6 8/19/11
f 8/19/11 30/18/11 9/21/12
f 9/21/12 29/20/12 10/23/13
f 10/23/13 28/22/13 7/24/1
f 11/3/2 32/2/2 13/26/14
f 13/26/14 35/25/14 14/28/15
f 14/28/15 34/27/15 15/30/16
f 15/30/16 33/29/16 12/4/3
f 16/40/4 37/6/4 18/32/17
f 18/32/17 40/31/17 19/34/18
f 19/34/18 39/33/18 20/36/19
f 20/36/19 38/35/19 17/38/20
f 22/42/7 1/39/7 36/37/20
