# Blender v2.65 (sub 0) OBJ File: ''
# www.blender.org
mtllib shell_rim.mtl
v 0.223341 0.221716 1.127710
v 0.466468 0.233167 1.010435
v 0.200626 0.315005 1.101028
v -0.154281 0.418246 0.907663
v 0.166988 0.409539 0.903989
v 0.192667 0.378879 0.789592
v 0.739788 0.033104 0.246534
v 0.775071 -0.010291 0.041914
v 0.692687 -0.061094 0.087406
v 0.013988 0.164417 1.124491
v -0.197487 0.073096 1.015439
v 0.138395 0.093060 1.039659
v -0.243221 0.037644 0.893455
v 0.095195 0.069379 0.918623
v -0.183754 0.065789 0.785729
v 0.041360 0.092550 0.803650
v -0.129813 0.134342 0.709348
v 0.044535 0.150107 0.720343
v -0.165064 0.212981 0.672155
v 0.134817 0.227538 0.682469
v 0.647052 0.093907 -0.445844
v 0.446593 0.210998 -0.667799
v 0.587778 0.027413 -0.397163
v 0.009106 0.336042 0.724126
v 0.970850 -0.182487 -0.491256
v 0.804778 -0.103913 -0.747273
v 0.834335 -0.017791 -0.759657
v 0.402545 0.324793 0.952397
v 0.472464 0.302102 0.796313
v 0.946569 -0.283814 -0.329309
v 0.762202 -0.179099 -0.678720
v 0.006619 0.323891 -0.813324
v -0.456146 0.206121 -0.664209
v -0.406321 0.137197 -0.593408
v -0.186715 0.382625 1.017659
v 0.055493 0.401070 1.034194
v 1.062183 -0.064003 0.252921
v 1.031319 -0.040264 -0.364192
v 1.007665 -0.019428 0.050724
v -0.040165 0.007939 -0.804100
v -0.318245 -0.051528 -0.743298
v -0.173577 -0.018969 -0.921289
v -0.064151 0.335253 1.119069
v -0.063831 0.248493 -0.724828
v 0.314179 0.181564 -0.650714
v 0.645022 -0.189598 0.467778
v 0.864094 -0.326669 0.210630
v 0.714931 -0.203230 0.560177
v -0.494882 0.048687 1.007494
v -0.061315 0.246206 1.150110
v -0.351468 0.184791 1.092526
v 0.442585 0.070649 0.523953
v 0.596382 -0.065222 0.307604
v 0.571456 -0.111016 0.422537
v 0.646578 0.182397 -0.796731
v 0.923447 0.039626 -0.404732
v 0.428838 -0.096745 -0.672066
v 0.186973 -0.013093 -0.785412
v 0.255444 -0.039182 -0.890510
v -0.470237 0.182862 -1.008679
v -0.709305 0.106643 -0.844881
v -0.516605 0.229631 -0.891944
v 0.382521 -0.030370 -0.610098
v 0.642045 -0.209324 -0.465820
v -0.040494 0.016781 -1.045968
v 0.390704 -0.042712 -0.957592
v -0.219786 0.146322 -1.128860
v -0.203297 0.237956 -1.100489
v -0.169835 0.389457 0.802437
v -0.245545 0.060850 -1.101573
v -0.669424 -0.056474 -0.884274
v -0.558532 0.069399 -0.999870
v -0.315308 0.247897 0.650098
v -0.294192 0.006066 -0.660427
v -0.573276 -0.145211 -0.419516
v -0.635438 -0.209435 -0.479618
v 0.692158 -0.210621 -0.584515
v -0.891128 0.033339 -0.633133
v -1.061221 -0.068852 -0.257135
v -0.878061 0.063759 -0.521851
v -0.994426 -0.092240 -0.511649
v -0.834413 -0.018642 -0.759588
v 0.654251 -0.140538 -0.129668
v 0.627064 -0.180179 -0.325873
v 0.699091 -0.246597 0.062734
v -0.343120 0.276738 1.062644
v 0.993886 -0.088342 0.512770
v 1.103501 -0.160574 0.156937
v 0.361406 0.094018 1.056269
v -0.706975 -0.219355 -0.571442
v -0.611883 -0.113379 -0.830945
v -0.597133 -0.074092 0.842098
v 0.292318 0.078897 0.661275
v 0.312218 0.018707 0.746284
v 0.945478 -0.166709 0.548001
v 0.038557 0.151123 -0.689886
v 0.615615 0.152382 0.507840
v 0.593312 0.051768 0.387919
v 0.332267 0.243595 0.641599
v -0.379666 0.027848 0.612086
v 0.708379 0.129883 0.845625
v 0.890595 0.041822 0.633721
v 0.799011 0.123710 0.637716
v 1.075406 -0.252275 0.137116
v 1.060682 -0.239638 -0.212780
v 1.089824 -0.149725 -0.219246
v 0.876484 -0.339018 -0.156799
v 0.543241 -0.015260 -0.973449
v 0.206580 0.059744 -1.100046
v 0.353064 0.121749 -1.091936
v 0.066943 0.251390 -1.118751
v 0.347855 0.212392 -1.060887
v 0.387452 -0.022790 0.830076
v 0.699583 -0.127697 0.749085
v -0.428664 0.308308 0.935318
v -0.546370 0.215971 -0.737124
v -0.203367 0.325747 -0.897341
v -0.044027 0.064591 -0.720354
v 0.292635 0.092941 -0.627480
v -0.617091 0.082305 0.957459
v -0.715634 0.041240 -0.331529
v -0.635838 -0.016244 -0.306662
v -0.902171 -0.149511 -0.615724
v -0.175813 0.128903 -0.668954
v -0.428186 -0.045717 0.672543
v 0.833424 -0.007345 0.760768
v -0.190199 0.304776 -1.016700
v -0.441999 0.067558 0.525052
v -0.556758 0.251491 0.720682
v 0.782929 -0.324895 0.002479
v -0.599423 0.177114 0.931964
v 0.996703 -0.319030 -0.066266
v 0.863609 0.035573 0.258492
v -0.700924 -0.199528 0.572554
v 0.065694 0.162511 -1.149752
v 0.661827 -0.142002 0.096107
v 0.901195 -0.252465 0.443962
v 0.979058 -0.306604 0.202385
v -0.596542 -0.093747 -0.307284
v -0.442372 0.015690 -0.524199
v 0.161522 0.335771 -0.907002
v 0.884078 0.011871 -0.071693
v 0.756307 0.009512 -0.196062
v 0.616117 0.051002 -0.958130
v 0.599671 0.144548 -0.931920
v 0.817298 0.067341 -0.732813
v 0.558443 0.108565 0.999833
v -0.739428 0.158603 0.704351
v -0.806939 -0.094554 0.744867
v -0.884956 -0.031065 0.702164
v 0.671614 -0.030685 0.882454
v -0.642813 -0.191698 0.466721
v 0.320649 0.281946 -0.980527
v -0.589909 0.049953 0.394015
v -0.664300 0.103181 0.431708
v -0.818153 0.077039 0.731731
v -0.833902 -0.210989 0.568557
v 0.559694 -0.057387 -0.385635
v -0.627017 -0.166716 0.326301
v 0.996661 -0.090241 -0.507306
v 0.683463 -0.055732 -0.135856
v 0.064067 0.316314 -1.034204
v 0.557032 0.213473 -0.722719
v 0.828175 0.057363 -0.340661
v -0.970654 -0.186179 0.491526
v 0.131436 0.052921 -0.708986
v -0.638766 -0.115719 0.216390
v -0.829580 0.056751 0.337613
v -1.033452 -0.047830 0.358297
v -1.052466 -0.128887 0.366068
v -0.964890 -0.306266 0.265968
v -0.872801 -0.344668 0.164055
v -1.002760 -0.022765 0.152393
v -1.060813 -0.245689 0.212273
v -0.782956 -0.331761 0.012617
v -0.683648 -0.054457 0.135303
v -0.763361 0.000547 0.151757
v -1.108147 -0.171764 0.067871
v -0.698552 -0.255359 -0.066345
v -0.918191 -0.270309 -0.420302
v -0.882612 0.005663 0.076582
v -0.865676 0.026368 -0.250407
v -1.078123 -0.260867 -0.068590
v -0.996403 -0.326380 -0.060234
v -0.661887 -0.154727 -0.095589
v -0.694304 -0.073246 -0.045940
v -0.774699 -0.018166 -0.039291
v -1.087896 -0.154569 -0.228531
v -0.867182 -0.334598 -0.202812
v -1.023338 -0.219471 -0.358575
vt 0.500000 0.500000
vn 0.220527 -0.001007 0.975372
vn 0.515610 0.497513 0.697562
vn 0.257851 0.591998 0.763543
vn -0.156011 0.987732 -0.004334
vn 0.175207 0.984497 0.004578
vn 0.120365 0.902707 -0.413007
vn -0.173162 0.911588 -0.372784
vn -0.382519 0.921903 -0.061068
vn -0.771661 0.604938 -0.196326
vn 0.002960 -0.528123 0.849147
vn 0.071505 -0.892209 0.445906
vn -0.056368 -0.882992 0.465926
vn 0.247749 -0.965178 0.083804
vn -0.089663 -0.994476 0.054018
vn 0.310800 -0.903745 -0.294290
vn -0.062807 -0.921567 -0.383068
vn 0.266854 -0.592395 -0.760125
vn -0.078433 -0.622944 -0.778283
vn 0.241401 -0.009888 -0.970367
vn -0.207373 0.002197 -0.978240
vn -0.181005 0.856655 0.483047
vn 0.036927 0.882290 0.469222
vn -0.541704 0.579119 0.609180
vn -0.000061 0.637013 -0.770837
vn 0.677694 -0.568590 -0.466231
vn 0.534501 -0.541734 -0.648701
vn 0.764000 0.000885 -0.645192
vn 0.431898 0.842280 0.322459
vn 0.382275 0.917783 -0.107181
vn 0.347514 -0.880947 -0.321085
vn 0.196997 -0.862117 -0.466811
vn -0.004273 0.922880 0.384991
vn -0.041047 0.880795 0.471694
vn 0.266060 0.593158 0.759819
vn -0.256050 0.863765 0.433912
vn 0.084109 0.906156 0.414441
vn 0.850887 0.509537 0.127812
vn 0.837886 0.518937 -0.169103
vn 0.481704 0.876247 -0.010743
vn 0.027619 -0.911313 0.410718
vn 0.445845 -0.852565 0.272530
vn 0.153417 -0.986877 -0.050264
vn -0.090976 0.590991 0.801508
vn 0.023957 0.601520 0.798486
vn -0.185461 0.570818 0.799829
vn -0.536973 -0.841517 0.058809
vn -0.080264 -0.982757 0.166478
vn -0.215369 -0.937010 0.274941
vn -0.215033 -0.536393 0.816065
vn -0.080111 0.008118 0.996734
vn -0.294992 -0.049196 0.954222
vn -0.665639 0.005951 -0.746239
vn -0.927061 0.005493 -0.374798
vn -0.793970 -0.557451 -0.242500
vn 0.488540 0.851924 -0.188452
vn 0.484054 0.874905 -0.013855
vn -0.493240 -0.846950 0.198340
vn -0.251503 -0.918149 0.306101
vn -0.167638 -0.982330 -0.083041
vn -0.442274 0.561052 -0.699698
vn -0.668477 0.552965 -0.497269
vn -0.433393 0.864101 -0.255867
vn -0.627766 -0.599658 0.496231
vn -0.480789 -0.876278 -0.031037
vn -0.001556 -0.880612 -0.473830
vn -0.023194 -0.881100 -0.472304
vn -0.208655 0.041353 -0.977081
vn -0.229743 0.577105 -0.783654
vn -0.114719 0.903256 -0.413434
vn -0.139348 -0.540452 -0.829737
vn -0.428236 -0.528398 -0.733055
vn -0.498398 -0.044679 -0.865780
vn 0.227271 0.517533 -0.824885
vn 0.521958 -0.622547 0.583056
vn 0.769189 -0.585040 0.256905
vn 0.478469 -0.877316 -0.036805
vn -0.163945 -0.957305 -0.238014
vn -0.750053 0.573351 -0.329569
vn -0.840358 0.529496 -0.115543
vn -0.515671 0.856594 -0.016663
vn -0.906278 0.028047 -0.421705
vn -0.758141 -0.007904 -0.652028
vn -0.981262 0.047182 0.186682
vn -0.814295 -0.556566 0.164678
vn -0.811975 -0.583636 0.003906
vn -0.407086 0.552629 0.727226
vn 0.917325 0.023530 0.397412
vn 0.992767 -0.000153 0.119938
vn 0.130100 -0.575793 0.807154
vn 0.132511 -0.951201 -0.278603
vn -0.072573 -0.868557 -0.490188
vn -0.006409 -0.851436 0.524400
vn -0.557085 -0.611835 -0.561480
vn -0.457472 -0.859401 -0.228217
vn 0.638997 -0.564806 0.522141
vn -0.098178 -0.029572 0.994720
vn -0.080569 0.836848 -0.541429
vn -0.499893 0.607013 -0.617725
vn -0.175268 0.569933 -0.802759
vn 0.639302 -0.569903 -0.516221
vn 0.685415 0.528794 0.500534
vn 0.788781 0.525773 0.318339
vn 0.557390 0.827509 0.067049
vn 0.803430 -0.579150 0.137913
vn 0.796838 -0.566759 -0.209265
vn 0.988098 0.032502 -0.150243
vn -0.022431 -0.991241 -0.129978
vn 0.291604 -0.575976 -0.763665
vn 0.090884 -0.558275 -0.824641
vn 0.331187 -0.020692 -0.943327
vn 0.079257 0.583850 -0.807947
vn 0.369304 0.560106 -0.741508
vn -0.336222 -0.935972 0.104129
vn 0.081454 -0.859493 0.504562
vn -0.466323 0.843043 0.267922
vn -0.282449 0.946593 0.155461
vn -0.163335 0.985595 0.043123
vn 0.112796 -0.611805 0.782891
vn -0.447340 0.033204 0.893704
vn -0.590381 -0.042177 0.805994
vn 0.246864 0.870632 0.425459
vn 0.620014 0.599414 0.506211
vn -0.592425 -0.561388 -0.577776
vn 0.292215 -0.019196 0.956145
vn 0.573504 -0.795923 -0.193823
vn 0.752892 -0.048647 0.656331
vn -0.197546 0.891568 -0.407453
vn 0.700217 -0.030549 -0.713248
vn -0.355083 0.919828 -0.166631
vn -0.412305 -0.910886 0.016053
vn -0.622883 0.535813 0.569994
vn 0.450728 -0.891446 -0.045900
vn 0.063540 0.972564 -0.223762
vn 0.240364 -0.931150 0.274117
vn 0.054567 -0.012757 -0.998413
vn -0.988311 -0.021882 -0.150822
vn 0.285257 -0.881924 0.375225
vn 0.415662 -0.882443 0.220161
vn 0.901669 0.055574 0.428785
vn 0.682546 0.032258 0.730094
vn 0.137638 0.990326 0.016907
vn 0.003082 0.996307 0.085452
vn -0.307779 0.913602 0.265664
vn 0.583209 -0.013764 -0.812159
vn 0.568011 0.556291 -0.606525
vn 0.720115 0.582324 -0.377178
vn 0.504776 -0.034547 0.862514
vn -0.560320 0.822596 0.096591
vn -0.458968 -0.573992 0.678121
vn -0.817194 0.010559 0.576220
vn 0.352611 -0.559191 0.750267
vn 0.539567 -0.839564 0.063082
vn 0.321177 0.884640 -0.337962
vn 0.442061 0.641621 -0.626789
vn 0.088321 0.860500 -0.501694
vn -0.741997 0.519974 0.423078
vn -0.185614 -0.873440 0.450117
vn -0.816980 0.039918 0.575274
vn 0.820154 -0.553117 -0.146214
vn 0.893857 0.028718 -0.447371
vn -0.757073 0.606220 0.243507
vn 0.051973 0.908383 -0.414838
vn 0.249947 0.954588 0.161992
vn 0.120426 0.970061 0.210791
vn -0.683096 -0.544786 0.486373
vn -0.265023 -0.621204 0.737449
vn 0.962218 0.010254 -0.272042
vn -0.149846 0.956053 -0.251961
vn -0.827570 0.536912 0.163762
vn -0.945433 -0.057039 0.320688
vn -0.378552 -0.882748 0.278176
vn 0.047334 -0.989166 0.138859
vn -0.482589 0.875423 -0.026337
vn -0.807611 -0.551836 0.207739
vn 0.416425 -0.909085 0.009888
vn 0.732536 0.634724 -0.245888
vn 0.295236 0.918973 -0.261330
vn -0.998077 0.025361 0.056093
vn 0.813868 -0.579974 0.035096
vn -0.321421 -0.872097 -0.368877
vn -0.048738 0.997467 -0.051241
vn 0.013306 0.984680 0.173711
vn -0.821009 -0.564470 -0.085055
vn -0.413739 -0.908139 -0.063753
vn 0.989868 -0.035249 0.137394
vn 0.784814 0.617115 0.056490
vn 0.383374 0.921476 0.062349
vn -0.980682 -0.059786 -0.186193
vn 0.029389 -0.986572 -0.160466
vn -0.760460 -0.556566 -0.334513
s 1
f 1/1/1 2/1/2 3/1/3
f 4/1/4 5/1/5 6/1/6
f 7/1/7 8/1/8 9/1/9
f 10/1/10 11/1/11 12/1/12
f 13/1/13 14/1/14 12/1/12
f 13/1/13 12/1/12 11/1/11
f 15/1/15 16/1/16 14/1/14
f 15/1/15 14/1/14 13/1/13
f 17/1/17 18/1/18 16/1/16
f 17/1/17 16/1/16 15/1/15
f 19/1/19 20/1/20 18/1/18
f 19/1/19 18/1/18 17/1/17
f 21/1/21 22/1/22 23/1/23
f 24/1/24 20/1/20 19/1/19
f 25/1/25 26/1/26 27/1/27
f 28/1/28 29/1/29 5/1/5
f 30/1/30 31/1/31 25/1/25
f 32/1/32 33/1/33 34/1/34
f 35/1/35 36/1/36 4/1/4
f 37/1/37 38/1/38 39/1/39
f 40/1/40 41/1/41 42/1/42
f 43/1/43 36/1/36 35/1/35
f 32/1/32 44/1/44 45/1/45
f 46/1/46 47/1/47 48/1/48
f 49/1/49 10/1/10 50/1/50
f 49/1/49 50/1/50 51/1/51
f 10/1/10 49/1/49 11/1/11
f 52/1/52 53/1/53 54/1/54
f 38/1/38 55/1/55 56/1/56
f 57/1/57 58/1/58 59/1/59
f 60/1/60 61/1/61 62/1/62
f 63/1/63 57/1/57 64/1/64
f 59/1/59 65/1/65 66/1/66
f 67/1/67 60/1/60 68/1/68
f 69/1/69 6/1/6 24/1/24
f 70/1/70 71/1/71 72/1/72
f 73/1/73 24/1/24 19/1/19
f 74/1/74 75/1/75 76/1/76
f 77/1/77 66/1/66 31/1/31
f 69/1/69 24/1/24 73/1/73
f 78/1/78 79/1/79 80/1/80
f 81/1/81 79/1/79 78/1/78
f 82/1/82 81/1/81 78/1/78
f 83/1/83 84/1/84 85/1/85
f 86/1/86 43/1/43 35/1/35
f 87/1/87 88/1/88 37/1/37
f 51/1/51 50/1/50 43/1/43
f 51/1/51 43/1/43 86/1/86
f 89/1/89 1/1/1 10/1/10
f 42/1/42 90/1/90 91/1/91
f 92/1/92 11/1/11 49/1/49
f 18/1/18 93/1/93 94/1/94
f 95/1/95 88/1/88 87/1/87
f 13/1/13 11/1/11 92/1/92
f 45/1/45 44/1/44 96/1/96
f 97/1/97 98/1/98 99/1/99
f 100/1/100 17/1/17 15/1/15
f 101/1/101 102/1/102 103/1/103
f 104/1/104 105/1/105 106/1/106
f 19/1/19 17/1/17 100/1/100
f 107/1/107 77/1/77 31/1/31
f 108/1/108 109/1/109 110/1/110
f 59/1/59 42/1/42 65/1/65
f 110/1/110 111/1/111 112/1/112
f 113/1/113 48/1/48 114/1/114
f 36/1/36 5/1/5 4/1/4
f 115/1/115 35/1/35 4/1/4
f 62/1/62 80/1/80 116/1/116
f 66/1/66 65/1/65 109/1/109
f 86/1/86 35/1/35 115/1/115
f 62/1/62 116/1/116 117/1/117
f 118/1/118 74/1/74 41/1/41
f 23/1/23 45/1/45 119/1/119
f 49/1/49 51/1/51 120/1/120
f 33/1/33 121/1/121 122/1/122
f 123/1/123 81/1/81 82/1/82
f 44/1/44 34/1/34 124/1/124
f 12/1/12 89/1/89 10/1/10
f 125/1/125 15/1/15 13/1/13
f 95/1/95 87/1/87 126/1/126
f 68/1/68 62/1/62 127/1/127
f 100/1/100 15/1/15 125/1/125
f 128/1/128 19/1/19 100/1/100
f 64/1/64 77/1/77 107/1/107
f 65/1/65 91/1/91 70/1/70
f 73/1/73 19/1/19 128/1/128
f 117/1/117 33/1/33 32/1/32
f 104/1/104 106/1/106 88/1/88
f 129/1/129 4/1/4 69/1/69
f 85/1/85 84/1/84 130/1/130
f 6/1/6 97/1/97 99/1/99
f 115/1/115 4/1/4 129/1/129
f 131/1/131 86/1/86 115/1/115
f 107/1/107 30/1/30 132/1/132
f 120/1/120 51/1/51 86/1/86
f 120/1/120 86/1/86 131/1/131
f 2/1/2 101/1/101 28/1/28
f 29/1/29 133/1/133 97/1/97
f 47/1/47 107/1/107 132/1/132
f 117/1/117 116/1/116 33/1/33
f 134/1/134 13/1/13 92/1/92
f 70/1/70 67/1/67 135/1/135
f 136/1/136 83/1/83 85/1/85
f 125/1/125 13/1/13 134/1/134
f 137/1/137 138/1/138 104/1/104
f 47/1/47 138/1/138 137/1/137
f 130/1/130 64/1/64 107/1/107
f 122/1/122 139/1/139 140/1/140
f 141/1/141 32/1/32 22/1/22
f 142/1/142 143/1/143 8/1/8
f 143/1/143 21/1/21 23/1/23
f 27/1/27 144/1/144 145/1/145
f 38/1/38 146/1/146 55/1/55
f 147/1/147 1/1/1 89/1/89
f 148/1/148 115/1/115 129/1/129
f 14/1/14 113/1/113 12/1/12
f 34/1/34 122/1/122 140/1/140
f 131/1/131 115/1/115 148/1/148
f 63/1/63 58/1/58 57/1/57
f 109/1/109 70/1/70 135/1/135
f 149/1/149 49/1/49 120/1/120
f 149/1/149 120/1/120 150/1/150
f 124/1/124 74/1/74 118/1/118
f 92/1/92 49/1/49 149/1/149
f 82/1/82 78/1/78 61/1/61
f 151/1/151 126/1/126 147/1/147
f 152/1/152 125/1/125 134/1/134
f 29/1/29 97/1/97 6/1/6
f 145/1/145 112/1/112 153/1/153
f 100/1/100 125/1/125 152/1/152
f 71/1/71 123/1/123 82/1/82
f 44/1/44 124/1/124 96/1/96
f 154/1/154 73/1/73 128/1/128
f 110/1/110 135/1/135 111/1/111
f 155/1/155 69/1/69 73/1/73
f 155/1/155 73/1/73 154/1/154
f 96/1/96 124/1/124 118/1/118
f 129/1/129 69/1/69 155/1/155
f 132/1/132 30/1/30 105/1/105
f 22/1/22 45/1/45 23/1/23
f 156/1/156 131/1/131 148/1/148
f 94/1/94 48/1/48 113/1/113
f 150/1/150 120/1/120 131/1/131
f 150/1/150 131/1/131 156/1/156
f 102/1/102 37/1/37 103/1/103
f 141/1/141 117/1/117 32/1/32
f 157/1/157 92/1/92 149/1/149
f 158/1/158 63/1/63 84/1/84
f 58/1/58 40/1/40 42/1/42
f 134/1/134 92/1/92 157/1/157
f 126/1/126 87/1/87 102/1/102
f 66/1/66 109/1/109 108/1/108
f 159/1/159 100/1/100 152/1/152
f 25/1/25 27/1/27 160/1/160
f 9/1/9 161/1/161 83/1/83
f 128/1/128 100/1/100 159/1/159
f 162/1/162 127/1/127 117/1/117
f 9/1/9 83/1/83 136/1/136
f 30/1/30 25/1/25 105/1/105
f 84/1/84 64/1/64 130/1/130
f 56/1/56 55/1/55 163/1/163
f 37/1/37 39/1/39 103/1/103
f 56/1/56 163/1/163 164/1/164
f 114/1/114 95/1/95 151/1/151
f 6/1/6 99/1/99 24/1/24
f 41/1/41 90/1/90 42/1/42
f 18/1/18 94/1/94 16/1/16
f 138/1/138 132/1/132 104/1/104
f 165/1/165 149/1/149 150/1/150
f 72/1/72 82/1/82 61/1/61
f 5/1/5 29/1/29 6/1/6
f 157/1/157 149/1/149 165/1/165
f 112/1/112 111/1/111 162/1/162
f 143/1/143 23/1/23 161/1/161
f 119/1/119 96/1/96 166/1/166
f 91/1/91 123/1/123 71/1/71
f 67/1/67 72/1/72 60/1/60
f 4/1/4 6/1/6 69/1/69
f 167/1/167 128/1/128 159/1/159
f 87/1/87 37/1/37 102/1/102
f 140/1/140 139/1/139 75/1/75
f 154/1/154 128/1/128 167/1/167
f 46/1/46 130/1/130 47/1/47
f 34/1/34 140/1/140 124/1/124
f 168/1/168 129/1/129 155/1/155
f 91/1/91 71/1/71 70/1/70
f 28/1/28 103/1/103 29/1/29
f 148/1/148 129/1/129 168/1/168
f 169/1/169 156/1/156 148/1/148
f 16/1/16 94/1/94 14/1/14
f 26/1/26 144/1/144 27/1/27
f 150/1/150 156/1/156 169/1/169
f 98/1/98 9/1/9 136/1/136
f 165/1/165 150/1/150 170/1/170
f 171/1/171 157/1/157 165/1/165
f 57/1/57 59/1/59 77/1/77
f 172/1/172 134/1/134 157/1/157
f 172/1/172 157/1/157 171/1/171
f 133/1/133 142/1/142 8/1/8
f 152/1/152 134/1/134 172/1/172
f 24/1/24 99/1/99 20/1/20
f 10/1/10 1/1/1 50/1/50
f 20/1/20 93/1/93 18/1/18
f 31/1/31 26/1/26 25/1/25
f 48/1/48 137/1/137 114/1/114
f 38/1/38 56/1/56 39/1/39
f 160/1/160 27/1/27 146/1/146
f 151/1/151 95/1/95 126/1/126
f 39/1/39 56/1/56 164/1/164
f 160/1/160 146/1/146 38/1/38
f 173/1/173 148/1/148 168/1/168
f 39/1/39 164/1/164 142/1/142
f 41/1/41 76/1/76 90/1/90
f 169/1/169 148/1/148 173/1/173
f 170/1/170 150/1/150 169/1/169
f 88/1/88 38/1/38 37/1/37
f 174/1/174 165/1/165 170/1/170
f 163/1/163 141/1/141 22/1/22
f 12/1/12 114/1/114 151/1/151
f 171/1/171 165/1/165 174/1/174
f 32/1/32 34/1/34 44/1/44
f 163/1/163 22/1/22 21/1/21
f 175/1/175 152/1/152 172/1/172
f 103/1/103 133/1/133 29/1/29
f 89/1/89 151/1/151 147/1/147
f 159/1/159 152/1/152 175/1/175
f 61/1/61 80/1/80 62/1/62
f 70/1/70 72/1/72 67/1/67
f 176/1/176 154/1/154 167/1/167
f 137/1/137 104/1/104 95/1/95
f 177/1/177 155/1/155 154/1/154
f 177/1/177 154/1/154 176/1/176
f 74/1/74 76/1/76 41/1/41
f 168/1/168 155/1/155 177/1/177
f 71/1/71 82/1/82 72/1/72
f 94/1/94 46/1/46 48/1/48
f 108/1/108 110/1/110 144/1/144
f 98/1/98 53/1/53 52/1/52
f 144/1/144 112/1/112 145/1/145
f 116/1/116 121/1/121 33/1/33
f 112/1/112 162/1/162 153/1/153
f 174/1/174 170/1/170 178/1/178
f 135/1/135 67/1/67 68/1/68
f 58/1/58 42/1/42 59/1/59
f 36/1/36 28/1/28 5/1/5
f 27/1/27 145/1/145 146/1/146
f 106/1/106 160/1/160 38/1/38
f 42/1/42 91/1/91 65/1/65
f 179/1/179 159/1/159 175/1/175
f 135/1/135 68/1/68 111/1/111
f 55/1/55 153/1/153 141/1/141
f 167/1/167 159/1/159 179/1/179
f 158/1/158 119/1/119 63/1/63
f 90/1/90 180/1/180 91/1/91
f 88/1/88 106/1/106 38/1/38
f 144/1/144 110/1/110 112/1/112
f 181/1/181 168/1/168 177/1/177
f 99/1/99 52/1/52 20/1/20
f 64/1/64 57/1/57 77/1/77
f 173/1/173 168/1/168 181/1/181
f 54/1/54 85/1/85 130/1/130
f 80/1/80 182/1/182 116/1/116
f 178/1/178 170/1/170 169/1/169
f 130/1/130 46/1/46 54/1/54
f 183/1/183 174/1/174 178/1/178
f 142/1/142 164/1/164 143/1/143
f 184/1/184 171/1/171 174/1/174
f 184/1/184 174/1/174 183/1/183
f 132/1/132 105/1/105 104/1/104
f 172/1/172 171/1/171 184/1/184
f 105/1/105 25/1/25 160/1/160
f 107/1/107 31/1/31 30/1/30
f 1/1/1 147/1/147 2/1/2
f 105/1/105 160/1/160 106/1/106
f 185/1/185 167/1/167 179/1/179
f 45/1/45 96/1/96 119/1/119
f 186/1/186 176/1/176 167/1/167
f 186/1/186 167/1/167 185/1/185
f 187/1/187 177/1/177 176/1/176
f 187/1/187 176/1/176 186/1/186
f 84/1/84 63/1/63 64/1/64
f 181/1/181 177/1/177 187/1/187
f 61/1/61 78/1/78 80/1/80
f 126/1/126 102/1/102 101/1/101
f 79/1/79 169/1/169 173/1/173
f 12/1/12 151/1/151 89/1/89
f 119/1/119 166/1/166 63/1/63
f 178/1/178 169/1/169 79/1/79
f 145/1/145 153/1/153 55/1/55
f 183/1/183 178/1/178 188/1/188
f 63/1/63 166/1/166 58/1/58
f 3/1/3 2/1/2 28/1/28
f 189/1/189 172/1/172 184/1/184
f 164/1/164 21/1/21 143/1/143
f 161/1/161 23/1/23 158/1/158
f 175/1/175 172/1/172 189/1/189
f 111/1/111 68/1/68 127/1/127
f 130/1/130 107/1/107 47/1/47
f 127/1/127 62/1/62 117/1/117
f 111/1/111 127/1/127 162/1/162
f 55/1/55 141/1/141 163/1/163
f 65/1/65 70/1/70 109/1/109
f 97/1/97 7/1/7 98/1/98
f 161/1/161 158/1/158 83/1/83
f 182/1/182 181/1/181 187/1/187
f 22/1/22 32/1/32 45/1/45
f 166/1/166 40/1/40 58/1/58
f 173/1/173 181/1/181 182/1/182
f 114/1/114 137/1/137 95/1/95
f 94/1/94 113/1/113 14/1/14
f 188/1/188 178/1/178 79/1/79
f 91/1/91 180/1/180 123/1/123
f 190/1/190 183/1/183 188/1/188
f 31/1/31 66/1/66 108/1/108
f 180/1/180 184/1/184 183/1/183
f 180/1/180 183/1/183 190/1/190
f 50/1/50 1/1/1 3/1/3
f 189/1/189 184/1/184 180/1/180
f 23/1/23 119/1/119 158/1/158
f 96/1/96 118/1/118 166/1/166
f 8/1/8 143/1/143 161/1/161
f 103/1/103 39/1/39 133/1/133
f 93/1/93 46/1/46 94/1/94
f 164/1/164 163/1/163 21/1/21
f 122/1/122 186/1/186 185/1/185
f 133/1/133 8/1/8 7/1/7
f 121/1/121 187/1/187 186/1/186
f 121/1/121 186/1/186 122/1/122
f 99/1/99 98/1/98 52/1/52
f 182/1/182 187/1/187 121/1/121
f 80/1/80 173/1/173 182/1/182
f 54/1/54 46/1/46 93/1/93
f 26/1/26 108/1/108 144/1/144
f 79/1/79 173/1/173 80/1/80
f 47/1/47 132/1/132 138/1/138
f 50/1/50 3/1/3 43/1/43
f 153/1/153 162/1/162 141/1/141
f 190/1/190 188/1/188 81/1/81
f 146/1/146 145/1/145 55/1/55
f 7/1/7 9/1/9 98/1/98
f 48/1/48 47/1/47 137/1/137
f 83/1/83 158/1/158 84/1/84
f 76/1/76 175/1/175 189/1/189
f 31/1/31 108/1/108 26/1/26
f 75/1/75 179/1/179 175/1/175
f 75/1/75 175/1/175 76/1/76
f 139/1/139 185/1/185 179/1/179
f 139/1/139 179/1/179 75/1/75
f 133/1/133 7/1/7 97/1/97
f 122/1/122 185/1/185 139/1/139
f 53/1/53 136/1/136 85/1/85
f 95/1/95 104/1/104 88/1/88
f 124/1/124 140/1/140 74/1/74
f 53/1/53 85/1/85 54/1/54
f 109/1/109 135/1/135 110/1/110
f 33/1/33 122/1/122 34/1/34
f 113/1/113 114/1/114 12/1/12
f 3/1/3 28/1/28 36/1/36
f 81/1/81 188/1/188 79/1/79
f 162/1/162 117/1/117 141/1/141
f 123/1/123 190/1/190 81/1/81
f 77/1/77 59/1/59 66/1/66
f 166/1/166 118/1/118 40/1/40
f 180/1/180 190/1/190 123/1/123
f 90/1/90 189/1/189 180/1/180
f 101/1/101 103/1/103 28/1/28
f 43/1/43 3/1/3 36/1/36
f 76/1/76 189/1/189 90/1/90
f 147/1/147 126/1/126 101/1/101
f 147/1/147 101/1/101 2/1/2
f 118/1/118 41/1/41 40/1/40
f 72/1/72 61/1/61 60/1/60
f 116/1/116 182/1/182 121/1/121
f 39/1/39 142/1/142 133/1/133
f 68/1/68 60/1/60 62/1/62
f 52/1/52 54/1/54 93/1/93
f 20/1/20 52/1/52 93/1/93
f 98/1/98 136/1/136 53/1/53
f 140/1/140 75/1/75 74/1/74
f 8/1/8 161/1/161 9/1/9
