# Blender v2.73 (sub 0) OBJ File: 'block_fort_2.blend'
# www.blender.org
v -0.584861 0.050000 0.750000
v -0.700000 0.000000 0.700000
v -0.708398 0.027735 0.700000
v -0.611274 0.030866 0.746194
v -0.642431 0.014645 0.735355
v -0.617452 0.051269 0.746194
v -0.652546 0.029507 0.742320
v -0.680929 0.013287 0.735728
v -0.696764 0.016119 0.731567
v -0.715967 0.002111 0.700000
v -0.723170 0.008123 0.700000
v -0.673587 0.003806 0.719134
v -0.700132 0.005970 0.720118
v -0.715857 0.010338 0.720476
v -0.684309 0.039220 0.719134
v -0.652373 0.047484 0.735355
v -0.720512 0.017121 0.700000
v -0.705196 0.022694 0.720118
v -0.685159 0.027259 0.735728
v 0.700000 0.050000 0.750000
v 0.750000 0.050000 0.700000
v 0.700000 0.000000 0.700000
v 0.719134 0.050000 0.746194
v 0.735355 0.050000 0.735355
v 0.700000 0.030866 0.746194
v 0.719614 0.030386 0.741601
v 0.732813 0.031381 0.732813
v 0.728868 0.021132 0.728868
v 0.746194 0.030866 0.700000
v 0.735355 0.014645 0.700000
v 0.746194 0.050000 0.719134
v 0.741601 0.030386 0.719614
v 0.732813 0.017187 0.718619
v 0.700000 0.003806 0.719134
v 0.700000 0.014645 0.735355
v 0.719134 0.003806 0.700000
v 0.719614 0.008399 0.719614
v 0.718619 0.017187 0.732813
v 0.750000 0.050000 -0.700000
v 0.700000 0.050000 -0.750000
v 0.700000 0.000000 -0.700000
v 0.746194 0.050000 -0.719134
v 0.735355 0.050000 -0.735355
v 0.746194 0.030866 -0.700000
v 0.741601 0.030386 -0.719614
v 0.732813 0.031381 -0.732813
v 0.728868 0.021132 -0.728868
v 0.700000 0.030866 -0.746194
v 0.700000 0.014645 -0.735355
v 0.719134 0.050000 -0.746194
v 0.719614 0.030386 -0.741601
v 0.718619 0.017187 -0.732813
v 0.719134 0.003806 -0.700000
v 0.735355 0.014645 -0.700000
v 0.700000 0.003806 -0.719134
v 0.719614 0.008399 -0.719614
v 0.732813 0.017187 -0.718619
v -0.700000 0.000000 -0.700000
v -0.584861 0.050000 -0.750000
v -0.708398 0.027735 -0.700000
v -0.673587 0.003806 -0.719134
v -0.642431 0.014645 -0.735355
v -0.715967 0.002111 -0.700000
v -0.700132 0.005970 -0.720119
v -0.680929 0.013287 -0.735728
v -0.696764 0.016119 -0.731567
v -0.617452 0.051269 -0.746194
v -0.652373 0.047484 -0.735355
v -0.611274 0.030866 -0.746194
v -0.652546 0.029507 -0.742320
v -0.685159 0.027259 -0.735728
v -0.720512 0.017121 -0.700000
v -0.723170 0.008123 -0.700000
v -0.684309 0.039220 -0.719134
v -0.705196 0.022694 -0.720119
v -0.715857 0.010338 -0.720476
v 0.750000 0.950000 0.700000
v 0.700000 0.906574 0.750000
v 0.708398 0.972265 0.700000
v 0.744907 0.944289 0.719134
v 0.733616 0.934031 0.735355
v 0.748120 0.969428 0.700000
v 0.742306 0.963637 0.719614
v 0.733064 0.954161 0.732813
v 0.730642 0.963829 0.728868
v 0.701926 0.929308 0.746194
v 0.704199 0.949775 0.735355
v 0.717847 0.920787 0.746194
v 0.720319 0.944541 0.741601
v 0.721254 0.960481 0.732813
v 0.725605 0.981478 0.700000
v 0.739554 0.980482 0.700000
v 0.706471 0.964859 0.719134
v 0.724012 0.973427 0.719614
v 0.735448 0.972809 0.718619
v 0.750000 0.950000 -0.700000
v 0.708398 0.972265 -0.700000
v 0.700000 0.906574 -0.750000
v 0.748120 0.969428 -0.700000
v 0.739554 0.980482 -0.700000
v 0.744907 0.944289 -0.719134
v 0.742306 0.963637 -0.719614
v 0.735448 0.972809 -0.718619
v 0.730642 0.963829 -0.728868
v 0.706471 0.964859 -0.719134
v 0.704199 0.949775 -0.735355
v 0.725605 0.981478 -0.700000
v 0.724012 0.973427 -0.719614
v 0.721254 0.960481 -0.732813
v 0.717847 0.920787 -0.746194
v 0.733616 0.934031 -0.735355
v 0.701926 0.929308 -0.746194
v 0.720319 0.944541 -0.741601
v 0.733064 0.954161 -0.732813
vn 0.044400 0.083400 -0.995500
vn 0.097000 -0.097000 -0.990500
vn -0.056500 -0.017000 -0.998200
vn 0.988300 0.055500 -0.141900
vn 0.990500 -0.096600 0.097200
vn 0.990500 -0.096600 -0.097200
vn -0.056500 -0.017000 0.998200
vn 0.097000 -0.097000 0.990500
vn 0.044400 0.083400 0.995500
vn -0.501900 0.853200 -0.141800
vn -0.610400 0.780900 0.132900
vn -0.501900 0.853200 0.141800
vn -0.049600 -0.308500 0.949900
vn -0.212400 0.229700 0.949800
vn -0.144400 -0.043700 0.988500
vn -0.010300 -0.670300 0.742000
vn -0.139900 -0.538100 0.831100
vn -0.380300 0.552500 0.741600
vn -0.414900 0.370200 0.831100
vn -0.484900 -0.146800 0.862100
vn -0.074700 -0.988300 0.132900
vn -0.157800 -0.864700 0.476800
vn -0.398000 -0.903900 0.156400
vn -0.721900 -0.218600 0.656500
vn -0.943500 -0.285700 0.167600
vn -0.009500 -0.932200 0.361600
vn -0.611000 0.631900 0.476800
vn -0.525000 0.770400 0.361600
vn -0.832600 0.531300 0.156400
vn 0.378400 -0.097000 0.920500
vn 0.097200 -0.378300 0.920600
vn 0.370300 -0.370300 0.851900
vn 0.704200 -0.091300 0.704100
vn 0.668300 -0.326500 0.668300
vn 0.091900 -0.704100 0.704100
vn 0.326500 -0.668300 0.668300
vn 0.577300 -0.577300 0.577300
vn 0.920600 -0.378300 0.097200
vn 0.920600 -0.096400 0.378300
vn 0.851900 -0.370300 0.370300
vn 0.704100 -0.704100 0.091900
vn 0.668300 -0.668300 0.326500
vn 0.097200 -0.920600 0.378300
vn 0.378300 -0.920600 0.097200
vn 0.370300 -0.851900 0.370300
vn 0.920600 -0.096400 -0.378300
vn 0.920600 -0.378300 -0.097200
vn 0.851900 -0.370300 -0.370300
vn 0.704200 -0.091300 -0.704100
vn 0.668300 -0.326500 -0.668300
vn 0.704100 -0.704100 -0.091900
vn 0.668300 -0.668300 -0.326500
vn 0.577300 -0.577300 -0.577300
vn 0.097200 -0.378300 -0.920600
vn 0.378400 -0.097000 -0.920500
vn 0.370300 -0.370300 -0.851900
vn 0.091900 -0.704100 -0.704100
vn 0.326500 -0.668300 -0.668300
vn 0.378300 -0.920600 -0.097200
vn 0.097200 -0.920600 -0.378300
vn 0.370300 -0.851900 -0.370300
vn -0.074700 -0.988300 -0.132900
vn -0.157800 -0.864700 -0.476800
vn -0.009500 -0.932200 -0.361600
vn -0.139900 -0.538100 -0.831100
vn -0.010300 -0.670300 -0.742000
vn -0.398000 -0.903900 -0.156400
vn -0.721900 -0.218600 -0.656500
vn -0.484900 -0.146800 -0.862100
vn -0.212400 0.229700 -0.949800
vn -0.049600 -0.308500 -0.949900
vn -0.144400 -0.043700 -0.988500
vn -0.380300 0.552500 -0.741600
vn -0.414900 0.370200 -0.831100
vn -0.610400 0.780900 -0.132900
vn -0.611000 0.631900 -0.476800
vn -0.832600 0.531300 -0.156400
vn -0.943500 -0.285700 -0.167600
vn -0.525000 0.770400 -0.361600
vn 0.988300 0.055500 0.141900
vn 0.790100 0.333600 0.514300
vn 0.897300 0.056800 0.437700
vn 0.547600 0.279200 0.788800
vn 0.675100 0.059800 0.735300
vn 0.909400 0.374600 0.180500
vn 0.396700 0.741300 0.541300
vn 0.303100 0.566400 0.766400
vn -0.118200 0.323100 0.938900
vn 0.334200 0.081100 0.939000
vn 0.173000 0.323300 0.930300
vn -0.325000 0.594800 0.735200
vn -0.071500 0.610500 0.788800
vn -0.160700 0.842400 0.514300
vn -0.192700 0.964500 0.180500
vn 0.461700 0.862800 0.205800
vn -0.450300 0.778100 0.437900
vn 0.790100 0.333500 -0.514300
vn 0.909400 0.374600 -0.180500
vn 0.396700 0.741300 -0.541300
vn 0.461700 0.862800 -0.205800
vn 0.897300 0.056800 -0.437700
vn 0.547600 0.279200 -0.788800
vn 0.303100 0.566400 -0.766400
vn -0.160700 0.842400 -0.514300
vn -0.450300 0.778100 -0.437900
vn -0.071500 0.610500 -0.788800
vn -0.325000 0.594800 -0.735200
vn -0.192700 0.964500 -0.180500
vn 0.334200 0.081100 -0.939000
vn -0.118200 0.323100 -0.938900
vn 0.173000 0.323300 -0.930300
vn 0.675100 0.059800 -0.735300
vn 0.097000 -0.990500 0.097000
vn 0.097000 -0.990500 -0.097000
s 1
f 98//1 40//2 59//3
f 96//4 21//5 39//6
f 1//7 20//8 78//9
f 97//10 3//11 79//12
f 4//13 6//14 7//15
f 5//16 7//15 8//17
f 7//15 16//18 19//19
f 8//17 19//19 9//20
f 2//21 13//22 10//23
f 10//23 14//24 11//25
f 12//26 8//17 13//22
f 13//22 9//20 14//24
f 3//11 18//27 15//28
f 15//28 19//19 16//18
f 17//29 14//24 18//27
f 18//27 9//20 19//19
f 23//30 25//31 26//32
f 24//33 26//32 27//34
f 26//32 35//35 38//36
f 26//32 28//37 27//34
f 29//38 31//39 32//40
f 30//41 32//40 33//42
f 32//40 24//33 27//34
f 32//40 28//37 33//42
f 34//43 36//44 37//45
f 35//35 37//45 38//36
f 37//45 30//41 33//42
f 37//45 28//37 38//36
f 42//46 44//47 45//48
f 43//49 45//48 46//50
f 45//48 54//51 57//52
f 45//48 47//53 46//50
f 48//54 50//55 51//56
f 49//57 51//56 52//58
f 51//56 43//49 46//50
f 51//56 47//53 52//58
f 53//59 55//60 56//61
f 54//51 56//61 57//52
f 56//61 49//57 52//58
f 56//61 47//53 57//52
f 58//62 64//63 61//64
f 61//64 65//65 62//66
f 63//67 76//68 64//63
f 64//63 66//69 65//65
f 67//70 69//71 70//72
f 68//73 70//72 71//74
f 70//72 62//66 65//65
f 71//74 65//65 66//69
f 60//75 75//76 72//77
f 72//77 76//68 73//78
f 74//79 71//74 75//76
f 75//76 66//69 76//68
f 77//80 83//81 80//82
f 80//82 84//83 81//84
f 82//85 95//86 83//81
f 83//81 85//87 84//83
f 86//88 88//89 89//90
f 87//91 89//90 90//92
f 89//90 81//84 84//83
f 90//92 84//83 85//87
f 79//12 94//93 91//94
f 91//94 95//86 92//95
f 93//96 90//92 94//93
f 94//93 85//87 95//86
f 96//4 102//97 99//98
f 99//98 103//99 100//100
f 101//101 114//102 102//97
f 102//97 104//103 103//99
f 97//10 108//104 105//105
f 105//105 109//106 106//107
f 107//108 103//99 108//104
f 108//104 104//103 109//106
f 110//109 112//110 113//111
f 111//112 113//111 114//102
f 113//111 106//107 109//106
f 114//102 109//106 104//103
f 21//5 80//82 31//39
f 31//39 81//84 24//33
f 24//33 88//89 23//30
f 23//30 78//9 20//8
f 22//113 12//26 2//21
f 34//43 5//16 12//26
f 35//35 4//13 5//16
f 25//31 1//7 4//13
f 97//10 91//94 107//108
f 107//108 92//95 100//100
f 100//100 82//85 99//98
f 99//98 77//80 96//4
f 98//1 50//55 40//2
f 110//109 43//49 50//55
f 111//112 42//46 43//49
f 101//101 39//6 42//46
f 22//113 53//59 36//44
f 36//44 54//51 30//41
f 30//41 44//47 29//38
f 29//38 39//6 21//5
f 41//114 61//64 55//60
f 55//60 62//66 49//57
f 49//57 69//71 48//54
f 48//54 59//3 40//2
f 79//12 15//28 93//96
f 93//96 16//18 87//91
f 87//91 6//14 86//88
f 86//88 1//7 78//9
f 58//62 10//23 63//67
f 63//67 11//25 73//78
f 73//78 17//29 72//77
f 17//29 60//75 72//77
f 97//10 74//79 60//75
f 105//105 68//73 74//79
f 106//107 67//70 68//73
f 112//110 59//3 67//70
f 22//113 58//62 41//114
f 77//80 21//5 96//4
f 60//75 3//11 97//10
f 1//7 6//14 4//13
f 4//13 7//15 5//16
f 6//14 16//18 7//15
f 7//15 19//19 8//17
f 12//26 13//22 2//21
f 13//22 14//24 10//23
f 5//16 8//17 12//26
f 8//17 9//20 13//22
f 17//29 18//27 3//11
f 18//27 19//19 15//28
f 11//25 14//24 17//29
f 14//24 9//20 18//27
f 20//8 25//31 23//30
f 23//30 26//32 24//33
f 25//31 35//35 26//32
f 38//36 28//37 26//32
f 21//5 31//39 29//38
f 29//38 32//40 30//41
f 31//39 24//33 32//40
f 27//34 28//37 32//40
f 22//113 36//44 34//43
f 34//43 37//45 35//35
f 36//44 30//41 37//45
f 33//42 28//37 37//45
f 39//6 44//47 42//46
f 42//46 45//48 43//49
f 44//47 54//51 45//48
f 57//52 47//53 45//48
f 40//2 50//55 48//54
f 48//54 51//56 49//57
f 50//55 43//49 51//56
f 46//50 47//53 51//56
f 41//114 55//60 53//59
f 53//59 56//61 54//51
f 55//60 49//57 56//61
f 52//58 47//53 56//61
f 63//67 64//63 58//62
f 64//63 65//65 61//64
f 73//78 76//68 63//67
f 76//68 66//69 64//63
f 59//3 69//71 67//70
f 67//70 70//72 68//73
f 69//71 62//66 70//72
f 70//72 65//65 71//74
f 74//79 75//76 60//75
f 75//76 76//68 72//77
f 68//73 71//74 74//79
f 71//74 66//69 75//76
f 82//85 83//81 77//80
f 83//81 84//83 80//82
f 92//95 95//86 82//85
f 95//86 85//87 83//81
f 78//9 88//89 86//88
f 86//88 89//90 87//91
f 88//89 81//84 89//90
f 89//90 84//83 90//92
f 93//96 94//93 79//12
f 94//93 95//86 91//94
f 87//91 90//92 93//96
f 90//92 85//87 94//93
f 101//101 102//97 96//4
f 102//97 103//99 99//98
f 111//112 114//102 101//101
f 114//102 104//103 102//97
f 107//108 108//104 97//10
f 108//104 109//106 105//105
f 100//100 103//99 107//108
f 103//99 104//103 108//104
f 98//1 112//110 110//109
f 110//109 113//111 111//112
f 112//110 106//107 113//111
f 113//111 109//106 114//102
f 77//80 80//82 21//5
f 80//82 81//84 31//39
f 81//84 88//89 24//33
f 88//89 78//9 23//30
f 34//43 12//26 22//113
f 35//35 5//16 34//43
f 25//31 4//13 35//35
f 20//8 1//7 25//31
f 79//12 91//94 97//10
f 91//94 92//95 107//108
f 92//95 82//85 100//100
f 82//85 77//80 99//98
f 110//109 50//55 98//1
f 111//112 43//49 110//109
f 101//101 42//46 111//112
f 96//4 39//6 101//101
f 41//114 53//59 22//113
f 53//59 54//51 36//44
f 54//51 44//47 30//41
f 44//47 39//6 29//38
f 58//62 61//64 41//114
f 61//64 62//66 55//60
f 62//66 69//71 49//57
f 69//71 59//3 48//54
f 3//11 15//28 79//12
f 15//28 16//18 93//96
f 16//18 6//14 87//91
f 6//14 1//7 86//88
f 2//21 10//23 58//62
f 10//23 11//25 63//67
f 11//25 17//29 73//78
f 3//11 60//75 17//29
f 105//105 74//79 97//10
f 106//107 68//73 105//105
f 112//110 67//70 106//107
f 98//1 59//3 112//110
f 2//21 58//62 22//113
