# Blender v2.61 (sub 0) OBJ File: 'windows.blend'
# www.blender.org
mtllib windows.mtl
v 2.077412 1.775720 1.412022
v 2.077412 1.775720 -1.444420
v 2.679230 1.877218 -0.016199
v 2.644799 1.847440 0.524221
v 2.644799 1.847440 -0.556619
v 2.477422 1.824348 0.999182
v 2.477422 1.824349 -1.031580
v 1.626238 2.286268 -0.016199
v 1.630515 2.278818 0.589946
v 1.630515 2.278818 -0.622344
v 1.607546 2.264063 1.083109
v 1.607546 2.264063 -1.115507
v 1.527672 1.764584 1.493993
v 1.527672 1.764584 -1.526391
v -0.650903 2.242111 -0.016199
v -2.145819 1.558111 -0.016199
v -2.111517 1.559299 0.796138
v -2.111517 1.559299 -0.828536
v -0.556270 2.285646 0.725232
v -0.556270 2.285646 -0.757630
v -0.629600 2.092249 1.142942
v -0.629600 2.092249 -1.175340
v -1.449272 1.577148 1.511012
v -1.449272 1.577148 -1.543411
v -0.689278 2.211642 1.095968
v -0.689278 2.211642 -1.128366
v -1.813580 1.607997 1.426143
v -1.813580 1.607997 -1.458541
v 0.408187 1.737303 1.492820
v 0.391610 1.778639 -1.521366
v 0.438968 1.884290 1.418807
v 0.422390 1.925625 -1.447353
v 1.253941 2.206219 1.204280
v 1.237363 2.247555 -1.232826
v 1.273072 2.172534 1.233900
v 1.256495 2.213870 -1.262446
v 0.511844 2.263743 1.158915
v 0.495266 2.305079 -1.187460
v 0.504089 2.205684 1.202990
v 0.487512 2.247020 -1.231536
v 0.474811 2.064698 1.316295
v 0.458233 2.106035 -1.344840
v 1.058803 1.764447 1.479319
v 1.042225 1.805783 -1.507865
v 1.182868 1.934629 1.387875
v 1.166291 1.975964 -1.416420
v 1.262922 2.081494 1.311895
v 1.246344 2.122830 -1.340440
v 0.939672 2.253828 1.164369
v 0.923095 2.295164 -1.192915
v 0.791158 1.750648 1.484638
v 0.774581 1.791984 -1.513184
v 1.153253 2.226021 1.185614
v 1.136675 2.267357 -1.214160
v 0.971787 1.761289 1.480353
v 0.955210 1.802625 -1.508898
v 0.833754 1.906743 1.418807
v 0.817177 1.948079 -1.447353
v 0.878242 2.064698 1.316295
v 0.861665 2.106035 -1.344840
v 1.025380 1.922286 1.418807
v 1.008802 1.963622 -1.447353
v 1.100079 2.072532 1.316295
v 1.083502 2.113868 -1.344840
v 0.917943 2.182422 1.209947
v 0.901366 2.223758 -1.238492
v 1.137301 2.174658 1.224818
v 1.120723 2.215993 -1.253364
vt 0.427571 0.396441
vt 0.682873 0.396441
vt 0.681493 0.534711
vt 0.432257 0.520057
vt 0.681493 0.258170
vt 0.432257 0.272824
vt 0.685567 0.647300
vt 0.464779 0.630199
vt 0.685567 0.145581
vt 0.464779 0.162682
vt 0.539547 0.737577
vt 0.652010 0.792881
vt 0.539547 0.055304
vt 0.652010 0.000000
vt 0.031790 0.500000
vt 0.533253 0.500000
vt 0.523652 0.749905
vt 0.000000 0.728059
vt 0.523652 0.250095
vt 0.000000 0.271941
vt 0.435582 0.945416
vt 0.046362 0.842149
vt 0.046362 0.157851
vt 0.435582 0.054584
vt 0.335321 1.000000
vt 0.039830 0.885713
vt 0.039764 0.114323
vt 0.335321 0.000000
vt 0.097527 0.597055
vt 0.127446 0.501301
vt 0.244727 0.611337
vt 0.221236 0.701202
vt 0.242349 0.597828
vt 0.291067 0.745583
vt 0.207088 0.754014
vt 0.164980 0.600979
vt 0.150349 0.424651
vt 0.264977 0.529674
vt 0.312312 0.596105
vt 0.357962 0.739922
vt 0.300512 0.666255
vt 0.288150 0.760946
vt 0.217167 0.526939
vt 0.139546 0.517397
vt 0.318184 0.581007
vt 0.289109 0.528739
vt 0.344194 0.605038
vt 0.344194 0.717381
vt 0.191123 0.469510
vt 0.278594 0.496057
vt 0.336226 0.807093
vt 0.118763 0.456584
vt 0.192191 0.818234
vt 0.202200 0.777341
vt 0.272498 0.827635
vt 0.264689 0.858692
vt 0.082692 0.517888
vt 0.099702 0.602749
vt 0.064710 0.603476
vt 0.056051 0.518656
vt 0.058859 0.712247
vt 0.070874 0.679883
vt 0.134202 0.762109
vt 0.105219 0.766934
vt 0.315693 0.859645
vt 0.071377 0.465483
vt 0.300972 0.873373
vt 0.056051 0.477522
vn 0.377697 0.925901 0.000000
vn 0.402387 0.911863 0.081057
vn 0.397717 0.914548 0.073244
vn 0.402387 0.911863 -0.081057
vn 0.397717 0.914548 -0.073244
vn 0.374157 0.841395 0.389904
vn 0.396466 0.870357 0.291971
vn 0.374157 0.841395 -0.389904
vn 0.396466 0.870357 -0.291971
vn 0.289438 0.710501 0.641377
vn 0.289438 0.710501 -0.641377
vn -0.419507 0.907743 0.000000
vn -0.424970 0.904050 0.045289
vn -0.425062 0.903989 0.045869
vn -0.424970 0.904050 -0.045289
vn -0.425062 0.903989 -0.045869
vn -0.344035 0.876339 0.337046
vn -0.307138 0.854549 0.418775
vn -0.307138 0.854549 -0.418775
vn -0.344035 0.876339 -0.337046
vn -0.045015 0.584063 0.810419
vn -0.045015 0.584063 -0.810419
vn -0.002777 0.578204 0.815882
vn -0.011902 0.464309 0.885556
vn -0.017548 0.467238 0.883938
vn -0.014161 0.602069 0.798303
vn -0.017548 0.467238 -0.883938
vn -0.011902 0.464309 -0.885556
vn -0.002777 0.578204 -0.815882
vn -0.014161 0.602069 -0.798303
vn -0.009827 0.420881 0.907041
vn -0.012238 0.403180 0.915006
vn -0.012238 0.403180 -0.915006
vn -0.009827 0.420881 -0.907041
vn 0.028260 0.457198 0.888882
vn 0.001801 0.595233 0.803522
vn 0.028260 0.457198 -0.888882
vn 0.001801 0.595233 -0.803522
vn 0.028016 0.376324 0.926054
vn 0.028016 0.376324 -0.926054
vn 0.096866 0.374096 0.922300
vn 0.072878 0.457900 0.885983
vn 0.072878 0.457900 -0.885983
vn 0.096866 0.374096 -0.922300
vn 0.007599 0.600513 0.799554
vn 0.007599 0.600513 -0.799554
vn -0.007172 0.570421 0.821284
vn -0.006165 0.616413 0.787378
vn -0.026307 0.633320 0.773400
vn -0.027284 0.601154 0.798639
vn -0.026307 0.633320 -0.773400
vn -0.006165 0.616413 -0.787378
vn -0.007172 0.570421 -0.821284
vn -0.027284 0.601154 -0.798639
vn 0.010224 0.567705 0.823145
vn 0.011078 0.609149 0.792962
vn 0.011078 0.609149 -0.792962
vn 0.010224 0.567705 -0.823145
vn -0.029450 0.648457 0.760643
vn -0.029450 0.648457 -0.760643
vn -0.032991 0.627949 0.777520
vn -0.032991 0.627949 -0.777520
usemtl Material_blue_glass.jpg
s 1
f 3/1/1 8/2/1 9/3/2
f 3/1/1 9/3/2 4/4/3
f 10/5/4 8/2/1 3/1/1
f 10/5/4 3/1/1 5/6/5
f 4/4/3 9/3/2 11/7/6
f 4/4/3 11/7/6 6/8/7
f 12/9/8 10/5/4 5/6/5
f 12/9/8 5/6/5 7/10/9
f 1/11/10 6/8/7 11/7/6
f 1/11/10 11/7/6 13/12/10
f 12/9/8 7/10/9 2/13/11
f 12/9/8 2/13/11 14/14/11
f 15/15/12 16/16/12 17/17/13
f 15/15/12 17/17/13 19/18/14
f 18/19/15 16/16/12 15/15/12
f 18/19/15 15/15/12 20/20/16
f 17/17/13 27/21/17 25/22/18
f 17/17/13 25/22/18 19/18/14
f 26/23/19 28/24/20 18/19/15
f 26/23/19 18/19/15 20/20/16
f 27/21/17 23/25/21 21/26/21
f 27/21/17 21/26/21 25/22/18
f 22/27/22 24/28/22 28/24/20
f 22/27/22 28/24/20 26/23/19
f 41/29/23 31/30/24 57/31/25
f 41/29/23 57/31/25 59/32/26
f 58/33/27 32/34/28 42/35/29
f 58/33/27 42/35/29 60/36/30
f 29/37/31 51/38/32 57/31/25
f 29/37/31 57/31/25 31/30/24
f 58/33/27 52/39/33 30/40/34
f 58/33/27 30/40/34 32/34/28
f 59/32/26 57/31/25 61/41/35
f 59/32/26 61/41/35 63/42/36
f 62/43/37 58/33/27 60/36/30
f 62/43/37 60/36/30 64/44/38
f 51/38/32 55/45/39 61/41/35
f 51/38/32 61/41/35 57/31/25
f 62/43/37 56/46/40 52/39/33
f 62/43/37 52/39/33 58/33/27
f 43/47/41 45/48/42 61/41/35
f 43/47/41 61/41/35 55/45/39
f 62/43/37 46/49/43 44/50/44
f 62/43/37 44/50/44 56/46/40
f 45/48/42 47/51/45 63/42/36
f 45/48/42 63/42/36 61/41/35
f 64/44/38 48/52/46 46/49/43
f 64/44/38 46/49/43 62/43/37
f 49/53/47 65/54/48 67/55/49
f 49/53/47 67/55/49 53/56/50
f 68/57/51 66/58/52 50/59/53
f 68/57/51 50/59/53 54/60/54
f 65/54/48 59/32/26 63/42/36
f 65/54/48 63/42/36 67/55/49
f 64/44/38 60/36/30 66/58/52
f 64/44/38 66/58/52 68/57/51
f 37/61/55 39/62/56 65/54/48
f 37/61/55 65/54/48 49/53/47
f 66/58/52 40/63/57 38/64/58
f 66/58/52 38/64/58 50/59/53
f 39/62/56 41/29/23 59/32/26
f 39/62/56 59/32/26 65/54/48
f 60/36/30 42/35/29 40/63/57
f 60/36/30 40/63/57 66/58/52
f 35/65/59 67/55/49 63/42/36
f 35/65/59 63/42/36 47/51/45
f 64/44/38 68/57/51 36/66/60
f 64/44/38 36/66/60 48/52/46
f 33/67/61 53/56/50 67/55/49
f 33/67/61 67/55/49 35/65/59
f 68/57/51 54/60/54 34/68/62
f 68/57/51 34/68/62 36/66/60
