# Blender v2.73 (sub 0) OBJ File: 'bridge.blend'
# www.blender.org
v -0.400000 -0.500000 3.900000
v -0.400000 -0.400000 4.000000
v -0.500000 -0.400000 3.900000
v -0.500000 -0.400000 -3.900000
v -0.400000 -0.400000 -4.000000
v -0.400000 -0.500000 -3.900000
v 0.400000 -0.400000 -4.000000
v 0.500000 -0.400000 -3.900000
v 0.400000 -0.500000 -3.900000
v 0.500000 -0.400000 3.900000
v 0.400000 -0.400000 4.000000
v 0.400000 -0.500000 3.900000
v -0.500000 0.400000 3.900000
v -0.400000 0.400000 4.000000
v -0.400000 0.500000 3.900000
v -0.500000 0.400000 -3.900000
v -0.400000 0.500000 -3.900000
v -0.400000 0.400000 -4.000000
v 0.400000 0.400000 -4.000000
v 0.400000 0.500000 -3.900000
v 0.500000 0.400000 -3.900000
v 0.500000 0.400000 3.900000
v 0.400000 0.500000 3.900000
v 0.400000 0.400000 4.000000
vt 1.482655 0.818951
vt 1.472335 0.834922
vt 1.460790 0.818964
vt 1.211884 0.894656
vt 1.227855 0.904975
vt 1.211897 0.916521
vt 1.299977 0.973932
vt 1.311363 0.989966
vt 1.289760 0.989967
vt 1.558359 0.916327
vt 1.542325 0.906110
vt 1.558359 0.894725
vt 1.387344 0.896827
vt 1.403378 0.907044
vt 1.387344 0.918429
vt 1.287657 0.818951
vt 1.309259 0.818951
vt 1.299042 0.834986
vt 1.371165 0.903942
vt 1.387122 0.892397
vt 1.387136 0.914261
vt 1.484913 0.994190
vt 1.463048 0.994203
vt 1.473368 0.978232
vt 0.780181 1.004399
vt 0.780885 -0.022373
vt 0.990700 -0.022337
vt 0.743091 1.004393
vt 0.743795 -0.022379
vt 0.040176 -0.022501
vt 0.039469 1.004271
vt 0.002378 1.004265
vt 0.249988 -0.022464
vt 0.249283 1.004308
vt 0.287078 -0.022458
vt 0.286374 1.004314
vt 0.496890 -0.022422
vt 0.496188 1.004350
vt 0.533980 -0.022416
vt 0.533279 1.004357
vt 0.989994 1.004436
vt 0.003086 -0.022507
vt 0.004410 1.045491
vn -0.577400 -0.577300 0.577400
vn -0.577300 -0.577400 -0.577400
vn 0.577300 -0.577400 -0.577400
vn 0.577400 -0.577300 0.577400
vn -0.577400 0.577300 0.577300
vn -0.577300 0.577400 -0.577400
vn 0.577300 0.577400 -0.577400
vn 0.577400 0.577300 0.577300
vn 0.000000 0.707100 0.707100
vn 0.000000 -0.707100 0.707100
vn 0.000000 0.000000 1.000000
vn 0.707100 0.000000 0.707100
vn -0.707100 0.000000 0.707100
vn 0.000000 0.707100 -0.707100
vn -0.707100 0.000000 -0.707100
vn 0.000000 -0.707100 -0.707100
vn 0.707100 0.000000 -0.707100
vn 0.000000 0.000000 -1.000000
vn 1.000000 0.000000 0.000000
vn 0.707100 -0.707100 0.000000
vn 0.707100 0.707100 0.000000
vn 0.000000 1.000000 0.000000
vn -0.707100 0.707100 0.000000
vn -1.000000 0.000000 0.000000
vn -0.707100 -0.707100 0.000000
vn 0.000000 -1.000000 0.000000
s off
f 1/1/1 2/2/1 3/3/1
f 4/4/2 5/5/2 6/6/2
f 7/7/3 8/8/3 9/9/3
f 10/10/4 11/11/4 12/12/4
f 13/13/5 14/14/5 15/15/5
f 16/16/6 17/17/6 18/18/6
f 19/19/7 20/20/7 21/21/7
f 22/22/8 23/23/8 24/24/8
f 24/24/9 23/23/9 15/15/9
f 12/12/10 11/11/10 2/2/10
f 14/14/11 2/2/11 11/11/11
f 22/22/12 24/24/12 11/11/12
f 14/14/13 13/13/13 3/3/13
f 20/20/14 19/19/14 18/18/14
f 16/16/15 18/18/15 5/5/15
f 7/7/16 9/9/16 6/6/16
f 19/19/17 21/21/17 8/8/17
f 7/7/18 5/5/18 18/18/18
f 10/25/19 8/26/19 21/27/19
f 10/25/20 12/28/20 9/29/20
f 20/30/21 23/31/21 22/32/21
f 20/30/22 17/33/22 15/34/22
f 17/33/23 16/35/23 13/36/23
f 16/35/24 4/37/24 3/38/24
f 4/37/25 6/39/25 1/40/25
f 1/40/26 6/39/26 9/29/26
f 14/14/9 24/24/9 15/15/9
f 1/1/10 12/12/10 2/2/10
f 24/24/11 14/14/11 11/11/11
f 10/10/12 22/22/12 11/11/12
f 2/2/13 14/14/13 3/3/13
f 17/17/14 20/20/14 18/18/14
f 4/4/15 16/16/15 5/5/15
f 5/5/16 7/7/16 6/6/16
f 7/7/17 19/19/17 8/8/17
f 19/19/18 7/7/18 18/18/18
f 22/41/19 10/25/19 21/27/19
f 8/26/20 10/25/20 9/29/20
f 22/32/21 21/42/21 20/30/21
f 23/31/8 24/43/8 22/32/8
f 23/31/22 20/30/22 15/34/22
f 15/34/23 17/33/23 13/36/23
f 13/36/24 16/35/24 3/38/24
f 3/38/25 4/37/25 1/40/25
f 12/28/26 1/40/26 9/29/26
